<?xml version="1.0" standalone="no"?>
<!DOCTYPE svg PUBLIC "-//W3C//DTD SVG 1.1//EN" "http://www.w3.org/Graphics/SVG/1.1/DTD/svg11.dtd" >
<svg xmlns="http://www.w3.org/2000/svg" xmlns:xlink="http://www.w3.org/1999/xlink" version="1.1">
<metadata>
Created by FontForge 20170731 at Thu Jan  7 07:12:14 2021
 By Aleksey,,,
(c)2020, alphArt Co.
</metadata>
<defs>
<font id="Holiday2-Regular" horiz-adv-x="0" >
  <font-face 
    font-family="Holiday2"
    font-weight="400"
    font-stretch="normal"
    units-per-em="1000"
    panose-1="0 0 0 0 0 0 0 0 0 0"
    ascent="800"
    descent="-200"
    x-height="368"
    cap-height="687"
    bbox="-210 -200 928 848.368"
    underline-thickness="50"
    underline-position="-225"
    unicode-range="U+0020-2212"
  />
<missing-glyph horiz-adv-x="500" 
d="M410 -200h-317v1000h317v-1000zM333 -131v33h-102l70 47h32v33h-166v-33h70l-70 -47v-33h166zM333 5v113h-166v-113h166zM333 178v113h-100v-56h34v23h33v-47h-100v80h-33v-113h166zM333 313v100h-33v-66h-133v-34h166zM267 370v70h66v33h-166v-33h66v-37h-66v-33h100z
M333 500v34h-66v70h-100v-104h166zM333 630v33h-66v37h66v33h-165v-33h65v-37h-66v-33h166zM200 85h100v-47h-100v47zM200 570h33v-36h-33v36z" />
    <glyph glyph-name="a_hyphen_hyphen.liga" unicode="a&#x2d;&#x2d;" horiz-adv-x="564" 
d="M32 293q-15 -18 -25 -37q40 20 82 62q-9 7 -16 7q-6 0 -9 -2q-15 -9 -32 -30zM-31.5 290.5q17.5 33.5 43.5 57t51 23.5q28 0 48 -31l7 7q3 4 8 4q11 0 23 -13.5t9 -23.5q-2 -17 -11 -39q-8 -24 -10 -36l-1 -8q0 -8 3 -14q2 -4 4 -6q15 -11 46 -11q22 0 59 7
q77 15 151.5 51.5t132.5 88.5q4 4 9 4t9 -5t4 -11q0 -8 -6 -14q-67 -65 -146.5 -109.5t-162.5 -52.5q-8 -1 -24 -1q-65 0 -97 35q-22 25 -25 57q-59 -47 -110 -53q-10 -1 -21.5 10.5t-11.5 22.5q1 27 18.5 60.5z" />
    <glyph glyph-name="a_b.liga" unicode="ab" horiz-adv-x="502" 
d="M31 292q-12 -14 -24 -37q35 18 81 62q-8 8 -17 8q-3 0 -8 -3q-16 -9 -32 -30zM-33 289q17 34 43.5 58t51.5 24q28 0 48 -31l7 7q3 4 8 4q12 0 24 -13.5t8 -23.5q-1 -14 -11 -42q-2 -5 -4.5 -12.5t-4.5 -17.5q15 3 29 13q24 15 44 37.5t44 53.5q49 65 111 185
q24 53 64 131q3 7 11 7q12 0 24 -14.5t7 -23.5q-78 -151 -128 -290q20 20 38 32.5t37 12.5q15 0 30 -12q18 -15 18 -39q0 -27 -23 -63q-42 -70 -80 -70q-11 0 -21 6t-14 16q-5 9 -2 16q-23 -29 -35 -58q-3 -8 -11 -6q-12 0 -24 13.5t-8 23.5q15 51 36 113q-37 -54 -70.5 -89
t-63.5 -35q-35 0 -51 30q-4 9 -6 18q-59 -47 -111 -53q-10 -1 -21 10t-11 22q0 26 17 60zM335 246q26 -4 61 50q16 24 21 37q-6 -3 -16 -11q-20 -17 -45 -45q-14 -16 -26 -32q1 1 5 1z" />
    <glyph glyph-name="a_h.liga" unicode="ah" horiz-adv-x="612" 
d="M31 292q-15 -18 -24 -37q36 18 82 62q-8 8 -17 8q-4 0 -9 -3q-17 -10 -32 -30zM-32 290.5q17 33.5 43 57t51 23.5q28 0 48 -31l7 7q3 4 9 4q11 0 23 -13.5t9 -23.5q-3 -18 -11 -40q-8 -27 -9 -32q14 4 27 14q23 17 43 38.5t46 54.5q50 68 112 181q34 67 74 134q4 7 11 7
q12 0 24 -14t7 -24q-96 -161 -141 -290q-2 -5 -15 -44q44 46 80 68q26 17 42 17q12 0 23 -8q22 -16 22 -46q0 -18 -12 -52q-8 -23 -10 -32q24 7 58 31q30 21 86 69q5 4 11 4t11 -5t5 -11t-5 -11l-17 -19q-37 -41 -63.5 -63.5t-58.5 -33.5q-11 -4 -23 -4q-18 0 -30.5 10.5
t-16.5 31.5q-1 4 -1 12q0 20 9 43q2 6 5.5 15t4.5 16q-30 -18 -54 -41.5t-61 -65.5l-17 -19q-3 -3 -7 -3q-8 0 -17 7q-21 14 -21 48q0 24 12 64q-38 -52 -71.5 -88t-59.5 -36q-15 0 -28.5 10t-21.5 24q-4 7 -6 19q-59 -47 -111 -53q-11 -1 -22 10.5t-11 22.5q1 27 18 60.5z
" />
    <glyph glyph-name="a_k.liga" unicode="ak" horiz-adv-x="523" 
d="M32 292q-16 -17 -24 -37q35 18 81 62q-4 4 -12 6t-13 -1q-16 -9 -32 -30zM-31.5 290.5q17.5 33.5 43.5 57t51 23.5q28 0 48 -31l7 7q3 4 8 4q11 0 23 -13.5t9 -23.5q-1 -11 -5 -23.5t-5 -16.5q-7 -20 -8 -26q11 4 30 19q40 33 86 101q40 61 87 158q33 75 70 138q4 6 11 6
q12 0 24.5 -14t6.5 -23q-57 -94 -107 -233q-15 -39 -24 -71q54 17 82 53q3 4 8 4q10 0 21.5 -11.5t11.5 -22.5q0 -5 -3 -8q-33 -45 -110 -62q13 -22 32 -31q14 -7 29 -7q35 0 69 31t61 71q4 5 10 5q7 0 12.5 -6t5.5 -14q0 -5 -3 -10q-30 -41 -47 -62t-42 -38.5t-53 -17.5
q-21 0 -41 10q-36 19 -61 55q-8 -36 -6 -55v-2q0 -8 -10 -8q-5 0 -11 2q-19 9 -22 30q-1 4 -1 14q0 18 5 38t6 23l4 16q-75 -125 -123 -125q-14 0 -26 8t-20 21q-6 9 -8 20q-59 -47 -111 -53q-10 -1 -21.5 10.5t-11.5 22.5q1 27 18.5 60.5z" />
    <glyph glyph-name="a_l.liga" unicode="al" horiz-adv-x="427" 
d="M32 292q-15 -16 -25 -37q36 18 82 62q-8 8 -17 8q-5 0 -8 -3q-16 -9 -32 -30zM-31.5 290.5q17.5 33.5 43.5 57t51 23.5q28 0 48 -31l7 7q3 4 8 4q12 0 23.5 -13.5t8.5 -24.5q-1 -9 -10 -34q-8 -22 -10 -34q2 2 5 2q23 13 50 48q67 81 134 223q34 81 70 146q4 7 11 7
q12 0 24.5 -14t7.5 -24q-101 -183 -136 -345q-2 -9 -3 -21.5t-1 -17.5q4 1 8.5 2t8.5 3q30 15 58.5 39.5t49.5 52.5q4 5 10 5q8 0 15 -6.5t7 -14.5q0 -4 -3 -9q-34 -46 -55.5 -69.5t-50.5 -37.5q-22 -9 -38 -9q-38 0 -52 35q-5 15 -5 28q0 16 9 56q-72 -121 -115 -121
q-15 0 -27.5 7t-19.5 20q-4 10 -6 20q-59 -47 -111 -53q-10 -1 -21.5 10.5t-11.5 22.5q1 27 18.5 60.5z" />
    <glyph glyph-name="a_l_l.liga" unicode="all" horiz-adv-x="641" 
d="M32 292q-15 -16 -25 -37q36 18 82 62q-8 8 -18 8q-3 0 -8 -3q-15 -9 -31 -30zM-31.5 290.5q17.5 33.5 43.5 57t51 23.5q28 0 48 -31l6 7q3 4 9 4q11 0 23 -13.5t9 -23.5q-3 -20 -11 -41q-8 -28 -9 -31q14 3 29 13q40 26 87 91q56 74 116 193q28 67 60 125q4 7 11 7
q12 0 24.5 -14t7.5 -24q-60 -109 -107 -245q-6 -16 -8 -24q-16 -44 -25.5 -79t-11.5 -67l11 5q24 18 42.5 41t48.5 65q58 83 134 225q29 64 55 110q4 7 11 7q12 0 24.5 -14.5t6.5 -23.5q-100 -185 -135 -345q-4 -19 -6 -41q15 5 19 7q30 15 58.5 39.5t49.5 52.5q4 5 10 5
q8 0 14.5 -7t6.5 -15q0 -4 -3 -9q-60 -81 -111 -105q-18 -9 -37 -9q-35 0 -47 34q-5 15 -5 28q0 20 5.5 41.5t6.5 25.5q-91 -150 -134 -163q-10 -2 -14 -2q-21 0 -37 16.5t-18 38.5q-1 16 1.5 33t9.5 44q2 9 14 49l-13 -19q-41 -59 -74.5 -95t-64.5 -35q-16 0 -29 8t-21 22
q-4 9 -6 18q-59 -47 -111 -53q-10 -1 -21.5 10.5t-11.5 22.5q1 27 18.5 60.5z" />
    <glyph glyph-name="a_t.liga" unicode="at" horiz-adv-x="425" 
d="M31 292q-12 -14 -24 -37q38 19 81 62q-7 7 -17 7q-4 0 -8 -2q-17 -10 -32 -30zM-33 289q17 34 43.5 58t51.5 24q28 0 48 -31l7 7q3 4 9 4q12 0 23.5 -13.5t7.5 -24.5q-1 -10 -10 -35q-1 -4 -6 -19t-4 -29q-1 2 1 -6q17 6 43 32q35 38 76 108q31 52 61 109
q-70 -11 -128 -28q-11 -3 -24 10.5t-13 24.5q0 7 6 8q83 24 184 35l26 53q0 1 2 3q20 42 42 81q3 7 11 7q12 0 24 -14.5t7 -23.5q-29 -53 -51 -100h10q38 2 61 2q87 0 137 -26q9 -4 16 -12t7 -16q0 -12 -12 -12q-5 0 -10 3q-42 21 -109 21q-29 0 -75 -4l-47 -3
q-47 -109 -73 -213q-18 -70 -20 -121q-2 -20 0 -40q1 -13 5 -19q3 -4 3 -10q0 -11 -12 -11q-14 0 -29 22q-11 20 -11 55q0 65 18 137q4 20 7 29q-33 -54 -63 -91t-60 -37q-7 0 -10 1q-15 5 -24 16.5t-15 29.5q-4 15 -5 20q-59 -47 -110 -53q-11 -1 -22 10t-11 22q0 26 17 60
z" />
    <glyph glyph-name="b_hyphen_hyphen.liga" unicode="b&#x2d;&#x2d;" horiz-adv-x="215" 
d="M68 276q-18 -20 -26 -31l2 0.5t4 -0.5q16 -2 30.5 13t29.5 37q13 17 21 38q-4 -2 -16 -12q-19 -16 -45 -45zM142 662q3 7 10 7q12 0 24.5 -14t7.5 -24q-76 -144 -129 -290q20 20 38 32.5t37 12.5q15 0 30 -12q19 -16 19 -40q0 -22 -23 -62q-20 -31 -38.5 -51t-41.5 -20
q-11 0 -21.5 6.5t-14.5 16.5q-4 7 -2 16q-26 -38 -35 -58q-3 -7 -9 -7q-12 0 -25 13.5t-8 24.5q66 232 181 449z" />
    <glyph glyph-name="c_hyphen_hyphen.liga" unicode="c&#x2d;&#x2d;" horiz-adv-x="588" 
d="M-17 311q14 26 34.5 45t40.5 19q17 0 27.5 -10t10.5 -21q0 -12 -10 -12q-6 0 -15 6l9 -6l-9 -3q-9 -6 -17 -14q-17 -17 -32 -42l-10 -23l-1 -3q27 2 76 14l22 5l35 8q69 17 138 30q104 21 167 22q37 0 66 -7t51 -27q6 -6 10 -15.5t-1 -14.5q-3 -3 -8 -3q-7 0 -22 12
q-1 1 -5 2q-7 4 -14 5q-15 4 -36 4q-37 1 -95 -6q-66 -9 -174 -35q-120 -28 -181 -36q-5 -1 -14 -1q-26 0 -43.5 12t-17.5 37q0 8 1 13q3 19 17 45z" />
    <glyph glyph-name="c_h.liga" unicode="ch" horiz-adv-x="529" 
d="M538 350q8 0 14.5 -6.5t6.5 -13.5q0 -5 -5 -10l-26 -25q-34 -35 -59.5 -55.5t-55.5 -30.5q-11 -4 -24 -4q-18 0 -31 10t-17 30q-1 4 -1 12q0 20 9 43q2 6 4.5 14t5.5 17q-30 -18 -54 -41.5t-61 -65.5l-17 -19q-3 -3 -7 -3q-8 0 -17 7q-22 15 -22 48q0 25 9.5 53t11.5 35
q2 6 4 12.5t4 13.5q-63 -87 -108 -133.5t-81 -46.5q-10 0 -20 5q-18 9 -27 24.5t-9 33.5q0 12 3 22q8 31 35 65t55 34q12 0 23 -7q7 -4 11 -11t4 -14q0 -11 -11 -11l-5 1q-3 0 -8 -4q-2 -1 -13 -9q-15 -14 -28 -33q-14 -18 -21 -40l-2 -14q27 4 59 32q42 33 96 102
q58 73 133 196q25 46 56 101q4 7 11 7q12 0 24.5 -14t7.5 -24q-96 -161 -141 -290q-2 -5 -15 -44q44 46 80 68q26 17 42 17q12 0 23 -8q22 -16 22 -46q0 -18 -12 -52q-8 -23 -10 -32q14 4 29 13t29 18q30 21 86 69q4 4 10 4z" />
    <glyph glyph-name="c_k.liga" unicode="ck" horiz-adv-x="440" 
d="M453 352q6 0 11 -4.5t5 -11.5q0 -4 -3 -9q-5 -7 -31 -44t-55 -58.5t-57 -21.5q-19 0 -39 10q-35 17 -61 55q-7 -24 -7 -42q0 -9 1 -13v-2q0 -8 -10 -8q-5 0 -11 2q-20 10 -23 30l-1 11q0 16 4.5 36t6.5 28q12 42 19 62q-64 -93 -104.5 -137t-74.5 -44q-13 0 -22 5
q-17 9 -26.5 24.5t-9.5 34.5q0 7 4 23q9 32 35.5 64.5t54.5 32.5q12 0 23 -7q7 -4 11 -11t4 -14q0 -5 -3 -8t-8 -3h-6q-3 0 -8 -3l-12 -9q-15 -14 -28 -33q-14 -18 -21 -40q-3 -14 -2 -14q22 2 57 31q41 36 91 105q58 81 121 197q23 53 51 98q4 6 11 6q13 0 25 -13.5
t7 -23.5q-55 -91 -108 -233l-24 -71q56 17 83 53q3 4 8 4q7 0 16.5 -7.5t14 -17.5t-0.5 -17q-35 -45 -110 -62q11 -21 32 -31q14 -7 29 -7q56 0 130 102q5 6 11 6z" />
    <glyph glyph-name="c_l.liga" unicode="cl" horiz-adv-x="359" 
d="M214 387q-61 -90 -109 -142.5t-85 -52.5q-10 0 -18 4q-18 9 -27.5 25t-9.5 34q0 11 3 21q9 32 36 65.5t55 33.5q12 0 23 -7q7 -4 11 -11t4 -13t-3.5 -9.5t-10.5 -2.5l-2 1q-2 0 -9 -4l-12 -9q-15 -14 -28 -33q-14 -18 -21 -40l-3 -13q26 6 59 35q39 33 93 105
q61 84 125 198q20 42 47 92q3 7 11 7q12 0 24 -14.5t7 -23.5q-100 -185 -135 -345q-4 -16 -6 -39q14 2 19 5q29 14 57.5 38.5t50.5 53.5q4 5 10 5q7 0 13 -6.5t6 -13.5q0 -5 -3 -10q-29 -39 -54.5 -65.5t-55.5 -40.5q-18 -9 -37 -9q-34 0 -46 34q-5 11 -5 29q0 21 5.5 43
t6.5 25z" />
    <glyph glyph-name="c_t.liga" unicode="ct" horiz-adv-x="332" 
d="M535 493q7 -8 7 -16q0 -12 -11 -12q-5 0 -10 3q-42 21 -110 21q-28 0 -74 -4l-47 -3q-46 -106 -74 -213q-7 -30 -13 -62t-7 -59q-2 -20 0 -40q1 -9 5 -19q3 -4 3 -10q0 -11 -12 -11q-8 0 -15.5 7t-12.5 15q-12 20 -12 58q0 57 18 134q9 37 16 61q-42 -65 -85 -109
t-79 -44q-12 0 -21 5q-18 9 -27 25t-9 35q0 11 3 23q10 32 36 64.5t54 32.5q12 0 23 -7q7 -4 11 -11t4 -14q0 -11 -11 -11q-2 0 -5.5 1t-7.5 -3q2 1 -13 -10q-13 -12 -27 -31q-15 -23 -21 -39q-2 -7 -4 -17q0 -1 1 -2t2 0q24 1 56 27q40 33 87 99q33 47 71 116
q-68 -11 -126 -28q-11 -3 -24.5 10t-13.5 24q0 8 7 9q84 24 183 35q7 13 19 39q2 2 2 3q32 64 49 95q3 7 11 7q12 0 24 -14.5t7 -23.5q-29 -53 -51 -100h11q38 2 61 2q86 0 137 -26q8 -4 15 -12z" />
    <glyph glyph-name="d_hyphen_hyphen.liga" unicode="d&#x2d;&#x2d;" horiz-adv-x="724" 
d="M164 175v1v-1q3 0 3 -1l7 -1q4 -1 13 -1q23 0 55 13q34 11 87 36l45 21q95 46 150 64q56 20 100 20q37 0 68 -16q8 -5 15 -12.5t7 -15.5q0 -12 -11 -12q-4 0 -10 2q-24 12 -52 12q-33 0 -68 -12t-80 -32q-27 -12 -48.5 -22t-39.5 -18q-72 -35 -116 -52q-49 -19 -82 -19
q-39 0 -63 24q-29 29 -29 79q0 24 7 55q-2 -2 -4 -6q-31 -39 -58 -61.5t-61 -19.5q-10 1 -19 9t-12 19t-3 21q0 39 39 94q26 34 60 34q23 0 44 -18q42 60 107 175q24 50 69 129q5 6 10 6t13 -4q10 -5 17 -15.5t3 -17.5l-72 -133q-50 -101 -78 -196q-2 -7 -10.5 -37t-8.5 -56
q0 -11 1 -16l3 -14l2 -5h1h-1zM47.5 279.5q16.5 17.5 34.5 42.5l9 12q-3 3 -8 3q-12 0 -27 -16.5t-22 -28.5q-15 -25 -21 -40q18 10 34.5 27.5z" />
    <glyph glyph-name="e_hyphen_hyphen.liga" unicode="e&#x2d;&#x2d;" horiz-adv-x="736" 
d="M-5 225l2 -2zM-45 253q0 27 15.5 54t41 44.5t52.5 17.5q23 0 43.5 -17.5t20.5 -39.5q0 -10 -4 -18q-19 -39 -87 -39q-12 0 -32 2q-6 -13 -8 -27l1 -7v0h-1l2 -1q16 -5 42 -5q17 0 25 1q46 3 92 12.5t112 26.5q8 1 22 5q77 19 131.5 30t109.5 18q48 6 73 6q65 0 105 -26
q15 -10 15 -25q0 -12 -10 -12q-6 0 -15 6q-12 7 -37 11q-12 2 -35 2q-40 0 -80.5 -6t-94.5 -17q-37 -7 -125 -28q-89 -22 -160 -35q-14 -2 -20 -4q-8 -1 -35.5 -5.5t-50.5 -4.5q-54 0 -83 25q-25 21 -25 56zM-3 221v2v-2zM59 307q12 5 20 14v1l-19 -3q-14 -7 -27 -20
q18 4 26 8z" />
    <glyph glyph-name="e_b.liga" unicode="eb" horiz-adv-x="466" 
d="M320 277q-14 -16 -26 -32q1 1 5 1q26 -4 61 50q16 24 21 37q-6 -3 -16 -11q-20 -17 -45 -45zM-28.5 305q16.5 27 42.5 45.5t52 18.5q27 0 47 -21q13 -13 13 -28t-14 -30q-18 -19 -47.5 -26t-59.5 -6q-2 -4 -4 -12q-1 -3 -1 -9q0 -8 3 -10q5 -1 16 -1q19 0 46 11
q62 24 128 97q80 88 150 228q16 34 50 100q3 7 11 7q12 0 24 -14.5t7 -23.5q-78 -151 -128 -290q20 20 38 32.5t37 12.5q15 0 30 -12q18 -15 18 -39q0 -27 -23 -63q-42 -70 -80 -70q-11 0 -21 6t-14 16q-5 9 -2 16q-23 -29 -35 -58q-3 -8 -11 -6q-12 0 -24 13.5t-8 23.5
q20 68 50 153q-64 -90 -122.5 -136.5t-104.5 -46.5q-30 0 -55 20t-25 51q0 24 16.5 51zM81 321l1 3l-15 -3q-18 -7 -34 -22q33 2 48 22z" />
    <glyph glyph-name="e_h.liga" unicode="eh" horiz-adv-x="573" 
d="M33 299q33 2 48 22l1 3l-15 -3q-18 -7 -34 -22zM-28.5 305q16.5 27 42.5 45.5t52 18.5q27 0 47 -21q13 -13 13 -27t-15 -31q-17 -19 -46.5 -26t-59.5 -6q-2 -4 -4 -12q-2 -6 -2 -11q0 -7 4 -8t16 -1q19 0 46 11q63 24 127 97q70 75 130 187q30 61 78 143q4 7 11 7
q12 0 24.5 -14t7.5 -24q-96 -160 -142 -290l-14 -44q40 43 79 68q26 17 43 17q12 0 23 -8q22 -16 22 -46q0 -18 -12 -52q-8 -23 -10 -32q22 6 57 31q31 21 87 69q5 4 11 4t11 -5t5 -11t-5 -11l-21 -23q-35 -38 -61 -60t-57 -33q-11 -4 -23 -4q-18 0 -30.5 10.5t-16.5 31.5
q-1 4 -1 12q0 20 9 43q2 6 4.5 14t5.5 17q-30 -18 -54 -41.5t-61 -65.5l-17 -19q-3 -3 -7 -3t-9 2t-8 5q-22 15 -22 48q0 25 9.5 53t11.5 35q0 2 2 8q-61 -84 -116.5 -127t-99.5 -43q-31 0 -56 20t-25 51q0 24 16.5 51z" />
    <glyph glyph-name="e_k.liga" unicode="ek" horiz-adv-x="508" 
d="M33 299q34 2 47 22q2 2 2 3l-15 -3q-18 -7 -34 -22zM-28.5 305q16.5 27 42.5 45.5t52 18.5q27 0 47 -21q13 -13 13 -27t-15 -31q-17 -19 -46.5 -26t-59.5 -6q-2 -4 -4 -12q-2 -6 -2 -11q0 -7 4 -8t16 -1q19 0 46 11q63 24 127 97q44 48 81 105t74 129v2q32 64 50 94
q4 6 11 6q13 0 25 -13.5t7 -23.5q-55 -91 -108 -233l-9 -26q-3 -8 -7 -19t-8 -26q56 17 83 53q3 4 8 4q7 0 16.5 -7.5t14 -17.5t-0.5 -17q-35 -45 -110 -62q11 -21 32 -31q14 -7 29 -7q56 0 130 102q4 5 9 5q7 0 13 -6.5t6 -13.5q0 -6 -4 -10q-28 -39 -45.5 -61t-42.5 -39.5
t-53 -17.5q-21 0 -41 10q-35 17 -61 55q-7 -24 -7 -42q0 -9 1 -13v-2q0 -8 -10 -8q-5 0 -11 2q-20 10 -23 30l-1 11q0 16 4.5 36t6.5 28q6 24 22 72q-68 -99 -128.5 -149t-109.5 -50q-30 0 -55 20t-25 51q0 24 16.5 51z" />
    <glyph glyph-name="e_l.liga" unicode="el" horiz-adv-x="425" 
d="M33 299q33 2 48 22l1 3l-15 -3q-18 -7 -34 -22zM-28.5 305q16.5 27 42.5 45.5t52 18.5q27 0 47 -21q13 -13 13 -28t-14 -30q-18 -19 -47.5 -26t-59.5 -6q-2 -4 -4 -12q-1 -3 -1 -9q0 -8 3 -10q5 -1 16 -1q19 0 46 11q62 24 128 97q77 84 152 231q29 62 50 99q4 7 11 7
q12 0 24.5 -14.5t6.5 -23.5q-100 -185 -135 -345q-6 -24 -6 -41q15 5 19 7q30 15 58.5 39.5t49.5 52.5q4 5 10 5q8 0 15 -6.5t7 -14.5q0 -4 -3 -9q-34 -46 -55.5 -69.5t-50.5 -37.5q-22 -9 -38 -9q-18 0 -32 8.5t-20 26.5q-5 11 -5 29q0 25 13 68q3 13 14 53
q-69 -102 -131 -154.5t-112 -52.5q-30 0 -55 20t-25 51q0 24 16.5 51z" />
    <glyph glyph-name="e_l_l.liga" unicode="ell" horiz-adv-x="605" 
d="M33 299q33 2 48 22q1 1 1 3l-14 -3q-18 -7 -35 -22zM-28.5 305q16.5 27 42.5 45.5t52 18.5q27 0 47 -21q14 -14 14 -28q0 -13 -15 -30q-18 -19 -47.5 -26t-59.5 -6l-4 -12q-1 -3 -1 -9q0 -9 4 -10t15 -1q20 0 46 11q62 24 128 97q79 87 150 227q27 59 51 103q3 7 11 7
q12 0 24 -14.5t7 -23.5q-57 -104 -106 -245q-22 -61 -32.5 -97t-13.5 -73q6 1 11 5q25 18 44 41t48 65q54 78 134 225q29 64 55 110q3 7 11 7q12 0 24 -14.5t7 -23.5q-99 -179 -136 -345q-6 -37 -6 -41q14 4 19 7q30 14 58.5 38.5t50.5 53.5q4 5 10 5q8 0 14.5 -7t6.5 -15
q0 -4 -3 -9q-29 -38 -55 -64.5t-56 -40.5q-19 -9 -38 -9q-35 0 -47 34q-5 15 -5 28q0 24 13 67q-91 -150 -135 -163q-10 -2 -13 -2q-21 0 -37 16.5t-18 38.5q-1 16 1.5 33t9.5 44q11 42 24 84q-67 -99 -129 -151t-111 -52q-31 0 -56 20t-25 51q0 24 16.5 51z" />
    <glyph glyph-name="e_t.liga" unicode="et" horiz-adv-x="406" 
d="M33 299q34 2 47 22q2 2 2 3l-15 -3q-18 -7 -34 -22zM-28.5 305q16.5 27 42.5 45.5t52 18.5q27 0 47 -21q12 -13 12 -27q0 -16 -16 -34q-31 -34 -104 -29q-2 -4 -4 -12q-2 -6 -2 -11q0 -7 4 -8t16 -1q19 0 46 11q60 23 127 97q51 55 102 138q-62 -9 -122 -27
q-11 -3 -24.5 10t-13.5 24q0 8 7 9q82 24 182 35q16 30 23 45l3 4q10 21 32 63q4 8 7.5 14t5.5 11q3 7 11 7q12 0 24.5 -14t7.5 -24q-36 -66 -52 -100h11q38 2 61 2q86 0 137 -26q8 -4 15 -12t7 -16q0 -12 -11 -12q-5 0 -10 3q-42 21 -110 21q-28 0 -74 -4l-47 -3
q-47 -109 -73 -213q-17 -69 -21 -121v-20q0 -13 1 -20q1 -12 4 -19q3 -4 3 -10q0 -11 -11 -11q-9 0 -16.5 7t-12.5 15q-8 14 -10 30.5t-2 39.5q3 56 18 122q9 42 26 94q-37 -52 -91 -110q-32 -33 -69.5 -58t-71.5 -25q-31 0 -57 20t-26 51q0 24 16.5 51z" />
    <glyph glyph-name="e_t_t.liga" unicode="ett" horiz-adv-x="551" 
d="M454 490q-80 -6 -125 -10q-50 -117 -68 -225q-7 -52 -6 -87q0 -3 2 -3t7.5 7.5t9.5 11.5q15 19 53 77q55 88 127 229zM-28 305q17 27 43 45.5t51 18.5q27 0 47 -21q14 -14 14 -28q0 -13 -15 -30q-32 -34 -107 -32l-4 -12q-1 -3 -1 -9q0 -9 4 -10t15 -1q20 0 46 11
q34 13 62.5 37.5t59.5 61.5q27 33 42 60t38 75q-60 -8 -129 -26q-11 -3 -24 10.5t-13 24.5q0 7 6 8q91 22 185 33q30 70 69 139q3 7 11 7q12 0 24 -14.5t7 -23.5q-33 -60 -52 -101q51 4 103 6q7 1 22 1l13 26q20 43 50 99q4 7 11 7q12 0 24.5 -14t7.5 -24q-21 -36 -48 -93
q30 0 90 -4q74 -8 115 -27q8 -3 15 -11.5t7 -16.5q0 -12 -10 -12q-6 0 -11 3q-23 11 -48 15t-63 7q-56 2 -84 2h-31q-51 -114 -78 -223q-17 -69 -21 -121v-20q0 -13 1 -20q1 -13 5 -19q3 -4 3 -9t-3.5 -8.5t-8.5 -3.5q-14 0 -29 22q-11 20 -11 55q0 62 17 137l1 4
q-39 -78 -72.5 -126.5t-61.5 -48.5q-17 0 -30 20q-9 14 -11.5 31.5t-2.5 41.5q0 36 9 90q1 8 3 18.5t3 15.5q-51 -69 -101 -107t-89 -38q-32 0 -57 20t-25 51q0 24 17 51zM81 321l2 3l-15 -3q-15 -6 -35 -22q33 2 48 22z" />
    <glyph glyph-name="f_hyphen_hyphen.liga" unicode="f&#x2d;&#x2d;" horiz-adv-x="619" 
d="M13 161q0 10 -2 28q-2 21 -7 29l-21 -61q-25 -78 -28 -126q-1 -7 -1 -22q0 -18 2 -26v-2q38 52 52 130q5 27 5 50zM41 410q3 4 8 4q7 0 16 -7.5t13.5 -17.5t0.5 -17q-27 -39 -49 -92l21 6q162 45 297 62q72 9 108 9q97 0 142 -46q4 -4 7.5 -10t3.5 -11t-3 -8t-8 -3
t-11 3.5t-10 7.5q-5 5 -14 9q-7 3 -23 7q-23 6 -70 6q-66 0 -134 -11t-157 -32q-103 -26 -145 -38q22 -36 22 -89q0 -11 -2 -33q-6 -52 -24 -99.5t-49 -82.5q-3 -3 -8 -3q-7 0 -11 3q-52 31 -52 108q0 48 21 121q44 154 110 254z" />
    <glyph glyph-name="g_hyphen_hyphen.liga" unicode="g&#x2d;&#x2d;" horiz-adv-x="699" 
d="M-55 -22q0 -5 -1 -8q11 11 27 34q31 43 64 108q10 21 17 38q-54 -44 -82 -99q-20 -40 -25 -73zM-100 -17q0 45 28 99q48 92 157 153v1l5 14q-43 -37 -91 -50q-11 -3 -23.5 8.5t-13.5 23.5q-1 28 11 59t31 55q20 23 44 23q28 0 55 -30l2 2q4 4 9 4q10 0 20.5 -12.5
t11.5 -21.5q2 -24 -3 -48q70 28 162 47q100 20 199 20q48 0 88.5 -6t74.5 -23q8 -4 15 -12.5t7 -16.5q0 -11 -11 -11q-4 0 -10 2q-30 15 -65.5 19t-87.5 4q-102 0 -203 -22.5t-187 -66.5q-20 -60 -51 -122q-34 -68 -66 -111q-17 -23 -30.5 -36.5t-30.5 -18.5q-8 -1 -17 4
t-14 12q-16 26 -16 58zM83 317l-8 8q-8 9 -20.5 -4.5t-26.5 -33.5l-11 -24q36 23 66 54z" />
    <glyph glyph-name="g_b.liga" unicode="gb" horiz-adv-x="466" 
d="M380 333l-16 -11q-24 -21 -45 -45q-14 -16 -26 -32q2 1 6 1q16 -3 30.5 12t30.5 38q14 20 20 37zM-100 -13q0 29 12 56q21 46 56.5 85t92.5 90l25 23l3 9q-43 -37 -91 -50q-12 -4 -24 7.5t-13 24.5q-1 28 11 59t32 54q20 24 43 24q28 0 55 -30l2 2q4 4 9 4
q10 0 20.5 -12.5t11.5 -21.5v-12q61 62 107.5 120t80.5 121q30 66 60 122q3 7 11 7q12 0 24 -14.5t7 -23.5q-73 -138 -129 -290q21 20 39.5 32.5t36.5 12.5q15 0 30 -12q18 -15 18 -39q0 -15 -6 -29.5t-17 -33.5q-42 -70 -80 -70q-12 0 -21.5 6t-14.5 16q-4 7 -2 16
q-25 -35 -35 -58q-3 -8 -11 -6q-12 0 -23.5 13.5t-7.5 23.5q21 78 53 162l-21 -25q-74 -86 -112 -128l-5 -17q-18 -58 -54 -130q-34 -68 -66 -111q-17 -23 -30.5 -36.5t-30.5 -18.5q-9 -2 -19.5 5t-14.5 17q-12 27 -12 56zM-30 4q28 37 64 107q2 6 4 9l-8 -9
q-38 -39 -62 -72.5t-25 -69.5q13 13 27 35zM82 317q-6 6 -7 8q-8 10 -23 -6.5t-25 -32.5l-11 -23q34 21 66 54z" />
    <glyph glyph-name="g_h.liga" unicode="gh" horiz-adv-x="572" 
d="M36 116.5q1 2.5 2 4.5l-9 -10q-39 -41 -62 -74t-24 -68q9 8 17.5 20t10.5 15q27 38 63 107q1 3 2 5.5zM-100 -13q0 29 12 56q21 45 55.5 83.5t90.5 89.5l29 27l2 7q-43 -37 -91 -50q-12 -4 -24.5 9t-12.5 26q0 28 12 58t31 52q20 24 43 24q28 0 55 -30l2 2q4 4 9 4
q10 0 20.5 -12.5t11.5 -21.5l1 -11q59 61 103.5 117t77.5 116q30 59 73 131q4 7 11 7q12 0 24.5 -14.5t6.5 -23.5q-93 -156 -141 -290q-11 -34 -14 -44q40 43 79 68q26 17 42 17q12 0 23 -8q23 -16 23 -47q0 -17 -12 -49q-8 -22 -10 -34q23 7 57 31q39 28 86 69q5 4 11 4
t11 -5t5 -11t-5 -11l-17 -19q-37 -41 -63.5 -63.5t-57.5 -33.5q-11 -4 -23 -4q-18 0 -31 11t-17 31q-1 4 -1 12q0 20 9 43q8 20 11 31q-31 -18 -55 -41.5t-58 -62.5q1 1 -19 -22q-3 -3 -7 -3t-9 2t-8 5q-22 17 -22 49q0 27 9 54.5t11 32.5l3 8v0q-48 -57 -121 -135
q-1 -4 -2 -7l-2 -6q-18 -58 -54 -130q-34 -68 -66 -111q-17 -23 -30.5 -36.5t-30.5 -18.5q-9 -2 -19.5 5t-14.5 17q-12 27 -12 56zM83 317l-8 8q-8 10 -24 -8t-23 -31l-12 -23q33 20 67 54z" />
    <glyph glyph-name="g_k.liga" unicode="gk" horiz-adv-x="507" 
d="M35 114l-6 -6q-37 -38 -60.5 -71t-25.5 -68q13 13 27 35q28 37 64 107q0 2 1 3zM-100 -14q0 30 13 57q21 44 56 82.5t89 85.5l27 25q2 8 4 14q-43 -37 -91 -50q-12 -4 -24 7.5t-13 24.5q-1 28 11 59t32 54q20 24 43 24q28 0 55 -30l2 2q4 4 9 4q10 0 20.5 -12.5
t11.5 -21.5q0 -3 0.5 -8t-0.5 -8q126 126 187 243q32 73 64 126q4 6 11 6q13 0 25 -13.5t7 -23.5q-55 -91 -108 -233l-9 -26q-3 -8 -7 -19t-8 -26q56 17 83 53q3 4 8 4q7 0 16.5 -7.5t14 -17.5t-0.5 -17q-35 -45 -110 -62q11 -21 32 -31q14 -7 29 -7q56 0 130 102q4 5 9 5
q7 0 13 -6.5t6 -13.5q0 -6 -4 -10q-28 -39 -45.5 -61t-42.5 -39.5t-53 -17.5q-21 0 -41 10q-35 17 -61 55q-7 -24 -7 -42q0 -9 1 -13v-2q0 -8 -10 -8q-5 0 -11 2q-20 10 -23 30l-1 11q0 16 4.5 36t6.5 28l14 49q-7 -10 -17 -20q-39 -46 -119 -130l-1 -4q-18 -58 -54 -130
q-34 -68 -66 -111q-17 -23 -30.5 -36.5t-30.5 -18.5q-9 -2 -19.5 5t-14.5 17q-12 27 -12 55zM83 317q-6 5 -8 8q-8 10 -24 -8t-23 -31l-12 -23q33 20 67 54z" />
    <glyph glyph-name="g_l.liga" unicode="gl" horiz-adv-x="423" 
d="M39 122l-9 -9q-38 -39 -62 -73.5t-26 -70.5q9 8 17.5 20t10.5 15q31 40 63 107zM-100 -14q0 30 12 58q20 44 53.5 81.5t91.5 91.5l30 28l1 5q-44 -37 -90 -50q-12 -4 -24 7.5t-13 24.5q-1 28 11 59t31 54q20 24 44 24q28 0 55 -30l2 2q4 4 9 4q10 0 20.5 -12.5
t11.5 -21.5v-9q62 63 109.5 122.5t80.5 124.5l2 2q25 57 56 113q3 7 11 7q12 0 24 -14.5t7 -23.5q-99 -179 -136 -345q-5 -32 -6 -41q14 4 19 7q30 14 58.5 38.5t50.5 53.5q4 5 10 5q8 0 15 -6.5t7 -14.5q0 -4 -3 -9q-5 -7 -25 -33t-40.5 -45t-40.5 -29q-22 -9 -38 -9
q-18 0 -32 8.5t-20 26.5q-5 11 -5 29q0 21 5.5 43t6.5 25q8 30 13 45l-25 -33q-41 -55 -120 -135l-3 -9q-20 -64 -53 -130q-31 -62 -66 -111q-17 -23 -30.5 -36.5t-30.5 -18.5q-10 -2 -20.5 5t-14.5 17q-11 28 -11 55zM82 317l-8 8q-8 10 -24.5 -8t-22.5 -31q-7 -12 -11 -23
q32 20 66 54z" />
    <glyph glyph-name="g_t.liga" unicode="gt" horiz-adv-x="403" 
d="M38 122l-9 -10q-37 -38 -61 -72.5t-26 -70.5q14 12 28 35q31 40 63 107q5 9 5 11zM-100 -12q0 28 12 55q20 44 53 81t90 90l32 30q0 2 2 6q-46 -38 -91 -50q-12 -4 -24 7.5t-13 24.5q-1 28 11 59t31 54q20 24 44 24q28 0 55 -30l2 2q4 4 9 4q10 0 20.5 -12.5t11.5 -21.5
v-10q87 87 144 171q-75 -13 -120 -27q-11 -3 -24.5 10t-13.5 24q0 8 7 9q84 24 183 35l13 23l1 2q22 49 56 112q4 7 11 7q12 0 24.5 -14t7.5 -24q-29 -53 -51 -100h10q38 2 61 2q87 0 137 -26q8 -4 15 -12t7 -16q0 -12 -11 -12q-5 0 -10 3q-42 21 -110 21q-28 0 -74 -4
l-47 -3q-47 -109 -73 -213q-17 -69 -21 -121v-20q0 -13 1 -20q1 -13 5 -19q3 -4 3 -9t-3.5 -8.5t-8.5 -3.5q-14 0 -29 22q-8 14 -10 30.5t-2 39.5q3 56 18 122q9 39 24 87q-47 -62 -135 -154q-3 -8 -4 -10q-20 -64 -53 -130q-31 -62 -66 -111q-17 -23 -30.5 -36.5
t-30.5 -18.5q-9 -2 -20 5.5t-14 16.5q-12 28 -12 57zM82 317l-8 8q-8 10 -24.5 -8t-22.5 -31q-7 -12 -11 -23q36 23 66 54z" />
    <glyph glyph-name="h_hyphen_hyphen.liga" unicode="h&#x2d;&#x2d;" horiz-adv-x="746" 
d="M25 224v0l-1 1v-1h1q-1 0 -1 -0.5t1 -0.5v1zM62 501.5q38 77.5 89 163.5q5 6 11 6q12 0 24.5 -14t6.5 -23q-95 -161 -141 -291q-10 -28 -14 -42q30 32 52 48q21 16 38 25.5t32 9.5q23 0 37 -25q6 -13 6 -27q0 -15 -8 -45q-7 -23 -7 -38q0 -25 11 -38q27 -31 103 -31
q23 0 32 1q105 5 207 49t169 117q5 5 10 5q6 0 10.5 -6t4.5 -14q0 -5 -3 -11q-29 -40 -96 -83.5t-150 -72.5t-159 -29q-81 0 -133 38q-49 38 -49 97q0 15 5 35q1 8 5 22l-10 -5q-9 -6 -27 -20q-32 -25 -78 -81l-14 -17q-3 -3 -7 -3q-9 0 -18 7q-21 14 -21 49q0 25 9 53.5
t11 34.5q24 78 62 155.5z" />
    <glyph glyph-name="i_hyphen_hyphen.liga" unicode="i&#x2d;&#x2d;" horiz-adv-x="594" 
d="M563 351q8 0 14.5 -6.5t6.5 -14.5q0 -5 -3 -10q-45 -60 -119.5 -100.5t-155.5 -60t-150 -19.5q-14 0 -38 2q-33 2 -69.5 19t-55.5 42q-18 24 -18 56q0 49 42 120q3 6 10 6q12 0 24.5 -13.5t7.5 -23.5q-18 -31 -29 -57.5t-12 -52.5v-3q0 -7 3 -15t9 -11q22 -12 50 -16
t62 -4q55 1 133.5 16.5t156 50t121.5 90.5q5 5 10 5zM50 447q1 4 5 6h5h2q6 0 14 -6q9 -6 14 -16q4 -11 2 -15l-8 -13q-1 -4 -6 -6h-4h-2q-6 0 -14 6q-9 6 -14 16q-3 6 -3 12q0 5 9 16z" />
    <glyph glyph-name="i_l.liga" unicode="il" horiz-adv-x="322" 
d="M46 414q-5 11 -3 15q7 12 8 14q1 3 6 5l4 1q7 0 17 -6q8 -7 13 -16q2 -3 3 -7.5t0 -7.5q-7 -12 -8 -14q-2 -4 -6 -5l-4 -1q-8 0 -17 7q-8 5 -13 15zM-12 307q14 37 33 71q4 7 11 7q12 0 24.5 -14t7.5 -24q-24 -41 -37 -80q-5 -16 -6 -20q0 -1 1 -1q4 0 17 9q20 14 35 32
t40 52q52 76 114 194q26 62 64 131q3 7 11 7q12 0 24 -14.5t7 -23.5q-99 -179 -136 -345q-5 -32 -6 -41q14 4 19 7q30 14 58.5 38.5t50.5 53.5q4 5 10 5q8 0 15 -6.5t7 -14.5q0 -4 -3 -9q-5 -7 -25 -33t-40.5 -45t-40.5 -29q-22 -9 -38 -9q-18 0 -32 8.5t-20 26.5
q-5 11 -5 29q0 21 5.5 43t6.5 25q2 4 2 6q-34 -57 -70.5 -100t-65.5 -43q-22 -1 -36.5 15.5t-14.5 39.5q0 20 13 52z" />
    <glyph glyph-name="i_l_l.liga" unicode="ill" horiz-adv-x="503" 
d="M46 414q-5 11 -2 15q1 2 8 14q1 3 5 5q2 1 5 1q6 0 16 -6q10 -8 14 -16q4 -11 2 -15l-8 -14q-2 -4 -6 -5l-4 -1q-9 0 -16 7q-9 4 -14 15zM-19.5 285.5q5.5 16.5 7.5 21.5q12 32 34 71q3 7 11 7q12 0 24 -14.5t7 -23.5q-23 -42 -37 -80l-6 -20q0 -1 1 -1q4 0 17 9
q21 14 37 33.5t38 50.5q49 71 120 205q0 1 1 1q26 64 57 119q4 7 11 7q12 0 24.5 -14t7.5 -24q-60 -109 -107 -245q-6 -16 -8 -24q-16 -44 -25.5 -79t-11.5 -67l11 5q24 18 42.5 41t48.5 65q58 83 134 225q29 64 55 110q4 7 11 7q12 0 24.5 -14.5t6.5 -23.5
q-100 -185 -135 -345q-4 -19 -6 -41q15 5 19 7q30 15 58.5 39.5t49.5 52.5q4 5 10 5q8 0 14.5 -7t6.5 -15q0 -4 -3 -9q-60 -81 -111 -105q-18 -9 -37 -9q-35 0 -47 34q-5 15 -5 28q0 20 5.5 41.5t6.5 25.5q-91 -150 -134 -163q-10 -2 -14 -2q-23 0 -39 18.5t-16 42.5
q0 29 11 71l11 39q-33 -55 -70 -98t-64 -43q-22 -1 -37 15t-15 40q0 14 5.5 30.5z" />
    <glyph glyph-name="i_t.liga" unicode="it" horiz-adv-x="319" 
d="M47 411q-4 11 -2 15l8 14q2 4 6 5l4 1q9 0 16 -7q9 -4 14 -15q6 -11 2 -15q-1 -2 -8 -14q-1 -3 -5 -5q-2 -1 -5 -1q-6 0 -16 6q-10 8 -14 16zM-25 255q0 14 9 43q14 38 37 80q4 7 11 7q12 0 24.5 -14.5t6.5 -23.5q-24 -43 -36 -80q-10 -29 -4 -26q12 3 21 10.5t20 19.5
q39 40 73 89.5t70 112.5q-67 -11 -122 -28q-11 -3 -24.5 10t-13.5 24q0 8 7 9q81 23 182 35l12 21l1 1q32 69 58 115q3 7 11 7q12 0 24 -14.5t7 -23.5q-29 -53 -51 -100h11q38 2 60 2q87 0 138 -26q8 -4 15 -12t7 -16q0 -12 -11 -12q-5 0 -11 3q-41 21 -109 21q-28 0 -74 -4
l-47 -3q-50 -114 -74 -213q-18 -70 -20 -121q-2 -20 0 -40q1 -9 5 -19q3 -4 3 -10q0 -11 -12 -11q-8 0 -15.5 7t-12.5 15q-12 20 -12 58q0 57 18 134q7 30 10 40l5 20q-36 -59 -73 -102.5t-63 -43.5q-16 0 -32 10t-23 24q-6 12 -6 25z" />
    <glyph glyph-name="i_t_t.liga" unicode="itt" horiz-adv-x="481" 
d="M384 490q-80 -6 -124 -10q-50 -115 -69 -225q-7 -53 -5 -87q0 -3 1 -3q2 0 7.5 7.5t9.5 11.5q15 19 53 77q55 88 127 229zM-12 307q14 37 33 71q4 7 11 7q12 0 24.5 -14t7.5 -24q-24 -41 -37 -80q-5 -16 -6 -20q0 -1 1 -1q4 0 17 9q20 14 36 33.5t38 50.5q35 48 81 132
q-69 -12 -122 -25l6 -3q8 -7 13 -16q2 -3 3 -7.5t0 -7.5q-7 -12 -8 -14q-2 -4 -6 -5l-4 -1q-8 0 -17 7q-8 5 -13 15q-5 11 -3 15q7 12 8 14q2 4 4 5q-9 5 -16.5 14.5t-7.5 16.5q0 8 7 9q90 23 184 33l3 7q30 68 66 132q3 7 11 7q12 0 24 -14.5t7 -23.5q-18 -33 -52 -101
q51 4 103 6q7 1 22 1l13 26q24 51 51 99q3 7 11 7q12 0 24 -14.5t7 -23.5q-21 -36 -48 -93q30 0 90 -4q75 -8 115 -27q8 -3 15 -11t7 -16q0 -13 -11 -13q-5 0 -10 3q-22 11 -46.5 15t-63.5 7q-58 2 -85 2h-31q-51 -114 -78 -223q-18 -70 -20 -121q-1 -8 -1 -23q0 -12 1 -17
q1 -13 5 -19q3 -4 3 -9t-3.5 -8.5t-8.5 -3.5q-14 0 -29 22q-11 20 -11 55q0 65 18 137v4q-85 -175 -134 -175q-17 0 -30 20q-9 14 -11.5 31.5t-2.5 41.5q0 36 9 90q3 23 9 46q-33 -55 -69.5 -97.5t-64.5 -42.5q-22 -1 -36.5 15.5t-14.5 39.5q0 20 13 52z" />
    <glyph glyph-name="j_hyphen_hyphen.liga" unicode="j&#x2d;&#x2d;" horiz-adv-x="603" 
d="M-49 185q-71 -60 -102 -142q-14 -36 -15 -66q0 -3 -0.5 -6.5t0.5 -8.5q14 10 25.5 28t13.5 22q28 46 58 122q14 34 20 51zM-21 267q20 58 36 112q3 7 9 7q11 0 24.5 -14t9.5 -24l-17 -52q40 17 89 28q114 28 225 28q134 0 216 -42q8 -4 15 -12.5t7 -16.5q0 -11 -11 -11
q-4 0 -10 2q-39 21 -86 28.5t-104 7.5q-98 0 -192 -17.5t-170 -57.5q-28 -87 -53 -146q-34 -82 -64 -125q-15 -23 -31 -37t-37 -16h-1q-7 0 -14.5 5t-10.5 11q-19 28 -19 68t17 84q46 121 172 190zM37 445q2 6 11 6h2q6 0 14 -6q8 -7 13 -16q5 -7 3 -15l-3 -13q-1 -5 -11 -7
q-4 0 -16 7q-8 7 -13 16q-4 6 -3 15z" />
    <glyph glyph-name="k_hyphen_hyphen.liga" unicode="k&#x2d;&#x2d;" horiz-adv-x="671" 
d="M102.5 201q-45.5 26 -72.5 65q-9 -31 -6 -53v-2q0 -8 -10 -8q-5 0 -11 2q-19 9 -22 30q-1 4 -1 14q0 19 11 61q15 57 36 115q52 142 110 240q5 6 11 6q12 0 24.5 -14t6.5 -23q-57 -96 -107 -234q-12 -31 -24 -70q54 15 82 52q3 4 8 4q10 0 21.5 -11.5t11.5 -22.5
q0 -5 -3 -8q-18 -24 -48 -40t-63 -22q20 -36 77 -59q65 -28 158 -28q99 2 189.5 41t153.5 111q5 5 10 5q6 0 11 -5.5t5 -12.5q0 -5 -5 -12q-85 -97 -159 -129q-96 -42 -191 -42q-51 0 -104 12q-54 12 -99.5 38z" />
    <glyph glyph-name="l_hyphen_hyphen.liga" unicode="l&#x2d;&#x2d;" horiz-adv-x="740" 
d="M186.5 179.5q45.5 11.5 121.5 35.5l49 16q120 39 190 54q59 13 90 13q49 0 76 -23q9 -9 14 -16.5t2 -14.5q-4 -6 -11 -6q-8 0 -16 6q-4 4 -6 4.5t-3 0.5q-5 2 -17 4q-6 1 -18 1q-35 0 -68 -7t-87 -23q-65 -19 -109 -34q-18 -6 -64 -20t-83 -24q-45 -12 -73.5 -17.5
t-57.5 -5.5q-40 0 -66 13q-60 28 -60 113q0 30 11 87q35 168 127 329q5 6 11 6q12 0 24.5 -14t6.5 -23q-104 -184 -132 -356q-5 -37 -4 -65q0 -15 4 -26q2 -4 2 -6q1 -2 2 -3l1 -1q4 -2 12 -5q10 -4 22.5 -4h15.5q48 0 93.5 11.5z" />
    <glyph glyph-name="l_l.liga" unicode="ll" horiz-adv-x="344" 
d="M353 351q8 0 14.5 -7t6.5 -15q0 -4 -3 -9q-60 -81 -111 -105q-18 -9 -37 -9q-35 0 -47 34q-5 15 -5 28q0 20 5.5 41.5t6.5 25.5q-89 -150 -134 -163q-10 -2 -14 -2q-23 0 -39 18t-16 42q0 16 3.5 35t7.5 37q15 59 36 117q49 141 106 245q4 7 11 7q12 0 24.5 -14t7.5 -24
q-60 -109 -107 -245q-6 -16 -8 -24q-16 -44 -25.5 -79t-11.5 -67l11 5q24 18 42.5 41t48.5 65q58 83 134 225q21 45 55 110q4 7 11 7q12 0 24.5 -14t7.5 -24q-101 -183 -136 -345q-4 -19 -6 -41q15 5 19 7q30 15 58.5 39.5t49.5 52.5q4 5 10 5z" />
    <glyph glyph-name="l_t.liga" unicode="lt" horiz-adv-x="350" 
d="M98 277q23 22 47 52q50 61 95 140q-66 -14 -98 -24q-10 -2 -22 8t-15 21q-16 -39 -30 -78l-7 -21q-16 -44 -25 -75.5t-10 -62.5q7 1 16 6q26 12 49 34zM-8 278q3 19 7 36q8 36 32 106q47 135 106 244q4 7 11 7q12 0 24.5 -14t7.5 -24q-36 -65 -70 -146l1 1q86 24 158 33
q34 76 69 139q3 7 11 7q12 0 24 -14.5t7 -23.5q-18 -33 -52 -101l25 1q34 2 54 2q82 0 130 -26q9 -4 16 -12t7 -16q0 -12 -12 -12q-5 0 -10 3q-39 20 -107 20q-15 0 -35 -1.5t-29 -1.5q-30 -1 -60 -6q-47 -107 -73 -210q-18 -70 -20 -121q-2 -20 0 -40q1 -13 5 -19
q3 -4 3 -10q0 -11 -12 -11q-14 0 -29 22q-11 20 -11 55q0 58 18 137q2 12 6 27t6 22q-88 -131 -141 -138l-10 -1q-23 0 -40 14.5t-19 37.5q-1 15 2 34z" />
    <glyph glyph-name="m_hyphen_hyphen.liga" unicode="m&#x2d;&#x2d;" horiz-adv-x="902" 
d="M144 354zM12 368q3 7 11 7q12 0 24.5 -14t7.5 -24q-7 -12 -19 -38l35 28q27 23 44.5 35t34.5 12t25.5 -11.5t10.5 -28.5q16 14 42 32q4 2 14 9t19 11t18 4q20 0 33 -17t13 -37q0 -16 -5 -32.5t-6 -19.5q-12 -32 -12 -50q0 -15 5 -28q3 -8 12 -15q31 -26 100 -26
q32 0 57 3q108 10 216 58q114 52 173 121q4 4 9 4q7 0 12.5 -6.5t5.5 -14.5q0 -7 -4 -11q-54 -63 -155.5 -121t-246.5 -75q-26 -2 -40 -2q-78 0 -130 34q-28 19 -42.5 45.5t-14.5 57.5q0 11 4 31q1 7 4.5 15.5t4.5 12.5q2 6 4 18l-22 -15q-38 -27 -88 -86l-19 -21
q-3 -4 -8 -4q-10 0 -22 12q-7 7 -10 14t0 12v1q11 21 24 58l1 1l-31 -24q-55 -45 -95 -85q-3 -4 -9 -4q-10 0 -22 12.5t-10 21.5q10 69 47 140z" />
    <glyph glyph-name="n_hyphen_hyphen.liga" unicode="n&#x2d;&#x2d;" horiz-adv-x="816" 
d="M121 365q24 16 38 16q8 0 12 -2q14 -6 21.5 -19.5t7.5 -29.5q0 -12 -3.5 -26t-8.5 -27q-11 -27 -12 -48q0 -14 5 -23q1 -3 10 -12q24 -19 58.5 -25.5t77.5 -6.5q125 0 246 48.5t204 136.5q4 4 10 4q7 0 13 -6.5t6 -14.5q0 -6 -4 -10q-70 -74 -177 -135t-266 -72
q-43 -3 -89 9t-82 37q-25 16 -40 40t-15 51q0 15 4 27q4 15 8 26t7 19l-10 -6q-38 -27 -106 -91l-30 -27q-3 -3 -9 -3q-12 0 -24.5 14.5t-6.5 23.5q10 68 47 135q3 7 11 7q12 0 24 -14.5t7 -23.5q-10 -17 -18 -38q44 41 84 66z" />
    <glyph glyph-name="n_t.liga" unicode="nt" horiz-adv-x="480" 
d="M683 493q7 -8 7 -16q0 -12 -11 -12q-5 0 -10 3q-42 21 -110 21q-28 0 -74 -4l-47 -3q-46 -106 -74 -213q-7 -30 -13 -62t-7 -59q-2 -20 0 -40q1 -9 5 -19q3 -4 3 -10q0 -11 -12 -11q-8 0 -15.5 7t-12.5 15q-12 20 -12 58q0 57 18 134l9 38q-82 -132 -135 -132
q-12 0 -22 7q-15 10 -23.5 27.5t-9.5 36.5q0 20 4 35l6 19l3 8l-2 -1q-21 -15 -42 -33q-34 -28 -100 -90q-3 -3 -8 -3q-12 0 -25 15t-7 24q11 67 47 135q3 7 11 7q12 0 24 -14.5t7 -23.5q-15 -29 -18 -38q38 35 73 59q36 23 55 23q23 0 35 -26q4 -9 4 -21q0 -13 -5 -28
t-6 -19q-13 -34 -12 -53q0 -4 1 -6l7 1q24 7 45 28t44 53q51 69 98 164q-75 -12 -130 -29q-11 -3 -24.5 10t-13.5 24q0 8 7 9q89 25 185 36l5 10q22 49 63 126q3 7 11 7q12 0 24 -14.5t7 -23.5q-29 -53 -51 -100h11q38 2 61 2q86 0 137 -26q8 -4 15 -12z" />
    <glyph glyph-name="o_hyphen_hyphen.liga" unicode="o&#x2d;&#x2d;" horiz-adv-x="176" 
d="M65 295.5q10 17.5 10 31.5q0 6 -3 12l-2 5l-6 -6q-12 -11 -23 -29q-21 -40 -22 -66q13 8 25 23q11 12 21 29.5zM-25 261q0 33 25 81q29 49 61 49q11 0 20 -4q10 -4 16 -16.5t3 -19.5q6 -6 10 -12q6 -13 6 -29q0 -25 -14 -52t-35.5 -44.5t-41.5 -17.5q-28 0 -44 34
q-6 15 -6 31z" />
    <glyph glyph-name="p_hyphen_hyphen.liga" unicode="p&#x2d;&#x2d;" horiz-adv-x="226" 
d="M95 258.5q22 31.5 32 63.5q-30 -20 -62 -65q-12 -16 -17 -25q25 -5 47 26.5zM15 371q3 7 11 7q12 0 24 -14t8 -24l-8 -16l16 16q18 18 36 29t37 7q37 -10 37 -53q0 -27 -15.5 -59t-40 -53.5t-49.5 -21.5q-5 0 -13 2q-6 1 -12.5 7.5t-10.5 14.5q-71 -113 -113 -288
q-1 -7 -8 -7q-10 0 -23 13.5t-11 24.5q39 214 135 415z" />
    <glyph glyph-name="q_hyphen_hyphen.liga" unicode="q&#x2d;&#x2d;" horiz-adv-x="213" 
d="M26 292q-17 -21 -24 -37q39 20 81 62q-6 6 -9 12l-1 -1q-3 -1 -7 -2.5t-8 -3.5q-13 -7 -32 -30zM-38 288.5q17 34.5 43.5 58.5t51.5 24q29 0 48 -32l7 8q3 3 8 3q7 0 15 -5t13 -13q7 -12 4 -19l-1 -2q-36 -79 -60 -142t-38 -126q-12 -46 -12 -84q0 -17 2 -26l1 -6l1 -1
q4 -4 7 -9.5t3 -10.5t-3 -8t-8 -3t-11 3.5t-10 7.5q-26 26 -26 75q0 27 8 67q16 81 55 182q-44 -29 -83 -34q-10 -1 -21 10.5t-11 21.5q0 26 17 60.5z" />
    <glyph glyph-name="r_hyphen_hyphen.liga" unicode="r&#x2d;&#x2d;" horiz-adv-x="203" 
d="M153.5 361q8.5 -8 9.5 -17v-4q0 -6 -4 -9.5t-11 -1.5q-8 2 -12 2q-17 0 -33 -12.5t-39 -35.5q-42 -46 -62 -89q-3 -7 -10 -7q-10 0 -22 14t-10 24q14 72 55 144q3 7 11 7q9 0 19 -8.5t13 -17.5q29 24 58 24q10 0 20 -3q9 -2 17.5 -10z" />
    <glyph glyph-name="s_hyphen_hyphen.liga" unicode="s&#x2d;&#x2d;" horiz-adv-x="614" 
d="M48 226q-16 -12 -27 -29q-3 -5 -7 -15q14 6 23 18q10 13 11 26zM25 275q-1 2 -7 10t-9 16q-5 13 -5 25q0 14 8 28q10 17 28.5 26t38.5 9q13 0 28 -5q9 -3 17.5 -10.5t9.5 -16.5v-4q0 -6 -4 -9.5t-11 -1.5q-12 4 -18 4q-13 0 -25.5 -6t-20.5 -17q-7 -8 -7 -18q0 -5 4 -15
q33 16 89 32q113 31 243 33q64 0 111.5 -6.5t86.5 -29.5q8 -5 15 -12.5t7 -16.5q0 -11 -11 -11q-6 0 -11 3q-53 30 -153 30l-43 -1q-117 -3 -224 -34q-6 -2 -32 -10.5t-49 -19.5q9 -19 9 -39q0 -19 -9 -36t-27 -29q-17 -11 -32 -11q-22 0 -37 18.5t-15 43.5q0 19 10 35
q13 25 45 46z" />
    <glyph glyph-name="s_h.liga" unicode="sh" horiz-adv-x="560" 
d="M54 226q-22 -15 -33 -29q-6 -8 -8 -19v-3q4 0 6 1q16 5 24 15q14 16 11 35zM-30 194q0 38 45 69l14 9q-2 0 -2 2q-19 25 -19 52q0 21 14 38q22 25 59 25q13 0 28 -5q10 -3 18 -10.5t9 -16.5v-4q0 -6 -4 -9.5t-11 -1.5q-9 3 -18 3q-24 0 -40 -16q-12 -12 -12 -24
q0 -8 5 -16l19 11q62 34 91 56q87 66 137 153q32 66 84 155q4 7 11 7q12 0 24.5 -14t7.5 -24q-96 -160 -142 -290q-11 -34 -14 -44q44 46 79 68q26 17 43 17q12 0 23 -8q22 -16 22 -46q0 -11 -3.5 -24t-8.5 -26q-8 -22 -10 -34q22 6 57 31q31 21 87 69q5 4 11 4t11 -5t5 -11
t-5 -11l-21 -23q-35 -38 -61 -60t-57 -33q-11 -4 -23 -4q-18 0 -30.5 10.5t-16.5 31.5q-1 4 -1 12q0 20 9 43q2 6 4.5 14t5.5 17q-30 -18 -54 -41.5t-61 -65.5l-17 -19q-3 -3 -7 -3t-9 2t-8 5q-22 15 -22 48q0 25 9.5 53t11.5 35l7 23q-24 -24 -51 -45l-44 -32
q-30 -22 -64 -46q13 -24 13 -47q0 -18 -6 -29q-9 -18 -26 -28t-36 -10q-18 0 -33.5 10t-22.5 29q-4 11 -4 24z" />
    <glyph glyph-name="s_l.liga" unicode="sl" horiz-adv-x="412" 
d="M55 226q-22 -15 -33 -29q-6 -8 -8 -19v-3q4 0 6 1q14 5 24 15q14 16 11 35zM-30 195q0 38 46 68l13 9l-1 2q-19 25 -19 52q0 21 14 38q22 25 59 25q13 0 28 -5q10 -3 18 -10.5t9 -16.5v-4q0 -6 -4 -9.5t-11 -1.5q-9 3 -18 3q-24 0 -40 -16q-12 -12 -12 -24q0 -8 5 -16
l19 11q62 34 91 56q105 78 158 195l1 1q26 58 56 112q3 7 11 7q12 0 24 -14.5t7 -23.5q-99 -179 -136 -345q-5 -32 -6 -41q14 4 19 7q30 14 58.5 38.5t50.5 53.5q4 5 10 5q8 0 15 -6.5t7 -14.5q0 -4 -3 -9q-5 -7 -25 -33t-40.5 -45t-40.5 -29q-22 -9 -38 -9q-39 0 -53 35
q-4 11 -4 27q0 21 5.5 43.5t6.5 26.5l15 52q-37 -41 -72 -66l-36 -27q-46 -34 -71 -51q13 -24 13 -47q0 -18 -6 -29q-9 -18 -26 -28t-36 -10q-18 0 -33.5 10t-22.5 29q-5 15 -5 25z" />
    <glyph glyph-name="s_t.liga" unicode="st" horiz-adv-x="393" 
d="M55 226q-25 -16 -33 -29q-8 -10 -9 -19l1 -3q4 0 6 1q14 5 24 15q14 17 11 35zM-30 195q0 37 45 68l14 9l-2 2q-18 25 -18 51q0 22 14 39q21 25 58 25q14 0 29 -5q9 -3 17.5 -10.5t9.5 -16.5v-4q0 -6 -4 -9.5t-11 -1.5q-9 3 -18 3q-24 0 -40 -16q-12 -11 -12 -23
q0 -7 5 -17l18 10q6 4 36 21t55 36q67 49 114 116q-63 -9 -121 -27q-11 -3 -24.5 10t-13.5 24q0 8 7 9q84 24 183 35l14 28l3 4q22 50 53 105q3 7 11 7q12 0 24 -14.5t7 -23.5q-29 -53 -51 -100h11q38 2 60 2q87 0 138 -26q8 -4 15 -12t7 -16q0 -12 -11 -12q-5 0 -11 3
q-41 21 -109 21q-28 0 -74 -4l-47 -3q-50 -114 -74 -213q-18 -70 -20 -121q-2 -20 0 -40q1 -9 5 -19q3 -4 3 -10q0 -11 -12 -11q-8 0 -15.5 7t-12.5 15q-12 20 -12 58q0 57 18 134q14 58 28 101q-30 -33 -66 -60l-36 -27q-46 -34 -71 -51q13 -28 13 -47q0 -16 -7 -29
q-9 -18 -25.5 -28t-35.5 -10q-18 0 -33.5 10t-22.5 29q-5 15 -5 25z" />
    <glyph glyph-name="t_hyphen_hyphen.liga" unicode="t&#x2d;&#x2d;" horiz-adv-x="614" 
d="M540 483q-24 4 -57 6q-52 4 -119 4q-77 0 -184 -7l-72 -6q-45 -106 -71 -208q-17 -69 -21 -121v-20q0 -13 1 -20q1 -13 5 -19q3 -4 3 -9t-3.5 -8.5t-8.5 -3.5q-14 0 -29 22q-11 20 -11 55q0 61 17 137q21 90 61 189q-76 -10 -133 -26q-11 -4 -24.5 9t-13.5 24q0 8 7 9
q39 11 84 18t53 8l47 5q34 77 69 142q5 6 11 6q12 0 24.5 -13.5t7.5 -23.5q-35 -64 -53 -105q104 10 219 10q75 0 139 -7q60 -6 94 -22q8 -4 15 -12.5t7 -16.5q0 -12 -11 -12q-5 0 -10 3q-19 9 -43 13z" />
    <glyph glyph-name="t_t.liga" unicode="tt" horiz-adv-x="321" 
d="M96 261q64 103 127 229q-86 -6 -124 -10q-52 -123 -68 -225q-7 -43 -6 -87q0 -3 1 -3q2 0 7.5 7.5t9.5 11.5q21 26 53 77zM61 521q23 54 69 139q3 7 11 7q12 0 24.5 -14.5t6.5 -23.5q-25 -46 -51 -101q51 5 102 6q8 1 23 1l12 26q24 51 51 99q3 7 11 7q12 0 24 -14.5
t7 -23.5l-48 -93q32 0 90 -4q75 -8 116 -27q8 -3 15 -11.5t7 -16.5q0 -12 -11 -12q-5 0 -11 3q-22 11 -46.5 15t-63.5 7q-58 2 -85 2h-31q-51 -114 -78 -223q-18 -70 -20 -121q-2 -20 0 -40q1 -9 5 -19q3 -4 3 -10q0 -11 -12 -11q-8 0 -15.5 7t-12.5 15q-12 20 -12 58
q0 57 18 134v2q-38 -76 -72 -124.5t-62 -48.5q-17 0 -30 20q-14 23 -14 73q0 36 9 90q14 84 51 178q-79 -12 -133 -27q-11 -3 -24.5 10t-13.5 24q0 8 7 9q89 22 184 33z" />
    <glyph glyph-name="u_hyphen_hyphen.liga" unicode="u&#x2d;&#x2d;" horiz-adv-x="768" 
d="M129 244q0 7 2 19q-49 -47 -89 -64q-9 -4 -21 -4q-21 0 -36 16t-15 41q0 28 18 64q11 22 19.5 34.5t20.5 12.5q10 0 19.5 -6t13.5 -16q2 -6 2 -11q0 -11 -10 -10l-1 -2q-4 -3 -7 -7q-5 -6 -14 -24q-12 -24 -16 -44q10 4 15 9q22 14 46 36t46 43q24 24 37 35q4 4 9 4
q12 0 22.5 -14t8.5 -24q-1 -5 -3 -11.5t-4 -13.5t-9 -30t-10 -43q-2 -12 0.5 -23t7.5 -16l12 -9q10 -6 23 -9q30 -8 64 -10l26 -1q65 0 140 18q210 52 281 163q4 5 11 5t13.5 -5.5t6.5 -12.5q0 -4 -3 -9q-27 -41 -71.5 -80t-88.5 -59q-139 -65 -260 -65q-43 0 -88 9
q-36 7 -66 26t-44 49q-8 21 -8 39z" />
    <glyph glyph-name="u_l_l.liga" unicode="ull" horiz-adv-x="645" 
d="M654 351q8 0 14.5 -7t6.5 -15q0 -4 -3 -9q-27 -37 -54 -64t-57 -41q-18 -9 -37 -9q-35 0 -47 34q-5 15 -5 28q0 20 5.5 41.5t6.5 25.5q-89 -150 -134 -163q-10 -2 -14 -2q-23 0 -39 18t-16 42q0 26 12 72l4 16q-36 -61 -64.5 -93t-50.5 -32q-7 0 -13 3q-39 19 -37 68
q-49 -49 -89 -66q-9 -4 -21 -4q-22 0 -37 16t-15 41q0 27 18 65q11 22 19.5 34.5t20.5 12.5q10 0 19.5 -6.5t13.5 -15.5q2 -6 2 -11q0 -11 -10 -10l-1 -2l-7 -7q-10 -16 -14 -24q-13 -31 -16 -45l16 9q35 24 88 77q26 26 40 38q5 3 9 3q12 0 23 -13.5t8 -23.5
q-2 -9 -9 -32.5t-11 -43.5l-4 -20q17 6 37 24q31 30 72 96q41 72 86 172q26 65 65 136q3 7 11 7q12 0 24 -14.5t7 -23.5q-55 -100 -107 -245q-6 -16 -8 -24q-16 -44 -25.5 -79t-11.5 -67q2 1 11 5q25 18 45.5 43.5t45.5 62.5q58 83 134 225q24 53 56 110q3 7 11 7
q12 0 24 -14.5t7 -23.5q-101 -183 -136 -345q-4 -19 -6 -41q12 3 19 7q30 14 58.5 38.5t50.5 53.5q3 5 9 5z" />
    <glyph glyph-name="v_hyphen_hyphen.liga" unicode="v&#x2d;&#x2d;" horiz-adv-x="226" 
d="M2 347q9 21 25 21q11 0 23 -13t12 -22q0 -5 -6 -7q-11 -2 -18.5 -27t-8.5 -28q-1 -5 -3 -11.5t-4 -13.5l8 5q19 15 39 35q44 49 64 99q3 7 9 7q12 0 24.5 -14t8.5 -24q-14 -36 -38 -69t-53 -59q-37 -33 -64 -33q-14 0 -26 9q-19 15 -19 42q0 15 9 49q9 33 18 54z" />
    <glyph glyph-name="w_hyphen_hyphen.liga" unicode="w&#x2d;&#x2d;" horiz-adv-x="331" 
d="M45 315q-6 -11 -9.5 -20.5t-4.5 -12.5l-6 -17q9 7 27 23q40 39 81 91q3 4 8 4q11 0 23.5 -15t8.5 -24q-16 -44 -21 -77q-2 -5 0 -13l2 1q29 22 50.5 61.5t33.5 82.5q1 7 9 7q11 0 24 -13.5t10 -24.5q-16 -54 -52 -107q-16 -25 -33 -41.5t-37 -16.5q-23 0 -37.5 19
t-15.5 44q-23 -25 -46 -41q-25 -20 -43 -20q-17 0 -30 16q-12 15 -12 36q0 19 10 47q9 27 18.5 45t25.5 21q11 3 24 -10t13 -24q0 -6 -6 -8q-9 -2 -15 -13z" />
    <glyph glyph-name="x_hyphen_hyphen.liga" unicode="x&#x2d;&#x2d;" horiz-adv-x="687" 
d="M145 264q62 -44 141 -66.5t159 -22.5q137 0 195 62q20 20 32 14q5 -2 5 -9q0 -10 -7 -17q-49 -53 -129 -76q-58 -16 -124 -16q-92 0 -182 30q-95 32 -157 87q-37 -34 -80 -57q-9 -5 -23.5 7t-14.5 24q0 8 7 11q41 23 75 54q-23 26 -39 61q-4 10 8.5 23t24.5 13q8 0 11 -7
q11 -26 32 -52q25 28 52 68q3 4 8 4q7 0 16 -7.5t14 -17t0 -16.5q-31 -46 -53 -70z" />
    <glyph glyph-name="y_hyphen_hyphen.liga" unicode="y&#x2d;&#x2d;" horiz-adv-x="732" 
d="M95 159q-9 -7 -27 -23q-59 -55 -81 -122q-8 -24 -8 -46q9 9 18.5 22.5t13.5 18.5q34 47 68 115zM129 241q4 10 5 15l6 18q-27 -27 -50.5 -45.5t-48.5 -29.5q-9 -4 -21 -4q-22 0 -37 15.5t-15 41.5q0 28 18 64q11 22 19.5 34.5t20.5 12.5q10 0 19.5 -6t13.5 -16
q2 -6 2 -11q0 -11 -10 -10l-1 -2q-4 -3 -7 -7q-5 -6 -14 -24q-13 -31 -16 -44q8 3 16 9q21 14 40 31t47 45q26 26 40 38l2 1q7 5 17.5 0t17.5 -15.5t5 -18.5q1 -28 -9 -66q37 14 85 26q101 26 203 26q32 0 65 -3q53 -6 93 -17t70 -35q8 -5 14 -14t2 -16q-3 -7 -10 -7t-16 7
q-30 24 -72.5 31.5t-101.5 9.5q-126 3 -251 -34q-57 -16 -101 -37q-16 -47 -51 -116q-36 -72 -72 -121q-17 -24 -31 -38.5t-32 -19.5q-8 -1 -17 4t-14 12q-17 27 -17 62q0 28 10 60q40 121 184 194z" />
    <glyph glyph-name="z_hyphen_hyphen.liga" unicode="z&#x2d;&#x2d;" horiz-adv-x="250" 
d="M-31.5 203.5q-13.5 11.5 -13.5 22.5q0 7 7 10q56 29 92 50.5t69 47.5q-77 -10 -84 -36q-3 -7 -9 -7q-11 0 -24 13.5t-10 24.5q8 26 41.5 36.5t70.5 12.5q6 1 18 1q22 0 38 -8q11 -6 18.5 -16t7.5 -21q0 -10 -8.5 -19t-23.5 -21q-24 -18 -53 -36q19 0 32 -4q9 -3 17 -10.5
t10 -16.5v-2q0 -7 -4 -11.5t-11 -1.5q-10 3 -22 3t-27 -2.5l-21 -3.5q-45 -6 -86 -15q-11 -2 -24.5 9.5z" />
    <glyph glyph-name=".notdef" horiz-adv-x="500" 
d="M410 -200h-317v1000h317v-1000zM333 -131v33h-102l70 47h32v33h-166v-33h70l-70 -47v-33h166zM333 5v113h-166v-113h166zM333 178v113h-100v-56h34v23h33v-47h-100v80h-33v-113h166zM333 313v100h-33v-66h-133v-34h166zM267 370v70h66v33h-166v-33h66v-37h-66v-33h100z
M333 500v34h-66v70h-100v-104h166zM333 630v33h-66v37h66v33h-165v-33h65v-37h-66v-33h166zM200 85h100v-47h-100v47zM200 570h33v-36h-33v36z" />
    <glyph glyph-name=".null" 
 />
    <glyph glyph-name="nonmarkingreturn" horiz-adv-x="333" 
 />
    <glyph glyph-name="space" unicode=" " horiz-adv-x="150" 
 />
    <glyph glyph-name="space" unicode="&#xa0;" horiz-adv-x="150" 
 />
    <glyph glyph-name="exclam" unicode="!" horiz-adv-x="211" 
d="M54 158q4 -11 2 -15l-8 -14q-1 -3 -6 -5q-1 -1 -4 -1q-8 0 -16 6q-9 6 -14 16q-2 3 -3 7.5t1 7.5q1 2 8 14q2 3 5 5q2 1 5 1q7 0 16 -7q9 -6 14 -15zM162 647q3 7 11 7q12 0 24 -14t8 -24q-83 -160 -136 -391q-1 -6 -8 -6q-10 0 -23.5 13t-11.5 24q56 233 136 391z" />
    <glyph glyph-name="numbersign" unicode="#" horiz-adv-x="247" 
d="M136 300q3 17 7 29l-21 -3q-4 -8 -10 -26h24zM61 292q1 9 5 22l-6 -2q-11 -3 -24.5 10t-13.5 24q0 7 7 8q30 9 56 14q10 26 27 49q3 4 8 4q10 0 21.5 -11.5t11.5 -22.5q0 -5 -3 -8q0 -1 -2 -3q9 0 13 -1q11 23 24 42q3 4 8 4q10 0 21.5 -11.5t11.5 -22.5q0 -5 -3 -8
q-2 -3 -4.5 -7t-5.5 -9l7 -4q8 -5 15 -12.5t7 -15.5q0 -12 -12 -12q-5 0 -10 3q-8 4 -24 8q-11 -32 -14 -41l9 -5q8 -5 15 -12.5t7 -15.5q0 -12 -12 -12q-5 0 -10 3q-8 5 -16 6q-3 -11 -5 -37q-1 -10 -9 -10q-11 0 -23 10.5t-12 20.5q0 7 2 17l-27 -3q-2 -11 -4 -35
q-1 -10 -10 -10q-10 0 -22.5 11t-11.5 21v3q-2 0 -6 -1.5t-7 -1.5q-11 0 -23 12t-12 22q0 7 7 8z" />
    <glyph glyph-name="dollar" unicode="$" horiz-adv-x="237" 
d="M21 344q12 0 24 -14t8 -24l-1 -3h6q14 2 26.5 7.5t19.5 15.5q5 8 5 14q0 10 -16 26q-17 17 -27.5 33.5t-10.5 35.5q0 20 14 35t36 23l21 6l15 43q3 7 9 7q11 0 24 -14t9 -24q-2 -8 -4 -12q7 -1 21 -7q32 -17 32 -47q0 -20 -16 -37q-4 -4 -8 -4q-10 0 -21.5 12t-11.5 22
q0 5 3 8q2 2 6 10q-7 1 -23 1q-1 -1 -4 -1h-1q-21 -4 -39.5 -14t-18.5 -27q0 -10 6 -18t19 -21l14 -15q16 -21 16 -45q0 -5 -2 -13q-9 -29 -47 -40l-0.5 -0.5l-0.5 -0.5l-16 -48q-3 -7 -9 -7q-12 0 -24.5 13.5t-8.5 24.5l6 19q-20 6 -33 19t-13 30q0 11 6 24q3 7 10 7z" />
    <glyph glyph-name="percent" unicode="%" horiz-adv-x="276" 
d="M50 454q8 10 15 25q8 16 11 33l2 15q-6 -7 -11 -16.5t-7 -16.5q-6 -13 -10 -33v-7zM37.5 560q16.5 20 42.5 15q7 -1 14.5 -9.5t10.5 -17.5q16 -17 16 -44q0 -24 -12 -51q-9 -22 -23 -37.5t-32 -15.5q-10 0 -24 9q-25 18 -25 56q0 21 7 45q9 30 25.5 50zM104.5 417
q53.5 85 124.5 145q3 3 8 3q10 0 22 -11.5t12 -21.5q0 -4 -4 -8q-70 -59 -122 -142t-78 -173q-1 -7 -8 -7q-11 0 -24 13.5t-10 24.5q26 92 79.5 177zM153 368.5q14 19.5 36 19.5q6 0 10 -1q7 -1 14.5 -9t10.5 -17q16 -17 16 -46q0 -25 -11 -50q-24 -53 -55 -53q-12 0 -24 9
q-25 18 -25 57q0 23 6 44q8 27 22 46.5zM184 291q8 17 12 33q1 4 0.5 7.5t0.5 7.5q-6 -6 -11 -16t-7 -17q-8 -19 -10 -33v-6q7 8 15 24z" />
    <glyph glyph-name="ampersand" unicode="&#x26;" horiz-adv-x="322" 
d="M43 186zM18 246q13 20 35 42q31 31 71 54q-16 8 -26 21.5t-10 31.5q0 31 38 50.5t79 27.5h1v3l24 68q3 7 9 7q11 0 24 -13.5t9 -24.5l-13 -37q12 -1 25 -8q16 -8 24.5 -21.5t8.5 -29.5q0 -10 -5 -23q-3 -7 -10 -7q-12 0 -24 14t-8 24l2 8q-2 1 -7 1q-38 0 -79 -19
q-39 -16 -54 -38v-2q25 -10 43 -14q8 -2 18.5 -13t10.5 -19q0 -7 -7 -10q-47 -18 -88.5 -50t-56.5 -72q-2 -4 -4 -12q3 -1 8 -1q28 -2 56.5 6t52.5 17l32 12q10 4 24 -8.5t14 -24.5q0 -6 -7 -9q-5 -2 -32 -12.5t-53 -16.5q2 -5 0 -8q-18 -53 -23 -68q-3 -7 -10 -7
q-11 0 -24 13.5t-9 24.5q3 8 13 37q-19 0 -28 2q-23 5 -40 22t-17 40q0 22 13 42z" />
    <glyph glyph-name="parenleft" unicode="(" horiz-adv-x="240" 
d="M124.5 481q-44.5 -39 -63.5 -97q-13 -41 -13 -77q0 -63 35 -91q8 -7 14 -15.5t2 -15.5q-3 -6 -10 -6q-8 0 -16 6q-34 27 -51 66.5t-17 84.5q0 28 8 60q17 68 66.5 116t117.5 64q11 3 24.5 -10t13.5 -24q0 -7 -7 -8q-59 -14 -103.5 -53z" />
    <glyph glyph-name="parenright" unicode=")" horiz-adv-x="249" 
d="M220.5 500q23.5 -42 23.5 -94q0 -31 -7 -56q-18 -73 -70.5 -128.5t-123.5 -74.5q-11 -3 -24.5 10t-13.5 23q0 8 7 9q62 17 108.5 62t67.5 106q13 36 13 76q0 72 -50 94q-8 4 -14 13.5t-6 17.5q0 9 8 9q4 0 11 -3q47 -22 70.5 -64z" />
    <glyph glyph-name="asterisk" unicode="*" horiz-adv-x="152" 
d="M136 517q5 0 8 -3t3 -8q0 -11 -9 -20t-20 -11h-1q2 -4 4 -12t-4 -16t-14 -14q-7 -5 -16 -5t-10 7q-3 12 -10 20l-17 -17q-4 -4 -10.5 -7.5t-11.5 -3.5t-8 4q-2 2 -2 7q0 10 12 22q6 5 11 11q-22 7 -30 11q-6 3 -6 9q0 12 15 24t24 7l8 -3q1 10 12.5 20t21.5 10q8 0 11 -7
q4 -9 4 -20q0 -7 -1 -11q21 2 32 5z" />
    <glyph glyph-name="plus" unicode="+" horiz-adv-x="222" 
d="M204 359q13 -13 13 -24q0 -6 -6 -8q-43 -10 -91 -10q-7 -38 -7 -65q0 -10 -9 -10q-10 0 -22.5 11t-12.5 21q2 30 4 45q-28 4 -42 7q-9 2 -17.5 13.5t-8.5 20.5q0 11 14 8q33 -7 62 -8q13 52 37 90q3 4 8 4q10 0 21 -11t11 -23q0 -5 -2 -8l1 1l-7 -13q-4 -6 -15 -34l-2 -4
q17 1 47 7q11 3 24 -10z" />
    <glyph glyph-name="comma" unicode="," horiz-adv-x="66" 
d="M45 285q8 0 11 -7q5 -9 5 -22q0 -24 -18 -51q-6 -7 -15.5 -12t-16.5 -2q-6 3 -6 9t8 17q4 5 4 14q0 11 -5 19q-3 7 3.5 15.5t14.5 14.5q7 5 15 5z" />
    <glyph glyph-name="hyphen" unicode="-" horiz-adv-x="223" 
d="M205 359q13 -13 13 -24q0 -6 -6 -8q-47 -11 -92 -11q-41 0 -88 10q-9 2 -18 14t-9 20q0 11 15 8q40 -8 79 -8q42 0 82 9q11 3 24 -10z" />
    <glyph glyph-name="period" unicode="." horiz-adv-x="62" 
d="M54 264q0 -1 2 -7t0 -8l-8 -14q-1 -4 -6 -6h-4q-8 0 -16 6q-9 6 -14 16q0 1 -2.5 6.5t0.5 8.5q1 2 8 14q2 3 5 5l5 1q5 0 10 -3t6 -4q8 -5 14 -15z" />
    <glyph glyph-name="slash" unicode="/" horiz-adv-x="237" 
d="M200 591q10 0 21 -11.5t11 -22.5q0 -6 -2 -8q-105 -145 -181 -364q-3 -7 -10 -7q-11 0 -24 13.5t-9 24.5q79 221 186 371q3 4 8 4z" />
    <glyph glyph-name="zero" unicode="0" horiz-adv-x="234" 
d="M180 445v5q0 6 -1 12.5t-1 12.5q0 1 -1 3t-3 3q-16 10 -19 23q-34 -9 -68 -81q-33 -73 -33 -143q0 -18 2 -27q3 -11 14 -11q6 0 14 4q48 27 81 123q14 43 15 76zM19 378q11 47 32 88q41 82 94 82q12 0 18 -2q10 -3 19 -16t7 -21q35 -26 35 -82q0 -42 -17 -89
q-42 -125 -109 -141q-10 -2 -15 -2q-31 0 -50 28.5t-22 63.5q-3 44 8 91z" />
    <glyph glyph-name="one" unicode="1" horiz-adv-x="219" 
d="M178 550q12 0 24 -16t5 -26q-73 -118 -95 -238q32 -2 49 -13q22 -14 22 -28q0 -12 -11 -12q-4 0 -10 3q-13 7 -30 7q-19 0 -36.5 -6t-47.5 -18q-10 -4 -24 8t-14 24q0 7 7 10q27 13 58 20q-8 10 -7 22q11 82 52 168l-12 -1q-10 1 -21 13.5t-11 22.5q0 8 12 8q37 0 81 48
q4 4 9 4z" />
    <glyph glyph-name="two" unicode="2" horiz-adv-x="294" 
d="M256.5 524q22.5 -20 26.5 -52q1 -5 1 -16q0 -56 -52 -115q-33 -38 -80 -73q48 -5 66 -35q5 -7 5 -15q0 -5 -3 -8t-8 -3q-12 0 -23 13q-2 0 -6 2l-23 1q-24 -1 -50 -6q-26 -4 -62 -14q-10 -3 -24 9t-14 23q0 7 7 10q32 17 60 36q65 42 109.5 85.5t53.5 96.5q2 14 0 28
q0 6 -2 8q-10 2 -14 2q-10 0 -21 -3q-32 -10 -53.5 -36.5t-29.5 -61.5q-1 -7 -8 -7q-10 0 -23 13.5t-11 24.5q10 47 44 80t81 33q31 0 53.5 -20z" />
    <glyph glyph-name="three" unicode="3" horiz-adv-x="292" 
d="M54 248l-1 1zM24 305q10 0 22 -11.5t12 -22.5q0 -3 -2.5 -9.5t-2.5 -10.5q11 -7 32 -5q23 0 44.5 10t37.5 27q10 11 19.5 27t9.5 27q0 7 -5 12q-6 5 -20 7q-1 1 -3 1t-4 1h-2q-8 1 -21 12.5t-13 20.5q0 7 7 10q26 11 53 30q19 13 34 29q7 9 10.5 18t6.5 20q1 3 -5.5 4.5
t-11.5 0.5q-20 0 -46 -11q-18 -7 -38 -20.5t-17 -25.5q1 -2 1 -6q0 -10 -11 -10q-13 0 -23.5 13t-10.5 26q0 36 68 65q29 13 56 13q41 0 64 -29q17 -21 17 -44q0 -27 -22.5 -51.5t-56.5 -44.5l14 -12q20 -21 20 -50q0 -39 -36 -75q-19 -18 -44.5 -28.5t-51.5 -10.5
q-18 0 -31 4q-27 7 -45.5 26.5t-18.5 44.5q0 12 4 21q3 7 10 7z" />
    <glyph glyph-name="four" unicode="4" horiz-adv-x="273" 
d="M207 409v-3q0 -4 -4 -7h-1q-47 -108 -51 -193q-1 -10 -10 -10q-10 0 -22.5 11t-11.5 21q4 61 25 128q-44 -22 -72 -22q-34 0 -46 29q-4 9 -4 23q0 18 6 35.5t16 41.5q13 34 25 53t33 19q10 0 21 -12t11 -21t-11 -10q-13 -2 -24 -29t-12 -29q-9 -22 -15 -43q-2 -4 -2 -8
l7 1q26 10 47 21q18 9 52 31q25 56 59 110q3 4 7 4q12 0 24.5 -15.5t6.5 -26.5q-34 -56 -54 -99z" />
    <glyph glyph-name="five" unicode="5" horiz-adv-x="307" 
d="M249.5 505q-14.5 1 -37.5 0q-28 0 -60 -8q3 -9 -1 -15q-14 -17 -23 -37q18 2 26 2q30 0 51 -13q42 -24 42 -71q0 -41 -30 -84.5t-67 -60.5q-29 -12 -53 -12q-25 0 -47 11q-18 10 -29 26t-11 34q0 12 4 21q3 7 9 7q11 0 24 -13.5t9 -24.5q0 -1 -3 -14q9 -3 20 -3
q28 0 53 14.5t43 37.5q22 28 31 64q1 3 2.5 10.5t1.5 12.5q0 8 -4 11q-5 4 -17 4q-10 0 -28 -3q-22 -4 -53 -18q-8 -3 -17.5 3t-15.5 16.5t-4 17.5q14 47 32 77q-11 13 -11 22q0 7 7 10q46 20 104 20q53 0 78 -14q22 -15 22 -29q0 -6 -3.5 -9t-8.5 -3t-10 3q-11 7 -25.5 8z
" />
    <glyph glyph-name="six" unicode="6" horiz-adv-x="261" 
d="M96.5 357q-14.5 -19 -29.5 -46q-4 -7 -12 -7q-1 -5 -2 -12.5t-1 -18.5q0 -14 5 -22l6 -1q18 2 22 4q19 8 34 28q16 18 25.5 44t6.5 48q-1 4 -3 7.5t-1 3.5h-4q-4 0 -12 -2q-20 -7 -34.5 -26zM10 309q0 51 24.5 104.5t61.5 90.5q19 19 43 30.5t48 11.5q27 0 49 -14
q15 -10 15 -25q0 -12 -10 -12q-6 0 -15 6q-6 3 -14 3q-11 0 -35 -8q-35 -15 -65 -55l-11 -16q1 1 3 1q5 2 16 2q32 0 55 -28q19 -23 19 -60q0 -31 -14.5 -62t-37.5 -50q-24 -20 -54 -20q-28 0 -49.5 19.5t-26.5 52.5q-2 9 -2 29z" />
    <glyph glyph-name="seven" unicode="7" horiz-adv-x="250" 
d="M226 540q14 -11 14 -23q0 -5 -4 -9q-45 -48 -84 -102q10 -3 16 -7q8 -5 15 -12.5t7 -16.5q0 -11 -11 -11q-5 0 -10 3q-16 9 -41 9q-24 -38 -41 -74q-27 -54 -35 -88q-1 -7 -8 -7q-11 0 -24 13.5t-10 24.5q10 40 37 92q4 9 14 27q-11 2 -21 12.5t-10 20.5q0 7 7 10
q28 11 57 12q20 32 57 78q-11 -1 -33 -1q-32 0 -70 5q-9 2 -17.5 7.5t-12.5 14.5q-2 6 -2 11q0 11 10 10q38 -5 70 -5q58 0 106 14q10 3 24 -8z" />
    <glyph glyph-name="eight" unicode="8" horiz-adv-x="215" 
d="M112 362l-1 5q0 4 3 8q48 52 48 98q0 18 -6 29t-18 11q-27 0 -42 -28.5t-15 -53.5q0 -29 26 -62q1 -3 5 -7zM46 379q10 0 21 -11.5t11 -22.5q0 -6 -2 -8q-26 -42 -26 -69q0 -14 9 -23q4 -4 10 -4q7 0 16.5 5.5t15.5 11.5q14 17 14 34q0 15 -8.5 28.5t-24.5 32.5l-20 25
q-24 37 -24 80q0 51 36 83q16 15 40 15q22 0 43 -13.5t33 -34.5q15 -25 15 -55t-14.5 -60t-38.5 -56q-3 -4 -8 -4q-4 0 -12 4q26 -33 26 -64q0 -19 -9 -36q-10 -18 -24.5 -27.5t-32.5 -9.5q-30 0 -52 22q-30 27 -30 68q0 42 28 85q3 4 8 4z" />
    <glyph glyph-name="nine" unicode="9" horiz-adv-x="234" 
d="M143 473l18 31h-3q-4 0 -9 3q-6 3 -12 3q-17 0 -31.5 -19.5t-22.5 -40.5q-12 -31 -12 -55l1 -7q3 2 7 4.5t8 5.5q8 6 20 22q14 17 36 53zM10 249q0 6 4 9.5t11 1.5q9 -3 18 -3q43 0 81 78q12 26 17 39q-25 -32 -53 -32q-25 0 -42.5 25.5t-17.5 50.5q0 27 11 59t31.5 54.5
t45.5 22.5q16 0 32 -10q7 -3 13.5 -10t7.5 -14l12 22q3 7 10 7q12 0 24 -14t8 -24q-10 -67 -25 -122.5t-41 -102.5q-43 -73 -93 -73q-12 0 -27 5q-9 3 -17.5 10.5t-9.5 16.5v4zM74 378q1 0 -1 2z" />
    <glyph glyph-name="colon" unicode=":" horiz-adv-x="88" 
d="M54 264q6 -11 3 -15q-7 -12 -8 -14q-1 -4 -6 -6h-5q-6 0 -16 6q-8 7 -13 16q-2 3 -3 7.5t0 7.5q7 12 8 14q2 4 6 5l4 1q5 0 17 -7q6 -4 13 -15zM40 355q1 4 5 6h5q6 0 16 -6q10 -8 14 -16q4 -11 2 -15l-8 -14q-2 -4 -6 -5l-4 -1q-7 0 -16 7q-7 4 -14 15q-6 11 -2 15
q1 2 8 14z" />
    <glyph glyph-name="semicolon" unicode=";" horiz-adv-x="94" 
d="M89 327q0 -5 -4 -10t-5 -7q-2 -3 -5 -5l-5 -1q-5 0 -10 3t-6 4q-8 5 -14 15q0 1 -2 7t0 8l8 14q2 5 6 6h4q8 0 16 -6q9 -6 14 -16q3 -6 3 -12zM5 200q0 6 8 17q3 6 3 13q0 10 -4 20q-3 7 3.5 15.5t14.5 14.5q7 5 15 5t11 -7q5 -9 5 -22q0 -24 -18 -51q-6 -7 -15.5 -12
t-16.5 -2q-6 3 -6 9z" />
    <glyph glyph-name="less" unicode="&#x3c;" horiz-adv-x="213" 
d="M195 429q13 -13 13 -24q0 -6 -6 -8q-66 -17 -112 -44q-41 -25 -42 -46q0 -15 18 -26t34.5 -17t20.5 -8q8 -4 14 -13.5t6 -17.5q0 -10 -9 -10q-3 0 -11 3q-43 19 -72 39.5t-40 50.5q-4 14 -4 20q0 27 28 50q47 38 138 61q11 3 24 -10z" />
    <glyph glyph-name="equal" unicode="=" horiz-adv-x="189" 
d="M155 323.5q14 -12.5 14 -24.5q0 -8 -7 -11q-20 -12 -52 -12q-28 0 -79 11q-9 2 -17.5 13.5t-8.5 20.5q0 11 15 8q41 -9 65 -9q27 0 47 10q9 6 23 -6.5zM98 391q29 0 48 11q10 5 24 -7.5t14 -24.5q0 -7 -7 -11q-21 -11 -54 -11t-77 10q-9 2 -17.5 14t-8.5 21q0 10 14 7
q43 -9 64 -9z" />
    <glyph glyph-name="greater" unicode="&#x3e;" horiz-adv-x="227" 
d="M209 369q13 -19 13 -37q0 -30 -32 -53t-64.5 -35t-82.5 -28q-11 -4 -24.5 9t-13.5 24q0 8 7 9q57 18 89.5 30.5t58.5 35.5q17 15 19 26v4q0 5 -3 8q-1 0 -2.5 2t-2.5 2l-12 9l-10 5l-13 6q-11 6 -27 11q-9 2 -17.5 10t-9.5 17v4q0 6 4 9.5t11 1.5q80 -23 112 -70z" />
    <glyph glyph-name="question" unicode="?" horiz-adv-x="252" 
d="M54 158q2 -3 3 -7.5t0 -7.5q-7 -12 -8 -14q-1 -3 -6 -5q-2 -1 -5 -1q-6 0 -16 6q-8 7 -13 16q-2 3 -3 7.5t0 7.5q7 12 8 14q2 4 6 5q1 1 4 1q8 0 17 -7q8 -5 13 -15zM47 572.5q20 35.5 56 57.5q32 17 62 17q26 0 46 -13q18 -13 27 -33t9 -44q0 -20 -6 -38
q-8 -28 -24.5 -53.5t-33 -46.5t-21.5 -28q-34 -46 -57 -85t-36 -81q-1 -7 -9 -7q-11 0 -24 13.5t-9 24.5q13 44 36.5 83.5t58.5 86.5l15 19q28 36 44 63t21 56q1 5 1 16q0 13 -2 19q-1 4 -12 4q-17 0 -41 -8q-35 -16 -56 -49t-22 -72q0 -11 -9 -11q-10 0 -22.5 11.5
t-12.5 21.5q1 41 21 76.5z" />
    <glyph glyph-name="at" unicode="@" horiz-adv-x="423" 
d="M173 292q-17 -20 -25 -37q40 20 82 62q-6 4 -13.5 6t-12.5 -1q-14 -9 -31 -30zM33 357.5q24 45.5 62.5 78.5t84.5 45q24 6 50 6q48 0 90.5 -20.5t68.5 -58.5q29 -39 29 -92q0 -43 -17.5 -84t-53.5 -58q-13 -6 -29 -6q-19 0 -37.5 9.5t-30.5 26.5q-16 21 -14 47
q-59 -47 -112 -55q-10 -1 -21.5 11t-11.5 22q1 27 18.5 60.5t43.5 57.5t51 24q29 0 48 -32l6 8q4 4 8 4q11 0 23.5 -14t9.5 -24q-1 -14 -11 -44q-6 -16 -8 -24t-2 -16q0 -14 7 -18q3 -2 10 -2q14 0 30 13t25 26q12 19 19 42.5t7 46.5q0 51 -34 79t-84 28q-39 0 -78 -17
q-56 -25 -94 -82t-38 -117q0 -27 10.5 -50t31.5 -35t44 -12q31 0 58 19q7 5 17 0t17.5 -14t7.5 -16q0 -5 -4 -8q-36 -24 -73 -24q-41 0 -77.5 25t-57 66t-17.5 85q4 48 28 93.5z" />
    <glyph glyph-name="A" unicode="A" horiz-adv-x="711" 
d="M444 426q33 3 67 3q24 0 36 -1l27 -2l18 45q51 117 93 198q-33 -19 -81 -67q-72 -67 -160 -176zM10 102q0 6 4 9.5t11 1.5q9 -3 18 -3q25 0 49 16t58 45q76 69 177 194q-91 -17 -157 -51q-9 -5 -23.5 7t-14.5 24q0 8 7 11q48 26 105.5 40t126.5 23l18 22q38 48 58 71
q44 52 78.5 88.5t71.5 67.5q33 29 65 46.5t65 18.5q11 0 25 -13.5t8 -23.5q-29 -48 -64 -122q-39 -78 -72 -159q12 -4 18 -7q8 -4 15 -12.5t7 -16.5q0 -11 -11 -11q-4 0 -10 2q-13 7 -32 10q-14 -34 -31 -82q-24 -71 -32 -120q-5 -25 -5 -45l2 -15l1 -4q7 -12 7 -16
q0 -7 -7 -11q-7 -3 -16 3t-14 13q-16 23 -16 57q0 19 3 37q12 76 54 188h-3q-65 2 -130 -6l-21 -3q-70 -86 -106 -128q-46 -53 -76.5 -84.5t-65.5 -57.5q-52 -40 -92 -40q-11 0 -26 5q-9 3 -17.5 10.5t-9.5 16.5v4z" />
    <glyph glyph-name="B" unicode="B" horiz-adv-x="526" 
d="M115 137q-9 8 -13 19q-7 25 -7 56q0 38 9 77.5t25 90.5q33 108 90 228q3 7 10 7q12 0 24 -14t8 -24q-53 -113 -85 -215q-20 -62 -29 -97t-9 -73q0 -25 6 -48v-5q6 0 16 2q85 13 149 63q26 20 47 47.5t21 52.5q0 30 -29 44.5t-62 15.5q-9 0 -21.5 12.5t-12.5 21.5q0 7 7 8
q106 29 184 81q89 59 106 121q4 11 4 24q0 8 -1 12q0 2 -4 9q2 -3 0 -0.5t-3 4.5q-6 6 -18 11q-13 6 -29 9q-28 6 -60 6q-54 0 -114 -15q-107 -25 -175 -75q-67 -50 -67 -102q0 -6 2 -16q3 -15 -8 -15q-9 0 -20.5 8.5t-13.5 17.5q-2 16 -2 23q0 41 25.5 75.5t67.5 60.5
q88 56 205 74q54 8 83 8q62 0 107 -22q32 -15 50 -41.5t18 -57.5q0 -22 -11 -47q-28 -63 -116 -118q-54 -33 -119 -58q18 -10 33 -24q36 -35 36 -75q0 -46 -43 -90.5t-108.5 -72t-126.5 -27.5q-80 0 -120 46q-4 4 -7.5 10t-3.5 11t3 8t8 3q6 0 12 -3.5t9 -7.5q21 -24 73 -24
z" />
    <glyph glyph-name="C" unicode="C" horiz-adv-x="392" 
d="M59.5 109q-28.5 26 -40.5 66.5t-8 82.5q11 138 104 289q41 67 84.5 112.5t96.5 46.5q38 0 62.5 -29t24.5 -67q0 -57 -41 -143q-3 -7 -10 -7q-12 0 -24 14t-8 24q19 42 29 71.5t10 59.5q0 21 -3 27t-15 6q-20 0 -44 -13q-46 -27 -81.5 -75t-69.5 -113q-72 -144 -73 -248
q0 -23 5 -44.5t15 -31.5l13 -7q12 -4 27 -4q29 1 66 19q63 30 121.5 85.5t104.5 122.5q5 6 10 6q6 0 11.5 -6t5.5 -13q0 -5 -3 -10q-61 -87 -140 -167t-157 -80q-44 0 -72.5 26z" />
    <glyph glyph-name="D" unicode="D" horiz-adv-x="520" 
d="M14 131q-6 9 -3 16q4 7 11 7q6 0 15 -7q20 -16 51 -16q22 0 43 6q-12 8 -18 23q-7 27 -7 58q0 36 8 72.5t23 86.5q30 102 86 219q3 7 10 7q12 0 24 -14t8 -24q-50 -106 -82 -206q-17 -56 -25.5 -91t-8.5 -70q0 -25 6 -49l1 -4q42 17 86 48q64 45 114 108.5t81 138.5
q39 88 39 146q0 23 -6.5 41.5t-21.5 27.5q-26 16 -61 16q-56 0 -130 -38q-61 -32 -109 -83t-75 -114q-3 -7 -10 -7q-12 0 -24 14t-8 24q33 78 97 139t144 90q46 16 92 16q75 0 119 -48q37 -40 37 -103q0 -73 -53 -181q-39 -79 -97 -144t-130 -107q-71 -39 -130 -39
q-51 0 -83 27q-7 5 -13 14z" />
    <glyph glyph-name="E" unicode="E" horiz-adv-x="379" 
d="M58.5 105q-30.5 23 -42.5 58q-6 21 -6 42q0 55 35 113q47 80 134 127q-42 35 -42 85q0 38 24 75t59 64q48 34 84 34q23 0 41 -14q26 -21 26 -56q0 -29 -17 -69q-3 -7 -10 -7q-12 0 -24 14t-8 24q9 23 13 38q3 12 3 24q0 4 -14.5 0.5t-22.5 -7.5q-23 -10 -44 -28
q-50 -43 -63 -89q-4 -12 -4 -24q0 -34 40 -54q6 -3 14 -12.5t8 -17.5q0 -7 -7 -10q-50 -22 -91 -59t-65 -83q-27 -52 -27 -89q0 -22 8 -37q12 -23 43 -23q23 0 58 14q36 16 70 42t70 61q58 56 96 112q5 6 12 6t13.5 -5.5t6.5 -12.5q0 -4 -3 -9q-62 -89 -142 -169.5
t-158 -80.5q-37 0 -67.5 23z" />
    <glyph glyph-name="F" unicode="F" horiz-adv-x="411" 
d="M528 678v1q-1 0 0 -1zM82 607q119 70 325 93q46 6 71 6q29 0 48 -5q16 -4 30.5 -17t14.5 -27q0 -11 -10 -21q-3 -3 -8 -3q-9 0 -19 8.5t-13 18.5q-14 2 -21 2q-105 -1 -224 -34l-1 -1q-14 -18 -24.5 -38t-19.5 -39.5t-13 -27.5q-15 -34 -43 -104q41 16 88 25q27 5 51 5
q40 0 63 -18q7 -6 13 -15t2 -16q-3 -6 -9 -6q-8 0 -17 7q-2 2 -10 3q-7 1 -21 1q-33 0 -65 -9q-53 -12 -119 -43q-29 -79 -48 -157q-8 -35 -11 -64q-2 -16 -1 -24q0 -3 1 -6.5t0 -4.5q2 -4 2 -10q0 -9 -9 -9q-8 0 -17.5 6t-13.5 14q-7 18 -7 40q0 14 7 54q10 62 32 126
q-10 -1 -22 11t-12 23q0 7 6 10q30 18 52 28l27 70q14 36 30 75t32 70q-62 -21 -100 -48q-50 -35 -45 -69v-2q0 -4 -3 -6.5t-7 -2.5q-13 0 -22.5 10t-10.5 23q-7 51 71 98zM542 658z" />
    <glyph glyph-name="G" unicode="G" horiz-adv-x="462" 
d="M11 240q11 138 103 294q43 74 88 119q25 24 49 38t50 14q36 0 60.5 -29t24.5 -68q0 -57 -41 -141q-3 -7 -10 -7q-12 0 -24 14t-8 24q40 80 40 131q0 20 -3.5 27t-13.5 7q-23 0 -50 -18q-46 -30 -81.5 -81t-68.5 -118q-72 -146 -72 -251q0 -28 6 -46q2 -9 6 -15l4 -5
q11 -7 24 -7q18 0 32.5 8.5t34.5 25.5q39 34 68.5 75.5t71.5 110.5l13 21q-33 -10 -67 -24q-11 -4 -24.5 8.5t-13.5 23.5q0 7 7 10q92 39 163 39q30 0 51 -11q8 -5 15 -12.5t7 -16.5q0 -11 -11 -11q-5 0 -10 3q-15 7 -45 5v-1q-21 -44 -49 -114q-22 -57 -31 -93
q-1 -3 -5.5 -18.5t-4.5 -28.5q0 -5 2 -13q1 -2 1 -6q0 -12 -16 -10q-9 2 -16.5 10t-10.5 17q-3 11 -3 21q0 12 7 45q-30 -41 -60.5 -69.5t-65.5 -36.5q-12 -2 -18 -2q-25 0 -47.5 14t-36.5 37q-26 42 -21 111z" />
    <glyph glyph-name="H" unicode="H" horiz-adv-x="558" 
d="M521 394zM21 113q6 0 10 -3h7q10 4 17 10q19 15 38 48q45 71 91 196q-36 -13 -66 -29q-9 -6 -23.5 6.5t-14.5 24.5q0 7 7 11q48 27 116 44l21 61q37 115 62 205q1 7 9 7q10 0 23 -13.5t10 -24.5q-9 -35 -23 -82l-16 -51q-9 -31 -29 -91q29 4 85 10q67 6 102 4
q18 52 34 95q37 99 64 162q3 7 10 7q12 0 24 -13.5t8 -23.5q-16 -38 -23 -57q-36 -87 -66 -177q33 -9 50 -31q7 -12 7 -16q0 -7 -7 -10q-2 -1 -6 -1q-10 0 -21 13h-1l-15 4l-20 3l-13 -41q-23 -81 -33 -135q-5 -40 -5 -56q0 -23 5 -33q2 -4 2 -11q0 -9 -9 -9q-8 0 -17.5 6
t-13.5 14q-11 26 -11 58q0 20 6 58q11 69 37 151q-50 -2 -90 -7q-57 -7 -101 -16q-23 -67 -56 -144q-19 -43 -35.5 -75t-38.5 -59q-28 -35 -57 -35q-11 0 -23 6q-8 4 -15 12.5t-7 16.5q0 11 11 11z" />
    <glyph glyph-name="I" unicode="I" horiz-adv-x="341" 
d="M288 110q4 -7 7 -7q-4 3 -7 7zM147 143l-2 6q-4 11 -4 26q0 19 5.5 41t6.5 27q22 89 56.5 177t89.5 210q-61 -13 -96 -33q-10 -5 -23.5 7.5t-13.5 24.5q0 7 6 11q34 19 76 28t95 15q30 4 53 4q59 0 79 -31q6 -9 6 -15q0 -11 -12 -11q-8 0 -18 8q-2 2 -8 3q-10 1 -30 1
q-34 0 -72 -5q-8 -2 -12 -2q9 -6 13.5 -15t1.5 -15l-22 -50q-48 -109 -91 -229q-25 -73 -36 -116q-1 -4 -6 -25.5t-4 -37.5h2q30 4 53 4q59 0 79 -31q6 -9 6 -15q0 -4 -3.5 -7t-8.5 -3q-8 0 -18 8l-9 2q-9 2 -30 2q-24 0 -72 -6q-44 -7 -76.5 -15.5t-60.5 -23.5
q-9 -6 -23 6.5t-14 24.5q0 7 6 11q46 26 131 39zM295 102v1v-1z" />
    <glyph glyph-name="J" unicode="J" horiz-adv-x="416" 
d="M55 146q0 -11 3 -22q1 -4 2.5 -7.5t2.5 -4.5q3 -4 8 -7q6 -2 14 -2q11 0 22 5.5t25 15.5q33 29 71 85q63 97 126 249q-59 -8 -114.5 -51t-96.5 -101q-48 -70 -60 -131q-3 -13 -3 -29zM10 173q0 49 27.5 102t65.5 98q49 59 113 96.5t130 33.5q16 40 26 71q8 24 11 37l4 13
v2q-83 -13 -129 -39q-10 -5 -23.5 7.5t-13.5 24.5q0 7 6 11q61 33 171 43q30 4 53 4q59 0 79 -31q6 -9 6 -15q0 -10 -12 -10q-10 0 -18 7q-2 2 -8 3q-10 1 -30 1q-18 0 -50 -2q5 -5 9 -11t4 -10q0 -15 -4.5 -30.5t-10 -30.5t-8.5 -22l-12 -33l2 -1q9 -2 17 -9.5t10 -16.5v-2
q0 -7 -4 -11.5t-11 -1.5q-9 3 -27 7q-13 -34 -33 -80q-39 -88 -72.5 -150t-78.5 -112q-46 -57 -92 -57q-22 0 -43 13t-34 34q-20 29 -20 67z" />
    <glyph glyph-name="K" unicode="K" horiz-adv-x="437" 
d="M121 345q0 6 8 16l2 2l9 8q54 131 101 286q3 7 9 7q11 0 24 -13.5t9 -24.5q-37 -122 -81 -236q129 50 227 119t154 170q3 7 11 7q12 0 24.5 -14.5t6.5 -23.5q-64 -115 -179 -191t-267 -129q32 -85 87 -140.5t129 -55.5q28 0 58 9q2 1 5 1q5 0 8 -4t3 -9q0 -10 -9.5 -18
t-20.5 -11q-33 -10 -68 -10q-80 0 -141 55q-49 46 -80 118q-45 -100 -96 -198q-3 -6 -10 -6q-12 0 -24.5 13.5t-8.5 23.5q58 108 113 237q0 4 -2 8z" />
    <glyph glyph-name="L" unicode="L" horiz-adv-x="307" 
d="M70 160q0 20 5.5 43t6.5 28q25 98 63 196.5t96 229.5q3 7 10 7q12 0 24 -14t8 -24l-24 -55q-64 -155 -96 -247q-27 -73 -39 -126q-8 -32 -10 -48q0 -8 -1 -12q40 8 101 14q50 6 81 6q72 0 117 -28q7 -4 11 -11t4 -13q0 -12 -10 -12q-6 0 -15 6q-13 8 -29 10t-46 3
q-52 2 -103 -6q-58 -7 -100 -16.5t-77 -28.5q-9 -6 -23 6.5t-14 24.5q0 7 6 11q26 15 59 24q-2 4 -2 6q-3 12 -3 26z" />
    <glyph glyph-name="M" unicode="M" horiz-adv-x="682" 
d="M685 658zM13.5 110.5q3.5 2.5 7.5 2.5q7 0 11 -3h2q2 0 3 -0.5t3 0.5q8 3 16 9q18 13 38 45q40 59 66.5 124.5t64.5 175.5q35 103 62 194q3 8 14 5q51 -7 71.5 -50.5t20.5 -104.5q0 -5 -3 -50q-4 -43 -12 -87q42 66 93 133q48 64 92 114q24 28 39.5 43.5t33.5 28.5
q15 10 28 10q22 0 34 -25q4 -8 4 -18q0 -15 -8 -35q-60 -140 -88 -227q-31 -92 -43 -153q-9 -45 -9 -70q0 -24 6 -36q2 -4 2 -11q0 -9 -9 -9q-8 0 -17.5 6t-13.5 14q-11 26 -11 59q0 22 6 60q6 37 16 72.5t27 88.5q38 113 76 202q-69 -69 -157 -192q-52 -72 -82 -119.5
t-50 -100.5q-3 -7 -9 -7q-9 0 -21.5 12.5t-12.5 21.5q1 20 9 58q4 13 5 22q14 65 24 127q8 60 8 92q0 13 -2 37q-4 29 -11 42q-4 5 -6 6q0 1 -1.5 1t-2.5 1q-12 -40 -22 -71q-63 -202 -120 -324q-20 -42 -36 -71.5t-37 -53.5q-27 -33 -55 -33q-12 0 -25 7q-8 4 -15 12.5
t-7 16.5q0 6 3.5 8.5z" />
    <glyph glyph-name="N" unicode="N" horiz-adv-x="594" 
d="M331 124v1v-1zM10 109q0 11 10 10q17 -2 33 17t31 46q35 61 60.5 127t57.5 167q31 97 53 182q1 7 8 7q11 0 23.5 -12t11.5 -22v-2v-2q-18 -135 -18 -232q0 -94 16 -177q7 -39 17 -64q4 -11 12 -22l5 -6l8 2q7 4 20 19q30 33 51 73.5t48 104.5q54 126 75 231q11 55 9 88
q-2 14 -4 18q-10 3 -19 15t-9 20t10 8q65 -4 65 -97q0 -35 -8 -75q-25 -125 -87 -262q-30 -68 -58 -113q-14 -23 -25.5 -39t-26.5 -27q-13 -9 -26 -9q-21 0 -45 22q-23 22 -35.5 55t-19.5 75q-16 90 -16 188q-35 -106 -63 -172q-33 -81 -65 -127q-30 -48 -62 -48
q-10 0 -20 6t-15 16q-2 6 -2 11z" />
    <glyph glyph-name="O" unicode="O" horiz-adv-x="433" 
d="M88 470q7 3 17 -3t16.5 -16.5t3.5 -17.5q-29 -59 -44 -97q9 -11 19 -17q8 -5 15 -12.5t7 -16.5q0 -11 -11 -11q-5 0 -10 3q-11 6 -31 21q-19 -61 -15 -116q2 -19 7 -32q2 -8 9 -15q3 -4 9 -6q7 -3 20 -3q47 0 102 53q48 44 94 122q42 74 65 151q19 65 19 106q0 10 -2 28
q-3 25 -14 38l-3 3l-2 2t-4 2q-10 4 -18 4q-6 1 -17 1q-39 0 -78 -17.5t-72 -45.5q-54 -45 -82 -108zM34 354q-9 26 -9 52q0 62 40 128t93 102q31 21 68 35t73 14q21 0 42 -6q32 -11 52.5 -39t26.5 -64q3 -18 3 -35q0 -49 -23 -124q-28 -91 -82 -174q-38 -61 -88.5 -109
t-104.5 -48q-23 0 -43 10q-36 17 -54 53.5t-18 78.5q0 56 24 126z" />
    <glyph glyph-name="P" unicode="P" horiz-adv-x="411" 
d="M438 664q46 -17 69 -57q14 -24 14 -51q0 -41 -30 -79.5t-72 -66.5q-116 -79 -285 -109q-26 -77 -35 -127q-1 -4 -4.5 -22t-3.5 -35q0 -18 6 -30q2 -6 2 -10q0 -6 -2.5 -8.5t-9.5 -2.5q-8 0 -15.5 7t-12.5 15q-10 20 -10 52q0 15 4 45q8 50 26 107q-10 -1 -21 11t-11 22
t11 11q14 1 37 5q42 124 94 233q3 7 10 7q12 0 24 -14t8 -24q-39 -84 -79 -190q154 36 249 109q61 45 73 94q3 11 3 22q0 6 -2 16t-8 16q-8 8 -23 14q-11 5 -33 9q-20 4 -47 4q-23 0 -47 -3q-49 -5 -97.5 -21t-88.5 -42q-34 -22 -56.5 -51t-22.5 -63q0 -5 1.5 -10.5
t1.5 -11.5q0 -9 -9 -9t-20.5 8.5t-13.5 17.5t-2 25q0 46 30 83t78 64q49 27 106.5 41.5t114.5 15.5q53 0 99 -17z" />
    <glyph glyph-name="Q" unicode="Q" horiz-adv-x="451" 
d="M107 471q13 -1 24.5 -14.5t6.5 -23.5q-32 -65 -51 -119.5t-19 -107.5q0 -42 16 -65q2 -3 7 -6q8 -4 15 -4q39 -5 90 36q-26 32 -40 59q-5 9 8 22t25 13q8 0 11 -6q16 -30 35 -52q31 34 61 82q43 67 69.5 138.5t27.5 139.5q0 33 -7 52q-3 8 -9 15l-6 5q-15 7 -36 7
q-26 0 -55 -10.5t-52 -25.5q-71 -48 -121 -135zM90 539q36 54 82 92t101 49q17 4 39 4q62 0 95 -43q29 -36 29 -98q0 -17 -1 -25q-7 -81 -42.5 -163t-89.5 -153q-16 -22 -30 -36q64 -48 137 -48q29 0 56 7l5 1q11 0 11 -12q0 -10 -9.5 -19t-20.5 -11q-33 -9 -64 -9
q-82 0 -153 55q-52 -43 -99 -43q-29 0 -55 17q-59 40 -59 122q0 40 16 97q-11 5 -20 16.5t-8 20.5q19 88 80 179z" />
    <glyph glyph-name="R" unicode="R" horiz-adv-x="465" 
d="M18.5 440q-5.5 8 -7.5 17q-1 6 -1 18q0 46 33 83.5t82 65.5q51 30 109.5 46.5t114.5 16.5q53 0 96.5 -18.5t62.5 -59.5q12 -25 12 -50q0 -43 -28.5 -86t-68.5 -76q-61 -50 -135.5 -79t-150.5 -30q74 -74 158 -120t171 -46q33 0 64 7l5 1q10 0 10 -10t-9.5 -20t-19.5 -12
q-38 -8 -72 -8q-86 0 -169 41t-156 110l-15 -56q-12 -48 -12 -74q0 -11 1 -17v-2q0 -8 -10 -8q-12 0 -22 10t-12 22l-1 15q0 29 12 77q11 44 19 73q-18 18 -36 41q-3 3 -3 8q0 10 11.5 21t21.5 11q6 0 9 -4l14 -16h3q47 145 94 245q3 7 10 7q12 0 24.5 -14t7.5 -24
q-44 -95 -83 -212q69 7 134.5 38t117.5 79q57 55 69 105q4 16 4 25q0 5 -2 17q-2 8 -4 12l-4 7q-12 16 -55 24q-18 3 -37 3q-26 0 -56 -5q-105 -16 -186 -72q-89 -62 -79 -132v-2q0 -8 -9 -8q-7 0 -12 3q-9 4 -14.5 12z" />
    <glyph glyph-name="S" unicode="S" horiz-adv-x="467" 
d="M57 130q-1 -3 -1.5 -10.5t-1.5 -9.5q2 -1 10 -4q6 -1 19 -1q32 0 86 16q69 24 108 54q17 14 28 27.5t11 29.5q0 10 -3 14t-8 7.5t-7 5.5l-29 15q-54 -21 -87 -38q-78 -38 -112 -83q-9 -13 -13 -23zM72 229q45 36 123 69l4 2q-47 16 -78.5 32.5t-53.5 43.5q-23 29 -23 65
q0 43 30 86q46 63 144 110q106 52 192 52q76 0 105 -46q12 -17 12 -41q0 -25 -13.5 -51t-35.5 -55q-3 -4 -8 -4q-10 0 -21.5 11.5t-11.5 22.5q0 5 3 8q19 24 30.5 44.5t13.5 41.5q1 3 0.5 7l-0.5 4l-1 5l-3 1l-6 3q-21 6 -44 6q-47 0 -127 -28q-102 -37 -164 -98
q-20 -20 -37 -47.5t-17 -52.5q0 -16 8 -28t24 -20.5t31.5 -15t21.5 -8.5l33 -12q21 -7 46 -17q105 36 189 36q13 0 39 -2q10 -1 18 -7.5t12 -14.5q3 -4 3 -11q0 -12 -11 -11q-13 2 -41 2q-70 0 -148 -24q49 -36 49 -78q0 -19 -15 -42q-23 -34 -84 -63q-61 -30 -117 -38
q-28 -4 -43 -4q-29 0 -51 11q-18 10 -28.5 26.5t-10.5 35.5q0 49 62 94z" />
    <glyph glyph-name="T" unicode="T" horiz-adv-x="351" 
d="M578 624v1v-1zM202 653q124 28 223 28q52 0 95 -7q65 -10 90 -42q11 -14 11 -30q0 -21 -20 -41q-3 -3 -9 -3q-11 0 -22 11t-11 21q0 5 4 9q8 6 12 15l3 6l-4 2q-24 10 -51 12.5t-65 2.5q-56 0 -120 -8q11 -6 18.5 -16.5t3.5 -17.5q-32 -53 -58 -113.5t-55 -140.5
q-29 -79 -43 -142q-11 -49 -11 -69q0 -11 3 -19q3 -7 3 -11q0 -9 -10 -9q-8 0 -17 6t-13 15q-8 19 -8 43q0 16 3 33.5t4 22.5q11 59 40 143q58 168 119 272q-159 -20 -269 -81q-9 -5 -23.5 7t-14.5 24q0 8 7 11q75 40 185 66zM583 617l-1 1z" />
    <glyph glyph-name="U" unicode="U" horiz-adv-x="498" 
d="M60 110h-0.5h-0.5q0 -1 1 0zM30.5 320.5q20.5 76.5 56.5 163.5q30 73 63 126q17 24 31 39t32 18q11 2 24 -11.5t13 -23.5q0 -5 -6 -7q-18 -4 -31 -19.5t-31 -43.5q-32 -54 -64 -136q-30 -82 -47 -147.5t-17 -127.5q0 -11 2 -31q1 -1 1 -2.5t1 -2.5l13 -2q8 1 17 5
q20 7 43 27q53 45 93 102.5t97 153.5q41 68 78 135q56 98 85 146q3 7 11 7q4 0 10 -3q11 -5 18.5 -16.5t2.5 -18.5q-8 -16 -14.5 -30t-11.5 -26q-50 -107 -81.5 -179t-56.5 -147q-12 -36 -17.5 -59.5t-5.5 -47.5q0 -15 6 -35q1 -2 1 -5q0 -11 -12 -11q-10 0 -19 9t-12 19
q-7 18 -7 43q0 50 23 115q-61 -93 -103 -142q-26 -30 -49 -50t-49 -30q-12 -5 -29 -5q-38 0 -60 29q-19 25 -19 73q0 72 20.5 148.5z" />
    <glyph glyph-name="V" unicode="V" horiz-adv-x="427" 
d="M10 222q0 46 10 94t27 106q24 78 53 135q16 30 31.5 51t35.5 35q3 3 8 3q11 0 22.5 -12t11.5 -22q0 -4 -4 -7q-38 -27 -68 -91q-31 -61 -53 -143q-19 -66 -26 -128q-4 -36 -4 -56q0 -24 6 -47q1 -6 6 -16h6q22 1 53 26q41 34 75 79t73 107q91 148 181 357q3 7 10 7
q12 0 24 -14t8 -24q-108 -252 -218 -414q-42 -62 -76 -101.5t-78 -59.5q-15 -6 -29 -6q-28 0 -49.5 22t-28.5 54q-7 29 -7 65z" />
    <glyph glyph-name="W" unicode="W" horiz-adv-x="619" 
d="M53 121zM84 485q20 55 41 97q3 5 9 16.5t12 19.5t13 13q2 2 8 2q11 0 22.5 -11t11.5 -21q0 -5 -4 -8q-9 -6 -15.5 -16.5t-11.5 -20.5t-6 -13q-17 -33 -43 -103q-43 -123 -60 -218q-7 -37 -7 -66q0 -13 1 -20q0 -4 2 -14q2 -2 2 0q18 3 32.5 15.5t34.5 34.5q37 46 73 104
q42 68 99 178l24 45q3 9 13 6q12 -2 23 -15t7 -22q-26 -84 -37 -179q-7 -54 -4 -97q2 -26 6 -39q0 -1 5 -13h1q14 3 20 7q23 15 51 53q54 71 102 189q23 59 37.5 106t18.5 93q2 20 0 39q-1 8 -3 13t-9 5q-4 0 -16 -4q-10 -4 -23.5 9t-13.5 24q0 8 7 9q15 5 26 5q35 0 57 -30
q19 -26 19 -67q0 -60 -18 -122t-49 -132q-26 -63 -55 -113.5t-65 -89.5q-35 -37 -62 -37q-20 0 -36.5 13.5t-26.5 32.5q-18 36 -18 93q0 30 6 82v3q-39 -71 -78 -130q-4 -5 -26 -37t-49.5 -54t-52.5 -22q-14 0 -27 7q-42 22 -42 90q0 22 7 69q17 106 67 241zM59 117.5
q0 0.5 -1 0.5v-1q1 0 1 0.5z" />
    <glyph glyph-name="X" unicode="X" horiz-adv-x="481" 
d="M134 584q-1 9 11.5 20t22.5 11t11 -11q3 -44 29 -115q15 -44 43 -103q160 160 329 273q2 2 8 2q11 0 22.5 -11.5t11.5 -20.5q0 -5 -4 -8q-103 -69 -206 -159q-72 -63 -134 -126q56 -98 129 -160t160 -62q27 0 59 8l5 1q4 0 7 -3t3 -8q0 -11 -9 -20t-20 -11q-29 -8 -66 -8
q-56 0 -109 24q-110 52 -197 201q-109 -114 -190 -226q-3 -4 -8 -4q-7 0 -16.5 7.5t-14 17.5t0.5 17l34 44q80 102 167 193q-70 133 -79 237z" />
    <glyph glyph-name="Y" unicode="Y" horiz-adv-x="417" 
d="M14 114.5q-4 7.5 -4 13.5q0 5 3 8.5t8 3.5q6 0 15 -6q20 -12 41 -12q35 0 71 29q54 44 89.5 111.5t72.5 165.5l11 28l-37 -58q-46 -66 -76 -97q-21 -22 -41.5 -35.5t-43.5 -13.5q-35 0 -54.5 32t-19.5 70q0 82 49 197q19 46 40 78q11 16 20 24t21 9q10 1 21.5 -11.5
t11.5 -22.5q0 -9 -11 -10q2 0 0 -0.5t-3 -1.5l-9 -8q-7 -8 -19 -26q-22 -39 -39 -83q-18 -48 -28.5 -88.5t-10.5 -79.5q0 -12 5 -25t20 -8q11 4 29 18q37 30 66.5 71t67.5 104q51 83 104 191q1 7 10 7q12 0 24.5 -14t7.5 -24q-8 -52 -32 -128q-28 -98 -61.5 -180.5
t-79.5 -151.5q-25 -36 -49 -61.5t-54 -39.5q-22 -11 -49 -11q-38 0 -76 24q-7 4 -11 11.5z" />
    <glyph glyph-name="Z" unicode="Z" horiz-adv-x="545" 
d="M132 472q-6 8 -7 17q-10 96 198 144q87 20 162 20q54 0 88 -12q21 -9 36.5 -25t15.5 -35q0 -6 -1 -10q-6 -20 -21.5 -38.5t-31.5 -34.5t-23 -22q-61 -58 -129 -110.5t-170 -125.5l-113 -81q78 16 158 24q52 6 87 6q111 0 159 -54q6 -6 10 -15t-1 -14q-3 -3 -8 -3
t-11.5 3.5t-10.5 7.5q-13 15 -35 20.5t-51 7.5q-30 2 -44 2q-32 0 -92 -6q-118 -14 -250 -51q-11 -3 -24 8t-13 23q0 6 2 9q8 12 20 21.5t32 23.5q6 4 11 7.5t8 5.5q73 54 140 101q95 69 157 117t119 101q5 5 24.5 22.5t34 35t21.5 33.5v2q0 4 -16 8q-31 6 -66 6
q-79 0 -177 -29q-63 -18 -109.5 -44.5t-42.5 -70.5v-2q0 -8 -10 -8q-5 0 -11 2q-9 5 -15 13z" />
    <glyph glyph-name="bracketleft" unicode="[" horiz-adv-x="189" 
d="M165 535zM5 249q0 34 11 82q12 60 38 125q19 50 40 86t50 36q10 0 18 -4q8 -5 15 -12.5t7 -15.5q0 -12 -11 -12q-5 0 -8 1q-2 0 -3 -1q-6 -4 -11 -9q-12 -12 -25 -36q-26 -45 -49 -117q-23 -73 -28 -126l-1 -17q0 -7 2 -23q9 -2 18 -13t9 -20q0 -10 -15 -10q-23 0 -38 20
t-18 45q-1 7 -1 21z" />
    <glyph glyph-name="backslash" unicode="\" horiz-adv-x="203" 
d="M143 413.5q38 -96.5 55 -198.5q1 -11 -12.5 -23.5t-23.5 -12.5q-7 0 -8 7q-16 100 -53 194.5t-93 169.5q-3 3 -3 8q0 10 12 21t22 11q6 0 9 -4q57 -76 95 -172.5z" />
    <glyph glyph-name="bracketright" unicode="]" horiz-adv-x="218" 
d="M160 570q20 0 35 -18.5t17 -40.5q1 -6 1 -18q0 -20 -4.5 -44t-10.5 -46q-19 -72 -46 -134q-24 -54 -47 -90.5t-54 -36.5q-15 0 -29 11q-8 5 -14 14.5t-2 16.5q3 6 10 6t14 -5l10 5q14 10 27 31q29 40 49 90t37 111q15 58 16 94v8q-10 1 -20.5 12.5t-10.5 20.5q0 7 6 10
q9 3 16 3z" />
    <glyph glyph-name="asciicircum" unicode="^" horiz-adv-x="138" 
d="M113.5 571q7.5 -4 14 -11.5t5.5 -12.5l-15 -141q-1 -8 -7 -8q-8 0 -17.5 9t-8.5 16l6 56l-55 -87q-4 -6 -13 -1.5t-14.5 13.5t-1.5 16l95 149q4 6 11.5 2z" />
    <glyph glyph-name="underscore" unicode="_" horiz-adv-x="287" 
d="M282 155q0 -13 -11 -13q-5 0 -10 3q-18 12 -53 12q-66 0 -165 -28q-11 -4 -24.5 9t-13.5 24q0 8 7 9q50 14 90.5 21.5t79.5 7.5q48 0 78 -17q22 -16 22 -28z" />
    <glyph glyph-name="grave" unicode="`" horiz-adv-x="68" 
d="M62 481q4 -7 -5.5 -17t-18.5 -10q-5 0 -8 5l-24 50q-4 7 6 17t19 10q6 0 8 -5q19 -41 23 -50z" />
    <glyph glyph-name="a" unicode="a" horiz-adv-x="295" 
d="M98 326q-5 9 -18 9q-7 0 -9 -2q-17 -11 -35 -32q-19 -24 -29 -45q40 19 91 70zM-29.5 301q19.5 36 47.5 60q24 21 49 21q32 0 53 -32q3 3 8 3q11 0 23.5 -14t9.5 -24q-3 -18 -11 -40q-10 -31 -11 -38q3 0 4 1q15 3 28.5 10.5t32.5 19.5q39 27 98 80q4 4 10 4
q7 0 12.5 -6.5t5.5 -14.5q0 -7 -5 -12q-50 -53 -92.5 -89.5t-77.5 -36.5q-20 0 -36 13.5t-21 32.5q-2 8 -2 12q-60 -47 -112 -54q-11 -1 -22.5 10.5t-11.5 22.5q1 35 20.5 71z" />
    <glyph glyph-name="b" unicode="b" horiz-adv-x="215" 
d="M68 276q-18 -20 -26 -31l2 0.5t4 -0.5q16 -2 30.5 13t29.5 37q13 17 21 38q-4 -2 -16 -12q-19 -16 -45 -45zM142 662q3 7 10 7q12 0 24.5 -14t7.5 -24q-76 -144 -129 -290q20 20 38 32.5t37 12.5q15 0 30 -12q19 -16 19 -40q0 -22 -23 -62q-20 -31 -38.5 -51t-41.5 -20
q-11 0 -21.5 6.5t-14.5 16.5q-4 7 -2 16q-26 -38 -35 -58q-3 -7 -9 -7q-12 0 -25 13.5t-8 24.5q66 232 181 449z" />
    <glyph glyph-name="c" unicode="c" horiz-adv-x="214" 
d="M-35 251q0 29 15 54q15 28 35 49t42 21q12 0 23 -7q15 -10 15 -25q0 -6 -3.5 -9t-10.5 -2h-2q-5 0 -11 -5q-9 -5 -18 -16q-23 -23 -34 -48q-2 -4 -2 -7q0 -4 3 -6t7 -1q93 27 198 97q5 3 9 3q5 0 9 -5t4 -11q0 -10 -7 -14q-58 -43 -129.5 -84t-103.5 -34q-39 8 -39 50z
" />
    <glyph glyph-name="d" unicode="d" horiz-adv-x="249" 
d="M46 276.5q14 15.5 37 45.5q2 4 8 12q-3 3 -8 3q-11 0 -25.5 -15.5t-23.5 -29.5q-15 -25 -20 -41q18 10 32 25.5zM-35 247q0 23 12 49t28 46q27 35 59 35q23 0 45 -19q43 63 110 181q30 63 66 123q3 6 11 6q12 0 24.5 -14t6.5 -23l-66 -123q-28 -55 -54 -121
q-24 -59 -38 -114q-11 -44 -11 -64q0 -5 1 -11t1 -12q0 -10 -9 -10t-20.5 9t-12.5 18q-2 20 -2 30q0 22 5 52l-3 -4q-29 -37 -54 -59.5t-57 -22.5q-13 0 -23.5 8t-15.5 20q-3 9 -3 20z" />
    <glyph glyph-name="e" unicode="e" horiz-adv-x="240" 
d="M71 321q-14 -5 -22 -10l-16 -12q20 2 34 10q13 8 17 15q1 2 -13 -3zM-45 256q0 23 13.5 46.5t33.5 39.5q33 26 65 26q11 0 17 -2q18 -5 31.5 -20.5t13.5 -33.5q0 -27 -39 -37.5t-81 -7.5l-7 -14q-6 -18 -4 -19q29 -4 79 15q41 16 80 39t89 57q5 3 10 3q6 0 10 -5t4 -11
q0 -7 -6 -13q-158 -126 -239 -126q-32 0 -52 20q-18 18 -18 43z" />
    <glyph glyph-name="f" unicode="f" horiz-adv-x="162" 
d="M13 164q0 17 -1 25q-1 4 -2.5 13.5t-4.5 15.5q-11 -28 -22 -62q-24 -75 -28 -126q-1 -7 -1 -22q0 -17 2 -26v-1q38 50 52 129q5 30 5 54zM41 410q3 4 8 4q9 0 20.5 -11.5t11.5 -22.5q0 -6 -2 -8q-30 -47 -53 -100q39 7 76.5 26.5t67.5 47.5q4 4 10 4q5 0 9 -4.5t4 -9.5
q0 -7 -6 -13q-77 -83 -151 -96q21 -34 21 -88q0 -11 -2 -31q-6 -51 -24 -98.5t-50 -83.5q-3 -3 -7 -3q-3 0 -12 3q-52 31 -52 108q0 48 21 121q43 152 110 255z" />
    <glyph glyph-name="g" unicode="g" horiz-adv-x="249" 
d="M35 111q14 28 20 43q-64 -71 -94 -137q-15 -29 -19 -50q11 10 30 36q31 42 63 108zM-100 -19q0 68 87 164q43 51 101 97q2 6 2 7q-47 -38 -90 -50q-12 -3 -24.5 8.5t-12.5 24.5q-1 27 11 58.5t31 54.5q20 24 44 24q29 0 55 -31l2 3q4 4 9 4q10 0 20.5 -12.5t11.5 -21.5
q0 -17 -1 -25q54 36 110 61q6 2 7 2q7 0 11.5 -4.5t4.5 -9.5q0 -8 -10 -14q-77 -43 -133 -90q-2 -9 -8 -27q-20 -63 -53 -129q-30 -62 -66 -112q-17 -23 -30.5 -36.5t-30.5 -17.5q-8 -2 -17 3t-14 13q-17 25 -17 56zM84 317l-8 8q-8 10 -24 -8t-23 -31q-7 -12 -11 -23
q33 19 66 54z" />
    <glyph glyph-name="h" unicode="h" horiz-adv-x="319" 
d="M-20 258q0 26 9.5 54t10.5 33q45 141 151 319q5 6 11 6q12 0 24.5 -14t6.5 -23q-98 -168 -141 -291q-9 -24 -14 -43q44 46 79 68q26 17 42 17q13 0 24 -8q22 -16 22 -47q0 -18 -12 -50q-8 -22 -10 -33q23 7 57 31q39 28 86 69q4 4 10 4q5 0 9 -4.5t4 -11.5q0 -8 -5 -13
l-18 -20q-40 -43 -64.5 -64t-56.5 -32q-14 -4 -21 -4q-17 0 -29 11t-16 32q-1 4 -1 13q0 18 9 43q8 20 11 30q-32 -19 -56 -42.5t-62 -66.5q-1 -1 -14 -17q-3 -3 -7 -3t-9 2t-8 5q-22 17 -22 50z" />
    <glyph glyph-name="i" unicode="i" horiz-adv-x="148" 
d="M164 351q6 0 10 -5.5t4 -12.5q0 -8 -4 -13q-92 -118 -148 -118q-14 0 -25 7q-26 16 -26 49q0 27 13 56t33 64q5 6 11 6q12 0 24.5 -13.5t7.5 -23.5q-19 -33 -33 -69q-3 -7 -3 -16q0 -6 2.5 -9t6.5 -2q18 7 35 20q41 27 83 75q5 5 9 5zM55 443q1 3 5 5q2 1 5 1q6 0 16 -6
q10 -8 14 -16q4 -11 2 -15l-8 -14q-2 -4 -6 -5l-4 -1q-9 0 -16 7q-9 4 -14 15t-2 15q1 2 8 14z" />
    <glyph glyph-name="j" unicode="j" horiz-adv-x="135" 
d="M-68 141q-49 -57 -81 -124q-18 -31 -19 -56q11 8 21.5 23t17.5 28q29 46 58 122zM-210 -19q0 68 87 164q39 45 89 87q16 46 34 104l14 42q1 7 9 7q11 0 24 -13.5t9 -24.5l-20 -61q56 37 110 61q8 4 13.5 -0.5t5.5 -11.5q0 -10 -11 -17q-75 -43 -139 -95q-27 -83 -50 -136
q-34 -82 -63 -125q-17 -24 -32.5 -38t-36.5 -16q-6 -1 -14.5 5t-11.5 12q-17 25 -17 56zM32 447q3 6 11 6q6 0 16 -6q8 -7 13 -16q5 -7 3 -15l-3 -14q-1 -6 -10 -6q-8 0 -17 7q-8 5 -13 15q-4 8 -3 15z" />
    <glyph glyph-name="k" unicode="k" horiz-adv-x="238" 
d="M30 267q-9 -31 -6 -55v-2q0 -8 -9 -8q-7 0 -12 3q-9 4 -15 12t-7 17q-1 5 -1 14q0 19 11 61q11 46 36 115q53 145 110 240q5 6 11 6q12 0 24.5 -14t6.5 -23q-54 -89 -108 -234l-24 -70q57 18 83 53q4 4 8 4q10 0 21.5 -11.5t11.5 -22.5q0 -5 -3 -8q-18 -24 -47.5 -40
t-62.5 -23q14 -21 32 -31q14 -7 29 -7q58 0 130 103q5 6 8 6q5 0 8 -4.5t3 -11.5q0 -8 -4 -13l-12 -17q-36 -51 -62.5 -77t-60.5 -26q-19 0 -38 10q-34 17 -61 54z" />
    <glyph glyph-name="l" unicode="l" horiz-adv-x="158" 
d="M40 288q-1 -3 -1 -11q0 -11 4 -19t10 -5q30 14 58.5 39t50.5 54q4 5 10 5t11 -5.5t5 -12.5q0 -6 -4 -11q-28 -38 -54 -65t-56 -40q-22 -10 -38 -10q-29 0 -42 32q-4 12 -4 28q0 20 5.5 43t6.5 27q42 163 132 327q3 7 11 7q12 0 24 -14.5t7 -23.5q-98 -178 -136 -345z" />
    <glyph glyph-name="m" unicode="m" horiz-adv-x="440" 
d="M23 374q12 0 24.5 -14t7.5 -23q-7 -13 -19 -39q2 2 34 28q6 5 21.5 18t30 21.5t27.5 8.5q17 0 26 -11.5t11 -29.5q21 19 42 32q3 2 13 9t20 11t18 4t15 -3q15 -7 23 -21.5t8 -30.5q0 -15 -5 -29.5t-6 -17.5q-7 -21 -8 -25q-2 -10 -2 -14q23 3 60 28q41 27 82 70q5 5 10 5
q6 0 10.5 -5t4.5 -12q0 -6 -6 -12l-22 -23q-35 -37 -61.5 -58.5t-57.5 -28.5q-12 -2 -18 -2q-36 0 -45 44q-1 4 -1 12q0 17 13 54q3 6 3 14l-6 -4q-29 -17 -52.5 -40.5t-56.5 -61.5l-14 -16q-3 -4 -8 -4q-10 0 -22 12q-7 7 -10 14t0 13v1q9 16 24 57q-6 -4 -30 -23
q-47 -37 -95 -85q-3 -4 -8 -4q-11 0 -23 12.5t-10 21.5q10 71 47 140q3 7 11 7z" />
    <glyph glyph-name="n" unicode="n" horiz-adv-x="319" 
d="M144 307l6 13q-2 0 -2 -1q-8 -6 -42 -32l-75 -67l-25 -23q-3 -3 -9 -3q-12 0 -24.5 14.5t-6.5 24.5q10 65 46 134q3 7 11 7q12 0 24.5 -14t7.5 -23q-12 -22 -18 -38q47 42 86 67q2 1 14.5 8.5t24.5 7.5q6 0 12 -3q13 -5 21 -17t8 -26q0 -17 -12 -47q-8 -25 -10 -35
q-1 -6 2 -6q35 7 67 32t73 66q5 5 10 5q7 0 12 -5.5t5 -13.5q0 -5 -5 -12q-37 -43 -79 -79.5t-75 -36.5q-4 0 -12 2q-19 7 -31 23.5t-12 35.5q0 14 8 42z" />
    <glyph glyph-name="o" unicode="o" horiz-adv-x="176" 
d="M65 295.5q10 17.5 10 31.5q0 6 -3 12l-2 5l-6 -6q-12 -11 -23 -29q-21 -40 -22 -66q13 8 25 23q11 12 21 29.5zM-25 261q0 33 25 81q29 49 61 49q11 0 20 -4q10 -4 16 -16.5t3 -19.5q6 -6 10 -12q6 -13 6 -29q0 -25 -14 -52t-35.5 -44.5t-41.5 -17.5q-28 0 -44 34
q-6 15 -6 31z" />
    <glyph glyph-name="p" unicode="p" horiz-adv-x="226" 
d="M95 258.5q22 31.5 32 63.5q-30 -20 -62 -65q-12 -16 -17 -25q25 -5 47 26.5zM15 371q3 7 11 7q12 0 24 -14t8 -24l-8 -16l16 16q18 18 36 29t37 7q37 -10 37 -53q0 -27 -15.5 -59t-40 -53.5t-49.5 -21.5q-5 0 -13 2q-6 1 -12.5 7.5t-10.5 14.5q-71 -113 -113 -288
q-1 -7 -8 -7q-10 0 -23 13.5t-11 24.5q39 214 135 415z" />
    <glyph glyph-name="q" unicode="q" horiz-adv-x="213" 
d="M26 292q-17 -21 -24 -37q39 20 81 62q-6 6 -9 12l-1 -1q-3 -1 -7 -2.5t-8 -3.5q-13 -7 -32 -30zM-38 288.5q17 34.5 43.5 58.5t51.5 24q29 0 48 -32l7 8q3 3 8 3q7 0 15 -5t13 -13q7 -12 4 -19l-1 -2q-36 -79 -60 -142t-38 -126q-12 -46 -12 -84q0 -17 2 -26l1 -6l1 -1
q4 -4 7 -9.5t3 -10.5t-3 -8t-8 -3t-11 3.5t-10 7.5q-26 26 -26 75q0 27 8 67q16 81 55 182q-44 -29 -83 -34q-10 -1 -21 10.5t-11 21.5q0 26 17 60.5z" />
    <glyph glyph-name="r" unicode="r" horiz-adv-x="203" 
d="M153.5 361q8.5 -8 9.5 -17v-4q0 -6 -4 -9.5t-11 -1.5q-8 2 -12 2q-17 0 -33 -12.5t-39 -35.5q-42 -46 -62 -89q-3 -7 -10 -7q-10 0 -22 14t-10 24q14 72 55 144q3 7 11 7q9 0 19 -8.5t13 -17.5q29 24 58 24q10 0 20 -3q9 -2 17.5 -10z" />
    <glyph glyph-name="s" unicode="s" horiz-adv-x="190" 
d="M48 220l-14 -14q-12 -14 -17 -26q10 5 20 17q10 13 11 23zM-30 187q0 20 13.5 38.5t33.5 31.5l15 9q-13 20 -19.5 32.5t-6.5 26.5q0 29 22.5 46t52.5 17q12 0 27 -5q9 -3 17.5 -10.5t9.5 -15.5v-4q0 -7 -4 -10.5t-11 -0.5t-17 3q-14 0 -27.5 -6.5t-20.5 -17.5
q-6 -9 -6 -17q0 -12 10 -24q36 17 77 31t47 16l19 6h3q6 0 10.5 -5t4.5 -11q0 -8 -8 -11q-85 -30 -130 -59q10 -22 10 -40t-8.5 -34.5t-24.5 -27.5q-19 -13 -37 -13q-31 0 -46 31q-6 12 -6 24z" />
    <glyph glyph-name="t" unicode="t" horiz-adv-x="152" 
d="M-106.5 457q-13.5 13 -13.5 23q0 8 7 9q81 24 185 36q26 59 68 137q3 7 11 7q12 0 24 -14.5t7 -23.5q-25 -46 -51 -101q4 1 11 1q38 2 60 2q87 0 138 -26q8 -4 15 -12.5t7 -16.5q0 -11 -11 -11q-3 0 -11 2q-38 21 -109 21q-19 0 -53 -2l-21 -1q-32 -2 -47 -4
q-49 -114 -74 -212q-17 -70 -20 -122q-1 -19 0 -39q1 -11 5 -19q3 -4 3 -10q0 -11 -13 -11q-15 0 -27 22q-12 19 -12 57q0 56 18 135q21 93 61 192q-76 -12 -133 -29q-11 -3 -24.5 10z" />
    <glyph glyph-name="u" unicode="u" horiz-adv-x="285" 
d="M31 286q-13 -28 -16 -44l16 9q23 15 43 33.5t49 47.5l36 34q5 3 9 3q11 0 22.5 -14t8.5 -24q-10 -30 -18 -65q-1 -3 -2 -7.5t-2 -10.5q2 0 4 2q14 6 31 20q31 25 77 76q5 5 10 5q7 0 12 -5.5t5 -12.5q0 -6 -5 -11q-35 -44 -74 -82.5t-64 -38.5q-6 0 -11 3q-31 17 -31 59
q-25 -24 -45.5 -39.5t-42.5 -25.5q-9 -4 -21 -4q-22 0 -37 16t-15 42t18 64q9 20 18.5 33.5t22.5 13.5q9 0 18 -6.5t14 -15.5q2 -6 2 -11q0 -12 -10 -11l-1 -1q-3 -2 -7 -8q-7 -8 -14 -24z" />
    <glyph glyph-name="v" unicode="v" horiz-adv-x="226" 
d="M2 347q9 21 25 21q11 0 23 -13t12 -22q0 -5 -6 -7q-11 -2 -18.5 -27t-8.5 -28q-1 -5 -3 -11.5t-4 -13.5l8 5q19 15 39 35q44 49 64 99q3 7 9 7q12 0 24.5 -14t8.5 -24q-14 -36 -38 -69t-53 -59q-37 -33 -64 -33q-14 0 -26 9q-19 15 -19 42q0 15 9 49q9 33 18 54z" />
    <glyph glyph-name="w" unicode="w" horiz-adv-x="331" 
d="M45 315q-6 -11 -9.5 -20.5t-4.5 -12.5l-6 -17q9 7 27 23q40 39 81 91q3 4 8 4q11 0 23.5 -15t8.5 -24q-16 -44 -21 -77q-2 -5 0 -13l2 1q29 22 50.5 61.5t33.5 82.5q1 7 9 7q11 0 24 -13.5t10 -24.5q-16 -54 -52 -107q-16 -25 -33 -41.5t-37 -16.5q-23 0 -37.5 19
t-15.5 44q-23 -25 -46 -41q-25 -20 -43 -20q-17 0 -30 16q-12 15 -12 36q0 19 10 47q9 27 18.5 45t25.5 21q11 3 24 -10t13 -24q0 -6 -6 -8q-9 -2 -15 -13z" />
    <glyph glyph-name="x" unicode="x" horiz-adv-x="251" 
d="M-26 199.5q-14 12.5 -14 24.5q0 8 7 11q31 16 63 43q-8 17 -16 40t-11 32q-4 10 8.5 23t24.5 13q8 0 11 -7q18 -51 23 -63q34 39 60 79q3 4 8 4q10 0 21 -11.5t11 -22.5q0 -6 -2 -8q-34 -52 -70 -88l6 -6q14 -13 32 -13q29 0 57 27.5t56 65.5q7 10 17 10q6 0 10.5 -4
t4.5 -10q0 -5 -2 -8q-25 -41 -42.5 -65.5t-45 -46.5t-58.5 -22q-28 0 -54 18q-12 8 -21 18q-31 -24 -60 -41q-10 -5 -24 7.5z" />
    <glyph glyph-name="y" unicode="y" horiz-adv-x="283" 
d="M78 124l15 31l-11 -11q-22 -23 -46 -59t-40 -68q-15 -29 -19 -50q10 9 20 23t13 18q33 45 68 116zM-65 -19q0 68 87 164q48 54 109 104l3 6l6 19q-28 -28 -51.5 -46.5t-48.5 -29.5q-9 -4 -21 -4q-22 0 -37 16t-15 41q0 27 18 65q9 20 18.5 33.5t22.5 13.5q10 0 19 -6.5
t13 -15.5q2 -6 2 -12q0 -11 -9 -10l-2 -1l-7 -8q-9 -12 -14 -24q-13 -28 -15 -44l15 9q32 22 89 77l39 37q0 1 1 1q2 2 8 2q11 0 23 -13t9 -23v-10q0 -9 -2 -27q51 33 96 52q9 4 15.5 -1.5t6.5 -14.5q0 -10 -10 -16q-66 -35 -124 -81q-2 -4 -2 -7q-20 -61 -59 -140
q-43 -81 -73 -121q-19 -26 -32 -39.5t-30 -17.5q-8 -2 -17 3t-14 13q-17 25 -17 56z" />
    <glyph glyph-name="z" unicode="z" horiz-adv-x="250" 
d="M-31.5 203.5q-13.5 11.5 -13.5 22.5q0 7 7 10q56 29 92 50.5t69 47.5q-77 -10 -84 -36q-3 -7 -9 -7q-11 0 -24 13.5t-10 24.5q8 26 41.5 36.5t70.5 12.5q6 1 18 1q22 0 38 -8q11 -6 18.5 -16t7.5 -21q0 -10 -8.5 -19t-23.5 -21q-24 -18 -53 -36q19 0 32 -4q9 -3 17 -10.5
t10 -16.5v-2q0 -7 -4 -11.5t-11 -1.5q-10 3 -22 3t-27 -2.5l-21 -3.5q-45 -6 -86 -15q-11 -2 -24.5 9.5z" />
    <glyph glyph-name="braceleft" unicode="{" horiz-adv-x="198" 
d="M175 571.5q11 -6.5 15 -16.5q3 -4 3 -11q0 -5 -2.5 -8.5t-7.5 -2.5q-24 3 -35 -17t-16 -42t-7 -29q-7 -31 -16 -51.5t-27 -31.5q4 -9 4 -23q0 -24 -13 -57l-9 -22q-9 -20 -15 -40l-1 -13h6q10 -1 21 -13.5t11 -22.5q0 -8 -10 -8q-32 1 -51.5 20t-19.5 47q0 14 4 26
q5 17 14 38q2 5 5.5 12.5t6.5 17.5q7 17 8 31q1 1 0.5 4t-0.5 5q-14 14 -14 26q0 8 10 9q20 3 30 26t14.5 46t6.5 31q8 33 22 54.5t41 21.5q11 0 22 -6.5z" />
    <glyph glyph-name="braceright" unicode="}" horiz-adv-x="209" 
d="M166 402v-3q2 1 0 3zM53.5 205q14.5 15 21 34t14.5 52q8 38 17 62t28 41q-10 16 -10 36q0 17 6 33q10 26 16 38l8 19l3 8q-7 4 -13 12q-7 14 -7 19q0 7 7 8l10 1q33 0 46 -28q4 -8 4 -19q0 -14 -6 -28l-12 -29q-10 -20 -14 -31q-3 -9 -4 -16t-2 -11v-1q8 -3 16.5 -13
t8.5 -18q0 -7 -7 -10q-23 -11 -33.5 -35t-18.5 -64l-6 -28q-10 -41 -31 -65.5t-58 -25.5q-10 0 -21 12.5t-11 22.5q0 9 10 9q24 0 38.5 15z" />
    <glyph glyph-name="asciitilde" unicode="~" horiz-adv-x="192" 
d="M154 370q11 0 22.5 -11t11.5 -21q0 -6 -4 -9q-22 -22 -47 -22q-16 0 -36 12q-5 3 -13 9.5t-10 6.5q-12 2 -32 -24q-4 -4 -8 -4q-10 0 -21.5 12t-11.5 22q0 5 3 8q23 28 48 28q16 0 32 -10q4 -3 12 -10t12 -8q8 -2 15 3t19 15q3 3 8 3z" />
    <glyph glyph-name="cent" unicode="&#xa2;" horiz-adv-x="201" 
d="M188 457.5q8 -14.5 8 -30.5q0 -4 -2 -14q-1 -7 -8 -7q-10 0 -23 13.5t-11 24.5v6q-19 0 -23 -2q-22 -7 -39.5 -25t-27.5 -41q-16 -35 -16 -58q0 -20 12 -28q6 -5 17 -5t21.5 7t15.5 18q3 7 10 7q12 0 24 -14t8 -24q-9 -21 -27.5 -29.5t-41.5 -5.5q-6 -15 -16 -45
q-3 -7 -9 -7q-12 0 -24.5 13.5t-8.5 24.5l12 36q-34 30 -34 77q0 29 15 64q15 32 41 55.5t58 26.5q6 15 16 47q3 7 9 7q11 0 24 -14t9 -24q-6 -20 -10 -29q13 -10 21 -24.5z" />
    <glyph glyph-name="sterling" unicode="&#xa3;" horiz-adv-x="273" 
d="M225 496zM37.5 272q13.5 16 23.5 34q7 12 17 38l-11 2q-9 2 -17.5 13.5t-8.5 20.5q0 11 14 8l35 -6q10 39 19 64.5t24 48.5q13 19 30.5 31t36.5 12q13 0 26 -6q19 -10 30.5 -28t11.5 -38q0 -13 -4 -22q-3 -7 -10 -7q-11 0 -23.5 13.5t-8.5 24.5q1 2 3 19q-3 -1 -7.5 -1
t-8.5 -1q-46 -17 -68 -110v-2q31 2 61 9q11 4 24 -9t13 -24q0 -8 -7 -9q-48 -13 -103 -10q-16 -48 -34 -77q18 -2 25 -4q22 -6 30 -6q15 0 21 15q3 7 10 7q12 0 24.5 -14t8.5 -24q-13 -28 -40 -28q-5 0 -17 2q-41 9 -65 9q-26 0 -49 -8q-11 -4 -24.5 8.5t-13.5 23.5
q0 7 7 10q12 5 25.5 21z" />
    <glyph glyph-name="yen" unicode="&#xa5;" horiz-adv-x="242" 
d="M227.5 510q12.5 -14 8.5 -24q-12 -67 -50 -150q14 -14 14 -24q0 -8 -7 -9l-21 -4q7 -5 12 -12.5t5 -13.5q0 -8 -7 -9q-18 -6 -38 -6q-39 -60 -81 -60q-18 0 -35 11q-9 4 -16 12t-7 16q0 12 12 12q6 0 10 -3q10 -5 17 -5q19 0 39 22h-2q-9 2 -17.5 13.5t-8.5 20.5
q0 11 14 8q11 -2 33 -4l-10 2q-9 2 -17.5 13.5t-8.5 20.5q0 11 14 8q23 -6 51 -4q2 3 3.5 6l2.5 5q-12 -4 -18 -4q-20 0 -39 20q-19 19 -19 52q0 20 4 35q13 53 41 56q9 1 20.5 -11t11.5 -22q0 -9 -10 -10q-7 -1 -19 -37q-5 -18 -5 -32v-5h2q4 1 15 10q10 9 26 31
q24 35 46 82q1 7 10 7q12 0 24.5 -14z" />
    <glyph glyph-name="dieresis" unicode="&#xa8;" horiz-adv-x="105" 
d="M44 496q3 -7 2 -11l-8 -13q-2 -3 -5 -5h-3q-4 0 -12 5q-7 6 -10 12q-2 2 -2.5 5.5t0.5 5.5l8 13q2 4 4 5h3q6 0 13 -5q7 -6 10 -12zM67 508q2 4 5 5h3q7 0 12 -5q7 -6 10 -12q4 -8 2 -11l-8 -13q-2 -4 -4 -5h-4q-3 0 -6.5 2t-5.5 3q-7 6 -10 12q-3 7 -2 11z" />
    <glyph glyph-name="macron" unicode="&#xaf;" horiz-adv-x="109" 
d="M104 498q0 -4 -2 -8q-3 -6 -9 -10.5t-13 -4.5h-68q-7 0 -7 6q0 3 3 9t9 10.5t13 4.5h67q7 0 7 -7z" />
    <glyph glyph-name="acute" unicode="&#xb4;" horiz-adv-x="67" 
d="M37 537q9 0 18.5 -10.5t5.5 -18.5l-23 -49q-2 -5 -8 -5q-9 0 -18.5 10.5t-5.5 17.5l24 50q3 5 7 5z" />
    <glyph glyph-name="cedilla" unicode="&#xb8;" horiz-adv-x="107" 
d="M90 192q12 -12 12 -28q0 -17 -14 -36q-8 -9 -18.5 -15t-21.5 -6q-14 0 -28.5 11.5t-14.5 25.5q0 3 2 9q1 5 6 5q6 0 13 -5.5t11 -11.5q13 3 23 15q6 10 8 16h-2q-5 -1 -15 -5q-9 -4 -19.5 7t-7.5 20q8 24 17 35q4 5 12 1.5t14 -12t4 -14.5q10 -3 19 -12z" />
    <glyph glyph-name="Agrave" unicode="&#xc0;" horiz-adv-x="711" 
d="M444 426q33 3 67 3q24 0 36 -1l27 -2l18 45q51 117 93 198q-33 -19 -81 -67q-72 -67 -160 -176zM10 102q0 6 4 9.5t11 1.5q9 -3 18 -3q25 0 49 16t58 45q76 69 177 194q-91 -17 -157 -51q-9 -5 -23.5 7t-14.5 24q0 8 7 11q48 26 105.5 40t126.5 23l18 22q38 48 58 71
q44 52 78.5 88.5t71.5 67.5q33 29 65 46.5t65 18.5q11 0 25 -13.5t8 -23.5q-29 -48 -64 -122q-39 -78 -72 -159q12 -4 18 -7q8 -4 15 -12.5t7 -16.5q0 -11 -11 -11q-4 0 -10 2q-13 7 -32 10q-14 -34 -31 -82q-24 -71 -32 -120q-5 -25 -5 -45l2 -15l1 -4q7 -12 7 -16
q0 -7 -7 -11q-7 -3 -16 3t-14 13q-16 23 -16 57q0 19 3 37q12 76 54 188h-3q-65 2 -130 -6l-21 -3q-70 -86 -106 -128q-46 -53 -76.5 -84.5t-65.5 -57.5q-52 -40 -92 -40q-11 0 -26 5q-9 3 -17.5 10.5t-9.5 16.5v4zM755 783q4 -7 -5.5 -17t-18.5 -10q-5 0 -8 5l-24 50
q-4 7 6 17t19 10q6 0 8 -5q19 -41 23 -50z" />
    <glyph glyph-name="Aacute" unicode="&#xc1;" horiz-adv-x="711" 
d="M444 426q33 3 67 3q24 0 36 -1l27 -2l18 45q51 117 93 198q-33 -19 -81 -67q-72 -67 -160 -176zM10 102q0 6 4 9.5t11 1.5q9 -3 18 -3q25 0 49 16t58 45q76 69 177 194q-91 -17 -157 -51q-9 -5 -23.5 7t-14.5 24q0 8 7 11q48 26 105.5 40t126.5 23l18 22q38 48 58 71
q44 52 78.5 88.5t71.5 67.5q33 29 65 46.5t65 18.5q11 0 25 -13.5t8 -23.5q-29 -48 -64 -122q-39 -78 -72 -159q12 -4 18 -7q8 -4 15 -12.5t7 -16.5q0 -11 -11 -11q-4 0 -10 2q-13 7 -32 10q-14 -34 -31 -82q-24 -71 -32 -120q-5 -25 -5 -45l2 -15l1 -4q7 -12 7 -16
q0 -7 -7 -11q-7 -3 -16 3t-14 13q-16 23 -16 57q0 19 3 37q12 76 54 188h-3q-65 2 -130 -6l-21 -3q-70 -86 -106 -128q-46 -53 -76.5 -84.5t-65.5 -57.5q-52 -40 -92 -40q-11 0 -26 5q-9 3 -17.5 10.5t-9.5 16.5v4zM737 835q9 0 18.5 -10.5t5.5 -18.5l-23 -49q-2 -5 -8 -5
q-9 0 -18.5 10.5t-5.5 17.5l24 50q3 5 7 5z" />
    <glyph glyph-name="Acircumflex" unicode="&#xc2;" horiz-adv-x="711" 
d="M444 426q33 3 67 3q24 0 36 -1l27 -2l18 45q51 117 93 198q-33 -19 -81 -67q-72 -67 -160 -176zM10 102q0 6 4 9.5t11 1.5q9 -3 18 -3q25 0 49 16t58 45q76 69 177 194q-91 -17 -157 -51q-9 -5 -23.5 7t-14.5 24q0 8 7 11q48 26 105.5 40t126.5 23l18 22q38 48 58 71
q44 52 78.5 88.5t71.5 67.5q33 29 65 46.5t65 18.5q11 0 25 -13.5t8 -23.5q-29 -48 -64 -122q-39 -78 -72 -159q12 -4 18 -7q8 -4 15 -12.5t7 -16.5q0 -11 -11 -11q-4 0 -10 2q-13 7 -32 10q-14 -34 -31 -82q-24 -71 -32 -120q-5 -25 -5 -45l2 -15l1 -4q7 -12 7 -16
q0 -7 -7 -11q-7 -3 -16 3t-14 13q-16 23 -16 57q0 19 3 37q12 76 54 188h-3q-65 2 -130 -6l-21 -3q-70 -86 -106 -128q-46 -53 -76.5 -84.5t-65.5 -57.5q-52 -40 -92 -40q-11 0 -26 5q-9 3 -17.5 10.5t-9.5 16.5v4zM769 770v-2q0 -5 -7 -5q-3 0 -9 2q-6 3 -10.5 9t-5.5 13v1
l-27 -32q-5 -6 -14 -1t-14.5 14t-0.5 15l51 61q7 8 18.5 -3t12.5 -20z" />
    <glyph glyph-name="Atilde" unicode="&#xc3;" horiz-adv-x="711" 
d="M444 426q33 3 67 3q24 0 36 -1l27 -2l18 45q51 117 93 198q-33 -19 -81 -67q-72 -67 -160 -176zM10 102q0 6 4 9.5t11 1.5q9 -3 18 -3q25 0 49 16t58 45q76 69 177 194q-91 -17 -157 -51q-9 -5 -23.5 7t-14.5 24q0 8 7 11q48 26 105.5 40t126.5 23l18 22q38 48 58 71
q44 52 78.5 88.5t71.5 67.5q33 29 65 46.5t65 18.5q11 0 25 -13.5t8 -23.5q-29 -48 -64 -122q-39 -78 -72 -159q12 -4 18 -7q8 -4 15 -12.5t7 -16.5q0 -11 -11 -11q-4 0 -10 2q-13 7 -32 10q-14 -34 -31 -82q-24 -71 -32 -120q-5 -25 -5 -45l2 -15l1 -4q7 -12 7 -16
q0 -7 -7 -11q-7 -3 -16 3t-14 13q-16 23 -16 57q0 19 3 37q12 76 54 188h-3q-65 2 -130 -6l-21 -3q-70 -86 -106 -128q-46 -53 -76.5 -84.5t-65.5 -57.5q-52 -40 -92 -40q-11 0 -26 5q-9 3 -17.5 10.5t-9.5 16.5v4zM774 815q9 -5 14.5 -14t0.5 -15q-17 -21 -34 -21
q-9 0 -22 8q-3 2 -8 7t-6 5q-5 0 -12.5 -8t-8.5 -9q-4 -6 -13 -1t-14.5 14t-0.5 15q17 20 34 20q9 0 22 -8q2 -2 7.5 -6.5t6.5 -4.5q4 0 21 17q4 6 13 1z" />
    <glyph glyph-name="Adieresis" unicode="&#xc4;" horiz-adv-x="711" 
d="M444 426q33 3 67 3q24 0 36 -1l27 -2l18 45q51 117 93 198q-33 -19 -81 -67q-72 -67 -160 -176zM10 102q0 6 4 9.5t11 1.5q9 -3 18 -3q25 0 49 16t58 45q76 69 177 194q-91 -17 -157 -51q-9 -5 -23.5 7t-14.5 24q0 8 7 11q48 26 105.5 40t126.5 23l18 22q38 48 58 71
q44 52 78.5 88.5t71.5 67.5q33 29 65 46.5t65 18.5q11 0 25 -13.5t8 -23.5q-29 -48 -64 -122q-39 -78 -72 -159q12 -4 18 -7q8 -4 15 -12.5t7 -16.5q0 -11 -11 -11q-4 0 -10 2q-13 7 -32 10q-14 -34 -31 -82q-24 -71 -32 -120q-5 -25 -5 -45l2 -15l1 -4q7 -12 7 -16
q0 -7 -7 -11q-7 -3 -16 3t-14 13q-16 23 -16 57q0 19 3 37q12 76 54 188h-3q-65 2 -130 -6l-21 -3q-70 -86 -106 -128q-46 -53 -76.5 -84.5t-65.5 -57.5q-52 -40 -92 -40q-11 0 -26 5q-9 3 -17.5 10.5t-9.5 16.5v4zM720 790q3 -7 2 -11l-8 -13q-2 -3 -5 -5h-3q-4 0 -12 5
q-7 6 -10 12q-2 2 -2.5 5.5t0.5 5.5l8 13q2 4 4 5h3q6 0 13 -5q7 -6 10 -12zM743 802q2 4 5 5h3q7 0 12 -5q7 -6 10 -12q4 -8 2 -11l-8 -13q-2 -4 -4 -5h-4q-3 0 -6.5 2t-5.5 3q-7 6 -10 12q-3 7 -2 11z" />
    <glyph glyph-name="Aring" unicode="&#xc5;" horiz-adv-x="711" 
d="M444 426q33 3 67 3q24 0 36 -1l27 -2l18 45q51 117 93 198q-33 -19 -81 -67q-72 -67 -160 -176zM10 102q0 6 4 9.5t11 1.5q9 -3 18 -3q25 0 49 16t58 45q76 69 177 194q-91 -17 -157 -51q-9 -5 -23.5 7t-14.5 24q0 8 7 11q48 26 105.5 40t126.5 23l18 22q38 48 58 71
q44 52 78.5 88.5t71.5 67.5q33 29 65 46.5t65 18.5q11 0 25 -13.5t8 -23.5q-29 -48 -64 -122q-39 -78 -72 -159q12 -4 18 -7q8 -4 15 -12.5t7 -16.5q0 -11 -11 -11q-4 0 -10 2q-13 7 -32 10q-14 -34 -31 -82q-24 -71 -32 -120q-5 -25 -5 -45l2 -15l1 -4q7 -12 7 -16
q0 -7 -7 -11q-7 -3 -16 3t-14 13q-16 23 -16 57q0 19 3 37q12 76 54 188h-3q-65 2 -130 -6l-21 -3q-70 -86 -106 -128q-46 -53 -76.5 -84.5t-65.5 -57.5q-52 -40 -92 -40q-11 0 -26 5q-9 3 -17.5 10.5t-9.5 16.5v4zM746 806h-3q-8 -2 -15.5 -10t-11.5 -17l-2 -6q1 1 4 1
q27 12 28 28v4zM707.5 811q13.5 16 26.5 16q11 0 20.5 -8.5t11.5 -18.5q7 -28 -34 -46q-6 -3 -13 -3q-9 0 -15 5q-12 8 -12 24q2 15 15.5 31z" />
    <glyph glyph-name="AE" unicode="&#xc6;" horiz-adv-x="938" 
d="M10 102q0 6 4 9.5t11 1.5q9 -3 18 -3q25 0 50.5 17t56.5 44q44 40 85.5 86t92.5 108q-92 -17 -158 -51q-10 -5 -23.5 7.5t-13.5 24.5q0 7 6 10q48 25 105.5 39.5t126.5 23.5q48 60 77 93q42 50 77 87.5t72 68.5q35 30 66 47t65 18q11 0 24.5 -13.5t7.5 -23.5l-2 -3
q23 10 44 10q24 0 42 -14q26 -21 26 -56q0 -29 -17 -69q-3 -7 -10 -7q-12 0 -24.5 14t-8.5 24q8 16 13 38q4 16 4 24q-1 4 -15 0.5t-23 -7.5q-19 -8 -44 -28q-49 -43 -63 -89q-4 -12 -4 -24q0 -34 40 -54q6 -3 14.5 -12.5t8.5 -17.5q0 -7 -7 -10q-36 -16 -71 -43
q-3 -3 -6 -4q-51 -42 -80 -95l-13 -29q-10 -38 -13 -52q-2 -27 8 -45q12 -23 43 -23q23 0 58 14q36 16 69 41.5t70 61.5q61 59 97 112q5 6 12 6t13.5 -5.5t6.5 -12.5q0 -4 -3 -9q-59 -85 -137.5 -165.5t-154.5 -84.5q-23 -2 -45 6t-40 24q5 -8 5 -15q0 -11 -11 -11
q-7 0 -14.5 5.5t-11.5 11.5q-16 23 -16 55q0 15 4 39l6 33q1 10 7 30q16 61 41 125h-4q-65 2 -130 -6l-21 -3l-22 -27q-45 -56 -84 -101q-43 -50 -74.5 -82.5t-67.5 -59.5q-50 -40 -91 -40q-12 0 -27 5q-9 3 -17 10.5t-10 16.5v4zM511 429q25 0 37 -1l26 -2l19 45
q47 113 93 198q-20 -12 -38.5 -27.5t-43.5 -39.5q-69 -65 -160 -176q35 3 67 3zM629 413q22 18 49 32q-15 12 -27 31q-18 -40 -26 -61z" />
    <glyph glyph-name="Ccedilla" unicode="&#xc7;" horiz-adv-x="392" 
d="M168 63q12 -12 12 -28q0 -17 -14 -36q-8 -9 -18.5 -15t-21.5 -6q-14 0 -28.5 11.5t-14.5 25.5q0 3 2 9q1 5 6 5q6 0 13 -5.5t11 -11.5q13 3 23 15q6 10 8 16h-2q-5 -1 -15 -5q-9 -4 -19.5 7t-7.5 20q1 4 8 20q-53 10 -78.5 61.5t-20.5 111.5q11 138 104 289
q41 67 84.5 112.5t96.5 46.5q38 0 62.5 -29t24.5 -67q0 -57 -41 -143q-3 -7 -10 -7q-12 0 -24 14t-8 24q19 42 29 71.5t10 59.5q0 21 -3 27t-15 6q-20 0 -44 -13q-46 -27 -81.5 -75t-69.5 -113q-72 -144 -73 -248q0 -23 5 -44.5t15 -31.5l13 -7q12 -4 27 -4q29 1 66 19
q63 30 121.5 85.5t104.5 122.5q5 6 10 6q6 0 11.5 -6t5.5 -13q0 -5 -3 -10q-56 -81 -131 -159t-150 -87q2 -6 1 -9q10 -3 19 -12z" />
    <glyph glyph-name="Egrave" unicode="&#xc8;" horiz-adv-x="379" 
d="M58.5 105q-30.5 23 -42.5 58q-6 21 -6 42q0 55 35 113q47 80 134 127q-42 35 -42 85q0 38 24 75t59 64q48 34 84 34q23 0 41 -14q26 -21 26 -56q0 -29 -17 -69q-3 -7 -10 -7q-12 0 -24 14t-8 24q9 23 13 38q3 12 3 24q0 4 -14.5 0.5t-22.5 -7.5q-23 -10 -44 -28
q-50 -43 -63 -89q-4 -12 -4 -24q0 -34 40 -54q6 -3 14 -12.5t8 -17.5q0 -7 -7 -10q-50 -22 -91 -59t-65 -83q-27 -52 -27 -89q0 -22 8 -37q12 -23 43 -23q23 0 58 14q36 16 70 42t70 61q58 56 96 112q5 6 12 6t13.5 -5.5t6.5 -12.5q0 -4 -3 -9q-62 -89 -142 -169.5
t-158 -80.5q-37 0 -67.5 23zM350 747q4 -7 -5.5 -17t-18.5 -10q-5 0 -8 5l-24 50q-4 7 6 17t19 10q6 0 8 -5q19 -41 23 -50z" />
    <glyph glyph-name="Eacute" unicode="&#xc9;" horiz-adv-x="379" 
d="M58.5 105q-30.5 23 -42.5 58q-6 21 -6 42q0 55 35 113q47 80 134 127q-42 35 -42 85q0 38 24 75t59 64q48 34 84 34q23 0 41 -14q26 -21 26 -56q0 -29 -17 -69q-3 -7 -10 -7q-12 0 -24 14t-8 24q9 23 13 38q3 12 3 24q0 4 -14.5 0.5t-22.5 -7.5q-23 -10 -44 -28
q-50 -43 -63 -89q-4 -12 -4 -24q0 -34 40 -54q6 -3 14 -12.5t8 -17.5q0 -7 -7 -10q-50 -22 -91 -59t-65 -83q-27 -52 -27 -89q0 -22 8 -37q12 -23 43 -23q23 0 58 14q36 16 70 42t70 61q58 56 96 112q5 6 12 6t13.5 -5.5t6.5 -12.5q0 -4 -3 -9q-62 -89 -142 -169.5
t-158 -80.5q-37 0 -67.5 23zM332 799q9 0 18.5 -10.5t5.5 -18.5l-23 -49q-2 -5 -8 -5q-9 0 -18.5 10.5t-5.5 17.5l24 50q3 5 7 5z" />
    <glyph glyph-name="Ecircumflex" unicode="&#xca;" horiz-adv-x="379" 
d="M58.5 105q-30.5 23 -42.5 58q-6 21 -6 42q0 55 35 113q47 80 134 127q-42 35 -42 85q0 38 24 75t59 64q48 34 84 34q23 0 41 -14q26 -21 26 -56q0 -29 -17 -69q-3 -7 -10 -7q-12 0 -24 14t-8 24q9 23 13 38q3 12 3 24q0 4 -14.5 0.5t-22.5 -7.5q-23 -10 -44 -28
q-50 -43 -63 -89q-4 -12 -4 -24q0 -34 40 -54q6 -3 14 -12.5t8 -17.5q0 -7 -7 -10q-50 -22 -91 -59t-65 -83q-27 -52 -27 -89q0 -22 8 -37q12 -23 43 -23q23 0 58 14q36 16 70 42t70 61q58 56 96 112q5 6 12 6t13.5 -5.5t6.5 -12.5q0 -4 -3 -9q-62 -89 -142 -169.5
t-158 -80.5q-37 0 -67.5 23zM364 734v-2q0 -5 -7 -5q-3 0 -9 2q-6 3 -10.5 9t-5.5 13v1l-27 -32q-5 -6 -14 -1t-14.5 14t-0.5 15l51 61q7 8 18.5 -3t12.5 -20z" />
    <glyph glyph-name="Edieresis" unicode="&#xcb;" horiz-adv-x="379" 
d="M58.5 105q-30.5 23 -42.5 58q-6 21 -6 42q0 55 35 113q47 80 134 127q-42 35 -42 85q0 38 24 75t59 64q48 34 84 34q23 0 41 -14q26 -21 26 -56q0 -29 -17 -69q-3 -7 -10 -7q-12 0 -24 14t-8 24q9 23 13 38q3 12 3 24q0 4 -14.5 0.5t-22.5 -7.5q-23 -10 -44 -28
q-50 -43 -63 -89q-4 -12 -4 -24q0 -34 40 -54q6 -3 14 -12.5t8 -17.5q0 -7 -7 -10q-50 -22 -91 -59t-65 -83q-27 -52 -27 -89q0 -22 8 -37q12 -23 43 -23q23 0 58 14q36 16 70 42t70 61q58 56 96 112q5 6 12 6t13.5 -5.5t6.5 -12.5q0 -4 -3 -9q-62 -89 -142 -169.5
t-158 -80.5q-37 0 -67.5 23zM315 754q3 -7 2 -11l-8 -13q-2 -3 -5 -5h-3q-4 0 -12 5q-7 6 -10 12q-2 2 -2.5 5.5t0.5 5.5l8 13q2 4 4 5h3q6 0 13 -5q7 -6 10 -12zM338 766q2 4 5 5h3q7 0 12 -5q7 -6 10 -12q4 -8 2 -11l-8 -13q-2 -4 -4 -5h-4q-3 0 -6.5 2t-5.5 3
q-7 6 -10 12q-3 7 -2 11z" />
    <glyph glyph-name="Igrave" unicode="&#xcc;" horiz-adv-x="341" 
d="M288 110q4 -7 7 -7q-4 3 -7 7zM147 143l-2 6q-4 11 -4 26q0 19 5.5 41t6.5 27q22 89 56.5 177t89.5 210q-61 -13 -96 -33q-10 -5 -23.5 7.5t-13.5 24.5q0 7 6 11q34 19 76 28t95 15q30 4 53 4q59 0 79 -31q6 -9 6 -15q0 -11 -12 -11q-8 0 -18 8q-2 2 -8 3q-10 1 -30 1
q-34 0 -72 -5q-8 -2 -12 -2q9 -6 13.5 -15t1.5 -15l-22 -50q-48 -109 -91 -229q-25 -73 -36 -116q-1 -4 -6 -25.5t-4 -37.5h2q30 4 53 4q59 0 79 -31q6 -9 6 -15q0 -4 -3.5 -7t-8.5 -3q-8 0 -18 8l-9 2q-9 2 -30 2q-24 0 -72 -6q-44 -7 -76.5 -15.5t-60.5 -23.5
q-9 -6 -23 6.5t-14 24.5q0 7 6 11q46 26 131 39zM295 102v1v-1zM371 741q4 -7 -5.5 -17t-18.5 -10q-5 0 -8 5l-24 50q-4 7 6 17t19 10q6 0 8 -5q19 -41 23 -50z" />
    <glyph glyph-name="Iacute" unicode="&#xcd;" horiz-adv-x="341" 
d="M288 110q4 -7 7 -7q-4 3 -7 7zM147 143l-2 6q-4 11 -4 26q0 19 5.5 41t6.5 27q22 89 56.5 177t89.5 210q-61 -13 -96 -33q-10 -5 -23.5 7.5t-13.5 24.5q0 7 6 11q34 19 76 28t95 15q30 4 53 4q59 0 79 -31q6 -9 6 -15q0 -11 -12 -11q-8 0 -18 8q-2 2 -8 3q-10 1 -30 1
q-34 0 -72 -5q-8 -2 -12 -2q9 -6 13.5 -15t1.5 -15l-22 -50q-48 -109 -91 -229q-25 -73 -36 -116q-1 -4 -6 -25.5t-4 -37.5h2q30 4 53 4q59 0 79 -31q6 -9 6 -15q0 -4 -3.5 -7t-8.5 -3q-8 0 -18 8l-9 2q-9 2 -30 2q-24 0 -72 -6q-44 -7 -76.5 -15.5t-60.5 -23.5
q-9 -6 -23 6.5t-14 24.5q0 7 6 11q46 26 131 39zM295 102v1v-1zM353 793q9 0 18.5 -10.5t5.5 -18.5l-23 -49q-2 -5 -8 -5q-9 0 -18.5 10.5t-5.5 17.5l24 50q3 5 7 5z" />
    <glyph glyph-name="Icircumflex" unicode="&#xce;" horiz-adv-x="341" 
d="M288 110q4 -7 7 -7q-4 3 -7 7zM147 143l-2 6q-4 11 -4 26q0 19 5.5 41t6.5 27q22 89 56.5 177t89.5 210q-61 -13 -96 -33q-10 -5 -23.5 7.5t-13.5 24.5q0 7 6 11q34 19 76 28t95 15q30 4 53 4q59 0 79 -31q6 -9 6 -15q0 -11 -12 -11q-8 0 -18 8q-2 2 -8 3q-10 1 -30 1
q-34 0 -72 -5q-8 -2 -12 -2q9 -6 13.5 -15t1.5 -15l-22 -50q-48 -109 -91 -229q-25 -73 -36 -116q-1 -4 -6 -25.5t-4 -37.5h2q30 4 53 4q59 0 79 -31q6 -9 6 -15q0 -4 -3.5 -7t-8.5 -3q-8 0 -18 8l-9 2q-9 2 -30 2q-24 0 -72 -6q-44 -7 -76.5 -15.5t-60.5 -23.5
q-9 -6 -23 6.5t-14 24.5q0 7 6 11q46 26 131 39zM295 102v1v-1zM385 728v-2q0 -5 -7 -5q-3 0 -9 2q-6 3 -10.5 9t-5.5 13v1l-27 -32q-5 -6 -14 -1t-14.5 14t-0.5 15l51 61q7 8 18.5 -3t12.5 -20z" />
    <glyph glyph-name="Idieresis" unicode="&#xcf;" horiz-adv-x="341" 
d="M288 110q4 -7 7 -7q-4 3 -7 7zM147 143l-2 6q-4 11 -4 26q0 19 5.5 41t6.5 27q22 89 56.5 177t89.5 210q-61 -13 -96 -33q-10 -5 -23.5 7.5t-13.5 24.5q0 7 6 11q34 19 76 28t95 15q30 4 53 4q59 0 79 -31q6 -9 6 -15q0 -11 -12 -11q-8 0 -18 8q-2 2 -8 3q-10 1 -30 1
q-34 0 -72 -5q-8 -2 -12 -2q9 -6 13.5 -15t1.5 -15l-22 -50q-48 -109 -91 -229q-25 -73 -36 -116q-1 -4 -6 -25.5t-4 -37.5h2q30 4 53 4q59 0 79 -31q6 -9 6 -15q0 -4 -3.5 -7t-8.5 -3q-8 0 -18 8l-9 2q-9 2 -30 2q-24 0 -72 -6q-44 -7 -76.5 -15.5t-60.5 -23.5
q-9 -6 -23 6.5t-14 24.5q0 7 6 11q46 26 131 39zM295 102v1v-1zM336 748q3 -7 2 -11l-8 -13q-2 -3 -5 -5h-3q-4 0 -12 5q-7 6 -10 12q-2 2 -2.5 5.5t0.5 5.5l8 13q2 4 4 5h3q6 0 13 -5q7 -6 10 -12zM359 760q2 4 5 5h3q7 0 12 -5q7 -6 10 -12q4 -8 2 -11l-8 -13q-2 -4 -4 -5
h-4q-3 0 -6.5 2t-5.5 3q-7 6 -10 12q-3 7 -2 11z" />
    <glyph glyph-name="Eth" unicode="&#xd0;" horiz-adv-x="520" 
d="M520 561q0 -73 -53 -181q-39 -79 -97 -144t-130 -107q-71 -39 -130 -39q-51 0 -83 27q-7 5 -13 14t-3 16t10 7t16 -7q20 -16 51 -16q22 0 43 6q-12 8 -18 23q-7 27 -7 58q0 51 23 131q-39 -16 -62 -32q-10 -1 -22 10.5t-12 22.5q0 7 6 11q26 16 89 44l21 10q30 88 74 181
q3 7 10 7q12 0 24 -14t8 -24q-31 -64 -56 -130q26 7 35 8q27 5 51 5q40 0 63 -18q7 -6 13 -15t2 -16q-3 -6 -9 -6q-8 0 -17 7q-1 0 -3 1t-7 2q-7 1 -21 1q-33 0 -65 -9q-17 -3 -63 -20l-5 -16q-17 -56 -25.5 -91t-8.5 -70q0 -25 6 -49l1 -4q42 17 86 48q64 45 114 108.5
t81 138.5q39 88 39 146q0 23 -6.5 41.5t-21.5 27.5q-26 16 -61 16q-56 0 -130 -38q-61 -32 -109 -83t-75 -114q-3 -7 -10 -7q-12 0 -24 14t-8 24q33 78 97 139t144 90q46 16 92 16q75 0 119 -48q37 -40 37 -103z" />
    <glyph glyph-name="Ntilde" unicode="&#xd1;" horiz-adv-x="594" 
d="M331 124v1v-1zM10 109q0 11 10 10q17 -2 33 17t31 46q35 61 60.5 127t57.5 167q31 97 53 182q1 7 8 7q11 0 23.5 -12t11.5 -22v-2v-2q-18 -135 -18 -232q0 -94 16 -177q7 -39 17 -64q4 -11 12 -22l5 -6l8 2q7 4 20 19q30 33 51 73.5t48 104.5q54 126 75 231q11 55 9 88
q-2 14 -4 18q-10 3 -19 15t-9 20t10 8q65 -4 65 -97q0 -35 -8 -75q-25 -125 -87 -262q-30 -68 -58 -113q-14 -23 -25.5 -39t-26.5 -27q-13 -9 -26 -9q-21 0 -45 22q-23 22 -35.5 55t-19.5 75q-16 90 -16 188q-35 -106 -63 -172q-33 -81 -65 -127q-30 -48 -62 -48
q-10 0 -20 6t-15 16q-2 6 -2 11zM447 769q9 -5 14.5 -14t0.5 -15q-17 -21 -34 -21q-9 0 -22 8q-3 2 -8 7t-6 5q-5 0 -12.5 -8t-8.5 -9q-4 -6 -13 -1t-14.5 14t-0.5 15q17 20 34 20q9 0 22 -8q2 -2 7.5 -6.5t6.5 -4.5q4 0 21 17q4 6 13 1z" />
    <glyph glyph-name="Ograve" unicode="&#xd2;" horiz-adv-x="433" 
d="M88 470q7 3 17 -3t16.5 -16.5t3.5 -17.5q-29 -59 -44 -97q9 -11 19 -17q8 -5 15 -12.5t7 -16.5q0 -11 -11 -11q-5 0 -10 3q-11 6 -31 21q-19 -61 -15 -116q2 -19 7 -32q2 -8 9 -15q3 -4 9 -6q7 -3 20 -3q47 0 102 53q48 44 94 122q42 74 65 151q19 65 19 106q0 10 -2 28
q-3 25 -14 38l-3 3l-2 2t-4 2q-10 4 -18 4q-6 1 -17 1q-39 0 -78 -17.5t-72 -45.5q-54 -45 -82 -108zM34 354q-9 26 -9 52q0 62 40 128t93 102q31 21 68 35t73 14q21 0 42 -6q32 -11 52.5 -39t26.5 -64q3 -18 3 -35q0 -49 -23 -124q-28 -91 -82 -174q-38 -61 -88.5 -109
t-104.5 -48q-23 0 -43 10q-36 17 -54 53.5t-18 78.5q0 56 24 126zM343 736q4 -7 -5.5 -17t-18.5 -10q-5 0 -8 5l-24 50q-4 7 6 17t19 10q6 0 8 -5q19 -41 23 -50z" />
    <glyph glyph-name="Oacute" unicode="&#xd3;" horiz-adv-x="433" 
d="M88 470q7 3 17 -3t16.5 -16.5t3.5 -17.5q-29 -59 -44 -97q9 -11 19 -17q8 -5 15 -12.5t7 -16.5q0 -11 -11 -11q-5 0 -10 3q-11 6 -31 21q-19 -61 -15 -116q2 -19 7 -32q2 -8 9 -15q3 -4 9 -6q7 -3 20 -3q47 0 102 53q48 44 94 122q42 74 65 151q19 65 19 106q0 10 -2 28
q-3 25 -14 38l-3 3l-2 2t-4 2q-10 4 -18 4q-6 1 -17 1q-39 0 -78 -17.5t-72 -45.5q-54 -45 -82 -108zM34 354q-9 26 -9 52q0 62 40 128t93 102q31 21 68 35t73 14q21 0 42 -6q32 -11 52.5 -39t26.5 -64q3 -18 3 -35q0 -49 -23 -124q-28 -91 -82 -174q-38 -61 -88.5 -109
t-104.5 -48q-23 0 -43 10q-36 17 -54 53.5t-18 78.5q0 56 24 126zM325 788q9 0 18.5 -10.5t5.5 -18.5l-23 -49q-2 -5 -8 -5q-9 0 -18.5 10.5t-5.5 17.5l24 50q3 5 7 5z" />
    <glyph glyph-name="Ocircumflex" unicode="&#xd4;" horiz-adv-x="433" 
d="M88 470q7 3 17 -3t16.5 -16.5t3.5 -17.5q-29 -59 -44 -97q9 -11 19 -17q8 -5 15 -12.5t7 -16.5q0 -11 -11 -11q-5 0 -10 3q-11 6 -31 21q-19 -61 -15 -116q2 -19 7 -32q2 -8 9 -15q3 -4 9 -6q7 -3 20 -3q47 0 102 53q48 44 94 122q42 74 65 151q19 65 19 106q0 10 -2 28
q-3 25 -14 38l-3 3l-2 2t-4 2q-10 4 -18 4q-6 1 -17 1q-39 0 -78 -17.5t-72 -45.5q-54 -45 -82 -108zM34 354q-9 26 -9 52q0 62 40 128t93 102q31 21 68 35t73 14q21 0 42 -6q32 -11 52.5 -39t26.5 -64q3 -18 3 -35q0 -49 -23 -124q-28 -91 -82 -174q-38 -61 -88.5 -109
t-104.5 -48q-23 0 -43 10q-36 17 -54 53.5t-18 78.5q0 56 24 126zM357 723v-2q0 -5 -7 -5q-3 0 -9 2q-6 3 -10.5 9t-5.5 13v1l-27 -32q-5 -6 -14 -1t-14.5 14t-0.5 15l51 61q7 8 18.5 -3t12.5 -20z" />
    <glyph glyph-name="Otilde" unicode="&#xd5;" horiz-adv-x="433" 
d="M88 470q7 3 17 -3t16.5 -16.5t3.5 -17.5q-29 -59 -44 -97q9 -11 19 -17q8 -5 15 -12.5t7 -16.5q0 -11 -11 -11q-5 0 -10 3q-11 6 -31 21q-19 -61 -15 -116q2 -19 7 -32q2 -8 9 -15q3 -4 9 -6q7 -3 20 -3q47 0 102 53q48 44 94 122q42 74 65 151q19 65 19 106q0 10 -2 28
q-3 25 -14 38l-3 3l-2 2t-4 2q-10 4 -18 4q-6 1 -17 1q-39 0 -78 -17.5t-72 -45.5q-54 -45 -82 -108zM34 354q-9 26 -9 52q0 62 40 128t93 102q31 21 68 35t73 14q21 0 42 -6q32 -11 52.5 -39t26.5 -64q3 -18 3 -35q0 -49 -23 -124q-28 -91 -82 -174q-38 -61 -88.5 -109
t-104.5 -48q-23 0 -43 10q-36 17 -54 53.5t-18 78.5q0 56 24 126zM362 768q9 -5 14.5 -14t0.5 -15q-17 -21 -34 -21q-9 0 -22 8q-3 2 -8 7t-6 5q-5 0 -12.5 -8t-8.5 -9q-4 -6 -13 -1t-14.5 14t-0.5 15q17 20 34 20q9 0 22 -8q2 -2 7.5 -6.5t6.5 -4.5q4 0 21 17q4 6 13 1z
" />
    <glyph glyph-name="Odieresis" unicode="&#xd6;" horiz-adv-x="433" 
d="M88 470q7 3 17 -3t16.5 -16.5t3.5 -17.5q-29 -59 -44 -97q9 -11 19 -17q8 -5 15 -12.5t7 -16.5q0 -11 -11 -11q-5 0 -10 3q-11 6 -31 21q-19 -61 -15 -116q2 -19 7 -32q2 -8 9 -15q3 -4 9 -6q7 -3 20 -3q47 0 102 53q48 44 94 122q42 74 65 151q19 65 19 106q0 10 -2 28
q-3 25 -14 38l-3 3l-2 2t-4 2q-10 4 -18 4q-6 1 -17 1q-39 0 -78 -17.5t-72 -45.5q-54 -45 -82 -108zM34 354q-9 26 -9 52q0 62 40 128t93 102q31 21 68 35t73 14q21 0 42 -6q32 -11 52.5 -39t26.5 -64q3 -18 3 -35q0 -49 -23 -124q-28 -91 -82 -174q-38 -61 -88.5 -109
t-104.5 -48q-23 0 -43 10q-36 17 -54 53.5t-18 78.5q0 56 24 126zM308 743q3 -7 2 -11l-8 -13q-2 -3 -5 -5h-3q-4 0 -12 5q-7 6 -10 12q-2 2 -2.5 5.5t0.5 5.5l8 13q2 4 4 5h3q6 0 13 -5q7 -6 10 -12zM331 755q2 4 5 5h3q7 0 12 -5q7 -6 10 -12q4 -8 2 -11l-8 -13
q-2 -4 -4 -5h-4q-3 0 -6.5 2t-5.5 3q-7 6 -10 12q-3 7 -2 11z" />
    <glyph glyph-name="multiply" unicode="&#xd7;" horiz-adv-x="216" 
d="M197 423.5q14 -12.5 14 -24.5q0 -7 -7 -10q-41 -22 -77 -49q15 -20 44 -45q6 -5 1.5 -14.5t-14.5 -17t-19 -7.5q-5 0 -8 3q-25 22 -45 46q-23 -23 -40 -47q-4 -4 -7 -4q-10 0 -22 11.5t-12 22.5q0 5 3 8q20 29 47 53q-15 26 -23 46q-4 11 9 23.5t25 12.5q7 0 10 -7
q7 -20 20 -41q36 26 77 48q10 5 24 -7.5z" />
    <glyph glyph-name="Oslash" unicode="&#xd8;" horiz-adv-x="433" 
d="M380 563q0 10 -2 28q-3 25 -14 38l-3 3l-2 2l-272 -502q4 -1 13 -1q47 0 102 53q50 47 94 122q42 74 65 151q19 65 19 106zM34 354q-9 26 -9 52q0 62 40 128t93 102q31 21 68 35t71 14q23 0 42 -6l8 15q3 5 8 5q9 0 18.5 -10.5t5.5 -17.5q-2 -2 -5 -10q18 -15 30 -37.5
t16 -47.5q3 -18 3 -35q0 -49 -23 -124q-28 -91 -82 -174q-38 -61 -88.5 -109t-104.5 -48q-23 0 -43 10l-11 6q-4 -7 -13 -25q-2 -5 -8 -5q-9 0 -18.5 10.5t-5.5 17.5l15 29q-31 39 -31 99q0 56 24 126zM59 162l260 479q-39 0 -77.5 -17.5t-71.5 -45.5q-54 -45 -82 -108
q7 3 17 -3t16.5 -16.5t3.5 -17.5q-29 -59 -44 -97q9 -11 19 -17q8 -5 15 -12.5t7 -16.5q0 -11 -11 -11q-5 0 -10 3q-11 6 -31 21q-19 -61 -15 -116q2 -16 4 -25z" />
    <glyph glyph-name="Ugrave" unicode="&#xd9;" horiz-adv-x="498" 
d="M60 110h-0.5h-0.5q0 -1 1 0zM30.5 320.5q20.5 76.5 56.5 163.5q30 73 63 126q17 24 31 39t32 18q11 2 24 -11.5t13 -23.5q0 -5 -6 -7q-18 -4 -31 -19.5t-31 -43.5q-32 -54 -64 -136q-30 -82 -47 -147.5t-17 -127.5q0 -11 2 -31q1 -1 1 -2.5t1 -2.5l13 -2q8 1 17 5
q20 7 43 27q53 45 93 102.5t97 153.5q41 68 78 135q56 98 85 146q3 7 11 7q4 0 10 -3q11 -5 18.5 -16.5t2.5 -18.5q-8 -16 -14.5 -30t-11.5 -26q-50 -107 -81.5 -179t-56.5 -147q-12 -36 -17.5 -59.5t-5.5 -47.5q0 -15 6 -35q1 -2 1 -5q0 -11 -12 -11q-10 0 -19 9t-12 19
q-7 18 -7 43q0 50 23 115q-61 -93 -103 -142q-26 -30 -49 -50t-49 -30q-12 -5 -29 -5q-38 0 -60 29q-19 25 -19 73q0 72 20.5 148.5zM389 737q4 -7 -5.5 -17t-18.5 -10q-5 0 -8 5l-24 50q-4 7 6 17t19 10q6 0 8 -5q19 -41 23 -50z" />
    <glyph glyph-name="Uacute" unicode="&#xda;" horiz-adv-x="498" 
d="M60 110h-0.5h-0.5q0 -1 1 0zM30.5 320.5q20.5 76.5 56.5 163.5q30 73 63 126q17 24 31 39t32 18q11 2 24 -11.5t13 -23.5q0 -5 -6 -7q-18 -4 -31 -19.5t-31 -43.5q-32 -54 -64 -136q-30 -82 -47 -147.5t-17 -127.5q0 -11 2 -31q1 -1 1 -2.5t1 -2.5l13 -2q8 1 17 5
q20 7 43 27q53 45 93 102.5t97 153.5q41 68 78 135q56 98 85 146q3 7 11 7q4 0 10 -3q11 -5 18.5 -16.5t2.5 -18.5q-8 -16 -14.5 -30t-11.5 -26q-50 -107 -81.5 -179t-56.5 -147q-12 -36 -17.5 -59.5t-5.5 -47.5q0 -15 6 -35q1 -2 1 -5q0 -11 -12 -11q-10 0 -19 9t-12 19
q-7 18 -7 43q0 50 23 115q-61 -93 -103 -142q-26 -30 -49 -50t-49 -30q-12 -5 -29 -5q-38 0 -60 29q-19 25 -19 73q0 72 20.5 148.5zM371 789q9 0 18.5 -10.5t5.5 -18.5l-23 -49q-2 -5 -8 -5q-9 0 -18.5 10.5t-5.5 17.5l24 50q3 5 7 5z" />
    <glyph glyph-name="Ucircumflex" unicode="&#xdb;" horiz-adv-x="498" 
d="M60 110h-0.5h-0.5q0 -1 1 0zM30.5 320.5q20.5 76.5 56.5 163.5q30 73 63 126q17 24 31 39t32 18q11 2 24 -11.5t13 -23.5q0 -5 -6 -7q-18 -4 -31 -19.5t-31 -43.5q-32 -54 -64 -136q-30 -82 -47 -147.5t-17 -127.5q0 -11 2 -31q1 -1 1 -2.5t1 -2.5l13 -2q8 1 17 5
q20 7 43 27q53 45 93 102.5t97 153.5q41 68 78 135q56 98 85 146q3 7 11 7q4 0 10 -3q11 -5 18.5 -16.5t2.5 -18.5q-8 -16 -14.5 -30t-11.5 -26q-50 -107 -81.5 -179t-56.5 -147q-12 -36 -17.5 -59.5t-5.5 -47.5q0 -15 6 -35q1 -2 1 -5q0 -11 -12 -11q-10 0 -19 9t-12 19
q-7 18 -7 43q0 50 23 115q-61 -93 -103 -142q-26 -30 -49 -50t-49 -30q-12 -5 -29 -5q-38 0 -60 29q-19 25 -19 73q0 72 20.5 148.5zM403 724v-2q0 -5 -7 -5q-3 0 -9 2q-6 3 -10.5 9t-5.5 13v1l-27 -32q-5 -6 -14 -1t-14.5 14t-0.5 15l51 61q7 8 18.5 -3t12.5 -20z" />
    <glyph glyph-name="Udieresis" unicode="&#xdc;" horiz-adv-x="498" 
d="M60 110h-0.5h-0.5q0 -1 1 0zM30.5 320.5q20.5 76.5 56.5 163.5q30 73 63 126q17 24 31 39t32 18q11 2 24 -11.5t13 -23.5q0 -5 -6 -7q-18 -4 -31 -19.5t-31 -43.5q-32 -54 -64 -136q-30 -82 -47 -147.5t-17 -127.5q0 -11 2 -31q1 -1 1 -2.5t1 -2.5l13 -2q8 1 17 5
q20 7 43 27q53 45 93 102.5t97 153.5q41 68 78 135q56 98 85 146q3 7 11 7q4 0 10 -3q11 -5 18.5 -16.5t2.5 -18.5q-8 -16 -14.5 -30t-11.5 -26q-50 -107 -81.5 -179t-56.5 -147q-12 -36 -17.5 -59.5t-5.5 -47.5q0 -15 6 -35q1 -2 1 -5q0 -11 -12 -11q-10 0 -19 9t-12 19
q-7 18 -7 43q0 50 23 115q-61 -93 -103 -142q-26 -30 -49 -50t-49 -30q-12 -5 -29 -5q-38 0 -60 29q-19 25 -19 73q0 72 20.5 148.5zM354 744q3 -7 2 -11l-8 -13q-2 -3 -5 -5h-3q-4 0 -12 5q-7 6 -10 12q-2 2 -2.5 5.5t0.5 5.5l8 13q2 4 4 5h3q6 0 13 -5q7 -6 10 -12z
M377 756q2 4 5 5h3q7 0 12 -5q7 -6 10 -12q4 -8 2 -11l-8 -13q-2 -4 -4 -5h-4q-3 0 -6.5 2t-5.5 3q-7 6 -10 12q-3 7 -2 11z" />
    <glyph glyph-name="Yacute" unicode="&#xdd;" horiz-adv-x="417" 
d="M14 114.5q-4 7.5 -4 13.5q0 5 3 8.5t8 3.5q6 0 15 -6q20 -12 41 -12q35 0 71 29q54 44 89.5 111.5t72.5 165.5l11 28l-37 -58q-46 -66 -76 -97q-21 -22 -41.5 -35.5t-43.5 -13.5q-35 0 -54.5 32t-19.5 70q0 82 49 197q19 46 40 78q11 16 20 24t21 9q10 1 21.5 -11.5
t11.5 -22.5q0 -9 -11 -10q2 0 0 -0.5t-3 -1.5l-9 -8q-7 -8 -19 -26q-22 -39 -39 -83q-18 -48 -28.5 -88.5t-10.5 -79.5q0 -12 5 -25t20 -8q11 4 29 18q37 30 66.5 71t67.5 104q51 83 104 191q1 7 10 7q12 0 24.5 -14t7.5 -24q-8 -52 -32 -128q-28 -98 -61.5 -180.5
t-79.5 -151.5q-25 -36 -49 -61.5t-54 -39.5q-22 -11 -49 -11q-38 0 -76 24q-7 4 -11 11.5zM292 789q9 0 18.5 -10.5t5.5 -18.5l-23 -49q-2 -5 -8 -5q-9 0 -18.5 10.5t-5.5 17.5l24 50q3 5 7 5z" />
    <glyph glyph-name="agrave" unicode="&#xe0;" horiz-adv-x="295" 
d="M98 326q-5 9 -18 9q-7 0 -9 -2q-17 -11 -35 -32q-19 -24 -29 -45q40 19 91 70zM-29.5 301q19.5 36 47.5 60q24 21 49 21q32 0 53 -32q3 3 8 3q11 0 23.5 -14t9.5 -24q-3 -18 -11 -40q-10 -31 -11 -38q3 0 4 1q15 3 28.5 10.5t32.5 19.5q39 27 98 80q4 4 10 4
q7 0 12.5 -6.5t5.5 -14.5q0 -7 -5 -12q-50 -53 -92.5 -89.5t-77.5 -36.5q-20 0 -36 13.5t-21 32.5q-2 8 -2 12q-60 -47 -112 -54q-11 -1 -22.5 10.5t-11.5 22.5q1 35 20.5 71zM145 429q4 -7 -5.5 -17t-18.5 -10q-5 0 -8 5l-24 50q-4 7 6 17t19 10q6 0 8 -5q19 -41 23 -50z
" />
    <glyph glyph-name="aacute" unicode="&#xe1;" horiz-adv-x="295" 
d="M98 326q-5 9 -18 9q-7 0 -9 -2q-17 -11 -35 -32q-19 -24 -29 -45q40 19 91 70zM-29.5 301q19.5 36 47.5 60q24 21 49 21q32 0 53 -32q3 3 8 3q11 0 23.5 -14t9.5 -24q-3 -18 -11 -40q-10 -31 -11 -38q3 0 4 1q15 3 28.5 10.5t32.5 19.5q39 27 98 80q4 4 10 4
q7 0 12.5 -6.5t5.5 -14.5q0 -7 -5 -12q-50 -53 -92.5 -89.5t-77.5 -36.5q-20 0 -36 13.5t-21 32.5q-2 8 -2 12q-60 -47 -112 -54q-11 -1 -22.5 10.5t-11.5 22.5q1 35 20.5 71zM127 481q9 0 18.5 -10.5t5.5 -18.5l-23 -49q-2 -5 -8 -5q-9 0 -18.5 10.5t-5.5 17.5l24 50
q3 5 7 5z" />
    <glyph glyph-name="acircumflex" unicode="&#xe2;" horiz-adv-x="295" 
d="M98 326q-5 9 -18 9q-7 0 -9 -2q-17 -11 -35 -32q-19 -24 -29 -45q40 19 91 70zM-29.5 301q19.5 36 47.5 60q24 21 49 21q32 0 53 -32q3 3 8 3q11 0 23.5 -14t9.5 -24q-3 -18 -11 -40q-10 -31 -11 -38q3 0 4 1q15 3 28.5 10.5t32.5 19.5q39 27 98 80q4 4 10 4
q7 0 12.5 -6.5t5.5 -14.5q0 -7 -5 -12q-50 -53 -92.5 -89.5t-77.5 -36.5q-20 0 -36 13.5t-21 32.5q-2 8 -2 12q-60 -47 -112 -54q-11 -1 -22.5 10.5t-11.5 22.5q1 35 20.5 71zM159 416v-2q0 -5 -7 -5q-3 0 -9 2q-6 3 -10.5 9t-5.5 13v1l-27 -32q-5 -6 -14 -1t-14.5 14
t-0.5 15l51 61q7 8 18.5 -3t12.5 -20z" />
    <glyph glyph-name="atilde" unicode="&#xe3;" horiz-adv-x="295" 
d="M98 326q-5 9 -18 9q-7 0 -9 -2q-17 -11 -35 -32q-19 -24 -29 -45q40 19 91 70zM-29.5 301q19.5 36 47.5 60q24 21 49 21q32 0 53 -32q3 3 8 3q11 0 23.5 -14t9.5 -24q-3 -18 -11 -40q-10 -31 -11 -38q3 0 4 1q15 3 28.5 10.5t32.5 19.5q39 27 98 80q4 4 10 4
q7 0 12.5 -6.5t5.5 -14.5q0 -7 -5 -12q-50 -53 -92.5 -89.5t-77.5 -36.5q-20 0 -36 13.5t-21 32.5q-2 8 -2 12q-60 -47 -112 -54q-11 -1 -22.5 10.5t-11.5 22.5q1 35 20.5 71zM164 461q9 -5 14.5 -14t0.5 -15q-17 -21 -34 -21q-9 0 -22 8q-3 2 -8 7t-6 5q-5 0 -12.5 -8
t-8.5 -9q-4 -6 -13 -1t-14.5 14t-0.5 15q17 20 34 20q9 0 22 -8q2 -2 7.5 -6.5t6.5 -4.5q4 0 21 17q4 6 13 1z" />
    <glyph glyph-name="adieresis" unicode="&#xe4;" horiz-adv-x="295" 
d="M98 326q-5 9 -18 9q-7 0 -9 -2q-17 -11 -35 -32q-19 -24 -29 -45q40 19 91 70zM-29.5 301q19.5 36 47.5 60q24 21 49 21q32 0 53 -32q3 3 8 3q11 0 23.5 -14t9.5 -24q-3 -18 -11 -40q-10 -31 -11 -38q3 0 4 1q15 3 28.5 10.5t32.5 19.5q39 27 98 80q4 4 10 4
q7 0 12.5 -6.5t5.5 -14.5q0 -7 -5 -12q-50 -53 -92.5 -89.5t-77.5 -36.5q-20 0 -36 13.5t-21 32.5q-2 8 -2 12q-60 -47 -112 -54q-11 -1 -22.5 10.5t-11.5 22.5q1 35 20.5 71zM110 436q3 -7 2 -11l-8 -13q-2 -3 -5 -5h-3q-4 0 -12 5q-7 6 -10 12q-2 2 -2.5 5.5t0.5 5.5l8 13
q2 4 4 5h3q6 0 13 -5q7 -6 10 -12zM133 448q2 4 5 5h3q7 0 12 -5q7 -6 10 -12q4 -8 2 -11l-8 -13q-2 -4 -4 -5h-4q-3 0 -6.5 2t-5.5 3q-7 6 -10 12q-3 7 -2 11z" />
    <glyph glyph-name="aring" unicode="&#xe5;" horiz-adv-x="295" 
d="M98 326q-5 9 -18 9q-7 0 -9 -2q-17 -11 -35 -32q-19 -24 -29 -45q40 19 91 70zM-29.5 301q19.5 36 47.5 60q24 21 49 21q32 0 53 -32q3 3 8 3q11 0 23.5 -14t9.5 -24q-3 -18 -11 -40q-10 -31 -11 -38q3 0 4 1q15 3 28.5 10.5t32.5 19.5q39 27 98 80q4 4 10 4
q7 0 12.5 -6.5t5.5 -14.5q0 -7 -5 -12q-50 -53 -92.5 -89.5t-77.5 -36.5q-20 0 -36 13.5t-21 32.5q-2 8 -2 12q-60 -47 -112 -54q-11 -1 -22.5 10.5t-11.5 22.5q1 35 20.5 71zM136 452h-3q-8 -2 -15.5 -10t-11.5 -17l-2 -6q1 1 4 1q27 12 28 28v4zM97.5 457q13.5 16 26.5 16
q11 0 20.5 -8.5t11.5 -18.5q7 -28 -34 -46q-6 -3 -13 -3q-9 0 -15 5q-12 8 -12 24q2 15 15.5 31z" />
    <glyph glyph-name="ae" unicode="&#xe6;" horiz-adv-x="383" 
d="M97 326q-5 9 -18 9q-7 0 -9 -2q-19 -11 -34 -32q-16 -19 -29 -45q39 19 90 70zM-30.5 299.5q19.5 36.5 48.5 61.5q24 21 49 21q32 0 53 -32q3 3 8 3q8 0 19 -9q31 24 62 24q12 0 18 -2q18 -5 31.5 -20t13.5 -33q0 -27 -39.5 -38t-80.5 -8l-7 -14q-6 -18 -4 -19
q29 -4 79 15q41 16 80 39t89 57q5 3 10 3q6 0 10 -5t4 -11q0 -7 -6 -13q-158 -126 -239 -126q-32 0 -52 20q-3 3 -11 13q-2 2 -2 5l-3 6q-5 13 -5 14q-60 -47 -112 -54q-11 -1 -22 10t-11 22q0 34 19.5 70.5zM210 309q13 9 16 15q1 2 -12.5 -3t-21.5 -10l-16 -12q20 2 34 10
z" />
    <glyph glyph-name="ccedilla" unicode="&#xe7;" horiz-adv-x="214" 
d="M59 183q12 -12 12 -28q0 -17 -14 -36q-8 -9 -18.5 -15t-21.5 -6q-14 0 -28.5 11.5t-14.5 25.5q0 3 2 9q1 5 6 5q6 0 13 -5.5t11 -11.5q13 3 23 15q6 10 8 16h-2q-5 -1 -15 -5q-9 -4 -19.5 7t-7.5 20l6 17q-34 10 -34 49q0 29 15 54q15 28 35 49t42 21q12 0 23 -7
q15 -10 15 -25q0 -6 -3.5 -9t-10.5 -2h-2q-5 0 -11 -5q-9 -5 -18 -16q-23 -23 -34 -48q-2 -4 -2 -7q0 -4 3 -6t7 -1q93 27 198 97q5 3 9 3q5 0 9 -5t4 -11q0 -10 -7 -14q-42 -32 -100 -67.5t-98 -46.5q2 -7 1 -10q10 -3 19 -12z" />
    <glyph glyph-name="egrave" unicode="&#xe8;" horiz-adv-x="240" 
d="M71 321q-14 -5 -22 -10l-16 -12q20 2 34 10q13 8 17 15q1 2 -13 -3zM-45 256q0 23 13.5 46.5t33.5 39.5q33 26 65 26q11 0 17 -2q18 -5 31.5 -20.5t13.5 -33.5q0 -27 -39 -37.5t-81 -7.5l-7 -14q-6 -18 -4 -19q29 -4 79 15q41 16 80 39t89 57q5 3 10 3q6 0 10 -5t4 -11
q0 -7 -6 -13q-158 -126 -239 -126q-32 0 -52 20q-18 18 -18 43zM104 437q4 -7 -5.5 -17t-18.5 -10q-5 0 -8 5l-24 50q-4 7 6 17t19 10q6 0 8 -5q19 -41 23 -50z" />
    <glyph glyph-name="eacute" unicode="&#xe9;" horiz-adv-x="240" 
d="M71 321q-14 -5 -22 -10l-16 -12q20 2 34 10q13 8 17 15q1 2 -13 -3zM-45 256q0 23 13.5 46.5t33.5 39.5q33 26 65 26q11 0 17 -2q18 -5 31.5 -20.5t13.5 -33.5q0 -27 -39 -37.5t-81 -7.5l-7 -14q-6 -18 -4 -19q29 -4 79 15q41 16 80 39t89 57q5 3 10 3q6 0 10 -5t4 -11
q0 -7 -6 -13q-158 -126 -239 -126q-32 0 -52 20q-18 18 -18 43zM86 489q9 0 18.5 -10.5t5.5 -18.5l-23 -49q-2 -5 -8 -5q-9 0 -18.5 10.5t-5.5 17.5l24 50q3 5 7 5z" />
    <glyph glyph-name="ecircumflex" unicode="&#xea;" horiz-adv-x="240" 
d="M71 321q-14 -5 -22 -10l-16 -12q20 2 34 10q13 8 17 15q1 2 -13 -3zM-45 256q0 23 13.5 46.5t33.5 39.5q33 26 65 26q11 0 17 -2q18 -5 31.5 -20.5t13.5 -33.5q0 -27 -39 -37.5t-81 -7.5l-7 -14q-6 -18 -4 -19q29 -4 79 15q41 16 80 39t89 57q5 3 10 3q6 0 10 -5t4 -11
q0 -7 -6 -13q-158 -126 -239 -126q-32 0 -52 20q-18 18 -18 43zM118 424v-2q0 -5 -7 -5q-3 0 -9 2q-6 3 -10.5 9t-5.5 13v1l-27 -32q-5 -6 -14 -1t-14.5 14t-0.5 15l51 61q7 8 18.5 -3t12.5 -20z" />
    <glyph glyph-name="edieresis" unicode="&#xeb;" horiz-adv-x="240" 
d="M71 321q-14 -5 -22 -10l-16 -12q20 2 34 10q13 8 17 15q1 2 -13 -3zM-45 256q0 23 13.5 46.5t33.5 39.5q33 26 65 26q11 0 17 -2q18 -5 31.5 -20.5t13.5 -33.5q0 -27 -39 -37.5t-81 -7.5l-7 -14q-6 -18 -4 -19q29 -4 79 15q41 16 80 39t89 57q5 3 10 3q6 0 10 -5t4 -11
q0 -7 -6 -13q-158 -126 -239 -126q-32 0 -52 20q-18 18 -18 43zM69 444q3 -7 2 -11l-8 -13q-2 -3 -5 -5h-3q-4 0 -12 5q-7 6 -10 12q-2 2 -2.5 5.5t0.5 5.5l8 13q2 4 4 5h3q6 0 13 -5q7 -6 10 -12zM92 456q2 4 5 5h3q7 0 12 -5q7 -6 10 -12q4 -8 2 -11l-8 -13q-2 -4 -4 -5
h-4q-3 0 -6.5 2t-5.5 3q-7 6 -10 12q-3 7 -2 11z" />
    <glyph glyph-name="igrave" unicode="&#xec;" horiz-adv-x="148" 
d="M164 351q6 0 10 -5.5t4 -12.5q0 -8 -4 -13q-92 -118 -148 -118q-14 0 -25 7q-26 16 -26 49q0 27 13 56t33 64q5 6 11 6q12 0 24.5 -13.5t7.5 -23.5q-19 -33 -33 -69q-3 -7 -3 -16q0 -6 2.5 -9t6.5 -2q18 7 35 20q41 27 83 75q5 5 9 5zM94 430q4 -7 -5.5 -17t-18.5 -10
q-5 0 -8 5l-24 50q-4 7 6 17t19 10q6 0 8 -5q19 -41 23 -50z" />
    <glyph glyph-name="iacute" unicode="&#xed;" horiz-adv-x="148" 
d="M164 351q6 0 10 -5.5t4 -12.5q0 -8 -4 -13q-92 -118 -148 -118q-14 0 -25 7q-26 16 -26 49q0 27 13 56t33 64q5 6 11 6q12 0 24.5 -13.5t7.5 -23.5q-19 -33 -33 -69q-3 -7 -3 -16q0 -6 2.5 -9t6.5 -2q18 7 35 20q41 27 83 75q5 5 9 5zM76 482q9 0 18.5 -10.5t5.5 -18.5
l-23 -49q-2 -5 -8 -5q-9 0 -18.5 10.5t-5.5 17.5l24 50q3 5 7 5z" />
    <glyph glyph-name="icircumflex" unicode="&#xee;" horiz-adv-x="148" 
d="M164 351q6 0 10 -5.5t4 -12.5q0 -8 -4 -13q-92 -118 -148 -118q-14 0 -25 7q-26 16 -26 49q0 27 13 56t33 64q5 6 11 6q12 0 24.5 -13.5t7.5 -23.5q-19 -33 -33 -69q-3 -7 -3 -16q0 -6 2.5 -9t6.5 -2q18 7 35 20q41 27 83 75q5 5 9 5zM108 417v-2q0 -5 -7 -5q-3 0 -9 2
q-6 3 -10.5 9t-5.5 13v1l-27 -32q-5 -6 -14 -1t-14.5 14t-0.5 15l51 61q7 8 18.5 -3t12.5 -20z" />
    <glyph glyph-name="idieresis" unicode="&#xef;" horiz-adv-x="148" 
d="M164 351q6 0 10 -5.5t4 -12.5q0 -8 -4 -13q-92 -118 -148 -118q-14 0 -25 7q-26 16 -26 49q0 27 13 56t33 64q5 6 11 6q12 0 24.5 -13.5t7.5 -23.5q-19 -33 -33 -69q-3 -7 -3 -16q0 -6 2.5 -9t6.5 -2q18 7 35 20q41 27 83 75q5 5 9 5zM59 437q3 -7 2 -11l-8 -13
q-2 -3 -5 -5h-3q-4 0 -12 5q-7 6 -10 12q-2 2 -2.5 5.5t0.5 5.5l8 13q2 4 4 5h3q6 0 13 -5q7 -6 10 -12zM82 449q2 4 5 5h3q7 0 12 -5q7 -6 10 -12q4 -8 2 -11l-8 -13q-2 -4 -4 -5h-4q-3 0 -6.5 2t-5.5 3q-7 6 -10 12q-3 7 -2 11z" />
    <glyph glyph-name="ntilde" unicode="&#xf1;" horiz-adv-x="319" 
d="M144 307l6 13q-2 0 -2 -1q-8 -6 -42 -32l-75 -67l-25 -23q-3 -3 -9 -3q-12 0 -24.5 14.5t-6.5 24.5q10 65 46 134q3 7 11 7q12 0 24.5 -14t7.5 -23q-12 -22 -18 -38q47 42 86 67q2 1 14.5 8.5t24.5 7.5q6 0 12 -3q13 -5 21 -17t8 -26q0 -17 -12 -47q-8 -25 -10 -35
q-1 -6 2 -6q35 7 67 32t73 66q5 5 10 5q7 0 12 -5.5t5 -13.5q0 -5 -5 -12q-37 -43 -79 -79.5t-75 -36.5q-4 0 -12 2q-19 7 -31 23.5t-12 35.5q0 14 8 42zM168 474q9 -5 14.5 -14t0.5 -15q-17 -21 -34 -21q-9 0 -22 8q-3 2 -8 7t-6 5q-5 0 -12.5 -8t-8.5 -9q-4 -6 -13 -1
t-14.5 14t-0.5 15q17 20 34 20q9 0 22 -8q2 -2 7.5 -6.5t6.5 -4.5q4 0 21 17q4 6 13 1z" />
    <glyph glyph-name="ograve" unicode="&#xf2;" horiz-adv-x="176" 
d="M65 295.5q10 17.5 10 31.5q0 6 -3 12l-2 5l-6 -6q-12 -11 -23 -29q-21 -40 -22 -66q13 8 25 23q11 12 21 29.5zM-25 261q0 33 25 81q29 49 61 49q11 0 20 -4q10 -4 16 -16.5t3 -19.5q6 -6 10 -12q6 -13 6 -29q0 -25 -14 -52t-35.5 -44.5t-41.5 -17.5q-28 0 -44 34
q-6 15 -6 31zM113 444q4 -7 -5.5 -17t-18.5 -10q-5 0 -8 5l-24 50q-4 7 6 17t19 10q6 0 8 -5q19 -41 23 -50z" />
    <glyph glyph-name="oacute" unicode="&#xf3;" horiz-adv-x="176" 
d="M65 295.5q10 17.5 10 31.5q0 6 -3 12l-2 5l-6 -6q-12 -11 -23 -29q-21 -40 -22 -66q13 8 25 23q11 12 21 29.5zM-25 261q0 33 25 81q29 49 61 49q11 0 20 -4q10 -4 16 -16.5t3 -19.5q6 -6 10 -12q6 -13 6 -29q0 -25 -14 -52t-35.5 -44.5t-41.5 -17.5q-28 0 -44 34
q-6 15 -6 31zM95 496q9 0 18.5 -10.5t5.5 -18.5l-23 -49q-2 -5 -8 -5q-9 0 -18.5 10.5t-5.5 17.5l24 50q3 5 7 5z" />
    <glyph glyph-name="ocircumflex" unicode="&#xf4;" horiz-adv-x="176" 
d="M65 295.5q10 17.5 10 31.5q0 6 -3 12l-2 5l-6 -6q-12 -11 -23 -29q-21 -40 -22 -66q13 8 25 23q11 12 21 29.5zM-25 261q0 33 25 81q29 49 61 49q11 0 20 -4q10 -4 16 -16.5t3 -19.5q6 -6 10 -12q6 -13 6 -29q0 -25 -14 -52t-35.5 -44.5t-41.5 -17.5q-28 0 -44 34
q-6 15 -6 31zM127 431v-2q0 -5 -7 -5q-3 0 -9 2q-6 3 -10.5 9t-5.5 13v1l-27 -32q-5 -6 -14 -1t-14.5 14t-0.5 15l51 61q7 8 18.5 -3t12.5 -20z" />
    <glyph glyph-name="otilde" unicode="&#xf5;" horiz-adv-x="176" 
d="M65 295.5q10 17.5 10 31.5q0 6 -3 12l-2 5l-6 -6q-12 -11 -23 -29q-21 -40 -22 -66q13 8 25 23q11 12 21 29.5zM-25 261q0 33 25 81q29 49 61 49q11 0 20 -4q10 -4 16 -16.5t3 -19.5q6 -6 10 -12q6 -13 6 -29q0 -25 -14 -52t-35.5 -44.5t-41.5 -17.5q-28 0 -44 34
q-6 15 -6 31zM132 476q9 -5 14.5 -14t0.5 -15q-17 -21 -34 -21q-9 0 -22 8q-3 2 -8 7t-6 5q-5 0 -12.5 -8t-8.5 -9q-4 -6 -13 -1t-14.5 14t-0.5 15q17 20 34 20q9 0 22 -8q2 -2 7.5 -6.5t6.5 -4.5q4 0 21 17q4 6 13 1z" />
    <glyph glyph-name="odieresis" unicode="&#xf6;" horiz-adv-x="176" 
d="M65 295.5q10 17.5 10 31.5q0 6 -3 12l-2 5l-6 -6q-12 -11 -23 -29q-21 -40 -22 -66q13 8 25 23q11 12 21 29.5zM-25 261q0 33 25 81q29 49 61 49q11 0 20 -4q10 -4 16 -16.5t3 -19.5q6 -6 10 -12q6 -13 6 -29q0 -25 -14 -52t-35.5 -44.5t-41.5 -17.5q-28 0 -44 34
q-6 15 -6 31zM78 451q3 -7 2 -11l-8 -13q-2 -3 -5 -5h-3q-4 0 -12 5q-7 6 -10 12q-2 2 -2.5 5.5t0.5 5.5l8 13q2 4 4 5h3q6 0 13 -5q7 -6 10 -12zM101 463q2 4 5 5h3q7 0 12 -5q7 -6 10 -12q4 -8 2 -11l-8 -13q-2 -4 -4 -5h-4q-3 0 -6.5 2t-5.5 3q-7 6 -10 12q-3 7 -2 11z
" />
    <glyph glyph-name="divide" unicode="&#xf7;" horiz-adv-x="223" 
d="M204.5 359q13.5 -13 13.5 -24q0 -7 -7 -8q-47 -11 -91 -11q-41 0 -89 10q-9 2 -17.5 13.5t-8.5 20.5q0 11 14 8q40 -8 79 -8q42 0 82 9q11 3 24.5 -10zM78 288q2 5 6 6h4q7 0 17 -6q8 -7 13 -16q2 -3 3 -7.5t-1 -7.5l-7 -13q-1 -4 -6 -6l-5 -1q-4 0 -16 7q-6 4 -13 15
q-6 11 -3 15q7 12 8 14zM103 440q2 5 6 6l4 1q7 0 16 -7q9 -6 14 -16q2 -3 3 -7.5t-1 -7.5l-8 -13q-2 -5 -5 -6h-5h-2q-6 0 -14 6q-10 8 -14 16q-4 11 -2 15z" />
    <glyph glyph-name="oslash" unicode="&#xf8;" horiz-adv-x="185" 
d="M49 266q18 20 25 40l-30 -27l-18 -17l-3 -19q12 7 26 23zM-21 261q0 33 26 81q29 49 61 49q10 0 19 -4q13 -6 19 -23l6 5q5 3 7 3q4 0 6 -3.5t2 -8.5q0 -8 -5 -12l-7 -7l1 -2q7 -13 7 -30q0 -25 -14 -51.5t-35.5 -44t-41.5 -17.5q-27 0 -43 31q-1 -1 -4 -1q-4 0 -6 3.5
t-2 8.5q0 8 5 12zM77 339v0l-2 5l-7 -6q-11 -11 -19 -25z" />
    <glyph glyph-name="ugrave" unicode="&#xf9;" horiz-adv-x="285" 
d="M31 286q-13 -28 -16 -44l16 9q23 15 43 33.5t49 47.5l36 34q5 3 9 3q11 0 22.5 -14t8.5 -24q-10 -30 -18 -65q-1 -3 -2 -7.5t-2 -10.5q2 0 4 2q14 6 31 20q31 25 77 76q5 5 10 5q7 0 12 -5.5t5 -12.5q0 -6 -5 -11q-35 -44 -74 -82.5t-64 -38.5q-6 0 -11 3q-31 17 -31 59
q-25 -24 -45.5 -39.5t-42.5 -25.5q-9 -4 -21 -4q-22 0 -37 16t-15 42t18 64q9 20 18.5 33.5t22.5 13.5q9 0 18 -6.5t14 -15.5q2 -6 2 -11q0 -12 -10 -11l-1 -1q-3 -2 -7 -8q-7 -8 -14 -24zM122 414q4 -7 -5.5 -17t-18.5 -10q-5 0 -8 5l-24 50q-4 7 6 17t19 10q6 0 8 -5
q19 -41 23 -50z" />
    <glyph glyph-name="uacute" unicode="&#xfa;" horiz-adv-x="285" 
d="M31 286q-13 -28 -16 -44l16 9q23 15 43 33.5t49 47.5l36 34q5 3 9 3q11 0 22.5 -14t8.5 -24q-10 -30 -18 -65q-1 -3 -2 -7.5t-2 -10.5q2 0 4 2q14 6 31 20q31 25 77 76q5 5 10 5q7 0 12 -5.5t5 -12.5q0 -6 -5 -11q-35 -44 -74 -82.5t-64 -38.5q-6 0 -11 3q-31 17 -31 59
q-25 -24 -45.5 -39.5t-42.5 -25.5q-9 -4 -21 -4q-22 0 -37 16t-15 42t18 64q9 20 18.5 33.5t22.5 13.5q9 0 18 -6.5t14 -15.5q2 -6 2 -11q0 -12 -10 -11l-1 -1q-3 -2 -7 -8q-7 -8 -14 -24zM104 466q9 0 18.5 -10.5t5.5 -18.5l-23 -49q-2 -5 -8 -5q-9 0 -18.5 10.5t-5.5 17.5
l24 50q3 5 7 5z" />
    <glyph glyph-name="ucircumflex" unicode="&#xfb;" horiz-adv-x="285" 
d="M31 286q-13 -28 -16 -44l16 9q23 15 43 33.5t49 47.5l36 34q5 3 9 3q11 0 22.5 -14t8.5 -24q-10 -30 -18 -65q-1 -3 -2 -7.5t-2 -10.5q2 0 4 2q14 6 31 20q31 25 77 76q5 5 10 5q7 0 12 -5.5t5 -12.5q0 -6 -5 -11q-35 -44 -74 -82.5t-64 -38.5q-6 0 -11 3q-31 17 -31 59
q-25 -24 -45.5 -39.5t-42.5 -25.5q-9 -4 -21 -4q-22 0 -37 16t-15 42t18 64q9 20 18.5 33.5t22.5 13.5q9 0 18 -6.5t14 -15.5q2 -6 2 -11q0 -12 -10 -11l-1 -1q-3 -2 -7 -8q-7 -8 -14 -24zM136 401v-2q0 -5 -7 -5q-3 0 -9 2q-6 3 -10.5 9t-5.5 13v1l-27 -32q-5 -6 -14 -1
t-14.5 14t-0.5 15l51 61q7 8 18.5 -3t12.5 -20z" />
    <glyph glyph-name="udieresis" unicode="&#xfc;" horiz-adv-x="285" 
d="M31 286q-13 -28 -16 -44l16 9q23 15 43 33.5t49 47.5l36 34q5 3 9 3q11 0 22.5 -14t8.5 -24q-10 -30 -18 -65q-1 -3 -2 -7.5t-2 -10.5q2 0 4 2q14 6 31 20q31 25 77 76q5 5 10 5q7 0 12 -5.5t5 -12.5q0 -6 -5 -11q-35 -44 -74 -82.5t-64 -38.5q-6 0 -11 3q-31 17 -31 59
q-25 -24 -45.5 -39.5t-42.5 -25.5q-9 -4 -21 -4q-22 0 -37 16t-15 42t18 64q9 20 18.5 33.5t22.5 13.5q9 0 18 -6.5t14 -15.5q2 -6 2 -11q0 -12 -10 -11l-1 -1q-3 -2 -7 -8q-7 -8 -14 -24zM87 421q3 -7 2 -11l-8 -13q-2 -3 -5 -5h-3q-4 0 -12 5q-7 6 -10 12q-2 2 -2.5 5.5
t0.5 5.5l8 13q2 4 4 5h3q6 0 13 -5q7 -6 10 -12zM110 433q2 4 5 5h3q7 0 12 -5q7 -6 10 -12q4 -8 2 -11l-8 -13q-2 -4 -4 -5h-4q-3 0 -6.5 2t-5.5 3q-7 6 -10 12q-3 7 -2 11z" />
    <glyph glyph-name="yacute" unicode="&#xfd;" horiz-adv-x="283" 
d="M78 124l15 31l-11 -11q-22 -23 -46 -59t-40 -68q-15 -29 -19 -50q10 9 20 23t13 18q33 45 68 116zM-65 -19q0 68 87 164q48 54 109 104l3 6l6 19q-28 -28 -51.5 -46.5t-48.5 -29.5q-9 -4 -21 -4q-22 0 -37 16t-15 41q0 27 18 65q9 20 18.5 33.5t22.5 13.5q10 0 19 -6.5
t13 -15.5q2 -6 2 -12q0 -11 -9 -10l-2 -1l-7 -8q-9 -12 -14 -24q-13 -28 -15 -44l15 9q32 22 89 77l39 37q0 1 1 1q2 2 8 2q11 0 23 -13t9 -23v-10q0 -9 -2 -27q51 33 96 52q9 4 15.5 -1.5t6.5 -14.5q0 -10 -10 -16q-66 -35 -124 -81q-2 -4 -2 -7q-20 -61 -59 -140
q-43 -81 -73 -121q-19 -26 -32 -39.5t-30 -17.5q-8 -2 -17 3t-14 13q-17 25 -17 56zM103 468q9 0 18.5 -10.5t5.5 -18.5l-23 -49q-2 -5 -8 -5q-9 0 -18.5 10.5t-5.5 17.5l24 50q3 5 7 5z" />
    <glyph glyph-name="ydieresis" unicode="&#xff;" horiz-adv-x="283" 
d="M78 124l15 31l-11 -11q-22 -23 -46 -59t-40 -68q-15 -29 -19 -50q10 9 20 23t13 18q33 45 68 116zM-65 -19q0 68 87 164q48 54 109 104l3 6l6 19q-28 -28 -51.5 -46.5t-48.5 -29.5q-9 -4 -21 -4q-22 0 -37 16t-15 41q0 27 18 65q9 20 18.5 33.5t22.5 13.5q10 0 19 -6.5
t13 -15.5q2 -6 2 -12q0 -11 -9 -10l-2 -1l-7 -8q-9 -12 -14 -24q-13 -28 -15 -44l15 9q32 22 89 77l39 37q0 1 1 1q2 2 8 2q11 0 23 -13t9 -23v-10q0 -9 -2 -27q51 33 96 52q9 4 15.5 -1.5t6.5 -14.5q0 -10 -10 -16q-66 -35 -124 -81q-2 -4 -2 -7q-20 -61 -59 -140
q-43 -81 -73 -121q-19 -26 -32 -39.5t-30 -17.5q-8 -2 -17 3t-14 13q-17 25 -17 56zM86 423q3 -7 2 -11l-8 -13q-2 -3 -5 -5h-3q-4 0 -12 5q-7 6 -10 12q-2 2 -2.5 5.5t0.5 5.5l8 13q2 4 4 5h3q6 0 13 -5q7 -6 10 -12zM109 435q2 4 5 5h3q7 0 12 -5q7 -6 10 -12q4 -8 2 -11
l-8 -13q-2 -4 -4 -5h-4q-3 0 -6.5 2t-5.5 3q-7 6 -10 12q-3 7 -2 11z" />
    <glyph glyph-name="Amacron" unicode="&#x100;" horiz-adv-x="711" 
d="M444 426q33 3 67 3q24 0 36 -1l27 -2l18 45q51 117 93 198q-33 -19 -81 -67q-72 -67 -160 -176zM10 102q0 6 4 9.5t11 1.5q9 -3 18 -3q25 0 49 16t58 45q76 69 177 194q-91 -17 -157 -51q-9 -5 -23.5 7t-14.5 24q0 8 7 11q48 26 105.5 40t126.5 23l18 22q38 48 58 71
q44 52 78.5 88.5t71.5 67.5q33 29 65 46.5t65 18.5q11 0 25 -13.5t8 -23.5q-29 -48 -64 -122q-39 -78 -72 -159q12 -4 18 -7q8 -4 15 -12.5t7 -16.5q0 -11 -11 -11q-4 0 -10 2q-13 7 -32 10q-14 -34 -31 -82q-24 -71 -32 -120q-5 -25 -5 -45l2 -15l1 -4q7 -12 7 -16
q0 -7 -7 -11q-7 -3 -16 3t-14 13q-16 23 -16 57q0 19 3 37q12 76 54 188h-3q-65 2 -130 -6l-21 -3q-70 -86 -106 -128q-46 -53 -76.5 -84.5t-65.5 -57.5q-52 -40 -92 -40q-11 0 -26 5q-9 3 -17.5 10.5t-9.5 16.5v4zM779 795q0 -4 -2 -8q-3 -6 -9 -10.5t-13 -4.5h-68
q-7 0 -7 6q0 3 3 9t9 10.5t13 4.5h67q7 0 7 -7z" />
    <glyph glyph-name="amacron" unicode="&#x101;" horiz-adv-x="295" 
d="M98 326q-5 9 -18 9q-7 0 -9 -2q-17 -11 -35 -32q-19 -24 -29 -45q40 19 91 70zM-29.5 301q19.5 36 47.5 60q24 21 49 21q32 0 53 -32q3 3 8 3q11 0 23.5 -14t9.5 -24q-3 -18 -11 -40q-10 -31 -11 -38q3 0 4 1q15 3 28.5 10.5t32.5 19.5q39 27 98 80q4 4 10 4
q7 0 12.5 -6.5t5.5 -14.5q0 -7 -5 -12q-50 -53 -92.5 -89.5t-77.5 -36.5q-20 0 -36 13.5t-21 32.5q-2 8 -2 12q-60 -47 -112 -54q-11 -1 -22.5 10.5t-11.5 22.5q1 35 20.5 71zM169 441q0 -4 -2 -8q-3 -6 -9 -10.5t-13 -4.5h-68q-7 0 -7 6q0 3 3 9t9 10.5t13 4.5h67q7 0 7 -7
z" />
    <glyph glyph-name="Abreve" unicode="&#x102;" horiz-adv-x="711" 
d="M444 426q33 3 67 3q24 0 36 -1l27 -2l18 45q51 117 93 198q-33 -19 -81 -67q-72 -67 -160 -176zM10 102q0 6 4 9.5t11 1.5q9 -3 18 -3q25 0 49 16t58 45q76 69 177 194q-91 -17 -157 -51q-9 -5 -23.5 7t-14.5 24q0 8 7 11q48 26 105.5 40t126.5 23l18 22q38 48 58 71
q44 52 78.5 88.5t71.5 67.5q33 29 65 46.5t65 18.5q11 0 25 -13.5t8 -23.5q-29 -48 -64 -122q-39 -78 -72 -159q12 -4 18 -7q8 -4 15 -12.5t7 -16.5q0 -11 -11 -11q-4 0 -10 2q-13 7 -32 10q-14 -34 -31 -82q-24 -71 -32 -120q-5 -25 -5 -45l2 -15l1 -4q7 -12 7 -16
q0 -7 -7 -11q-7 -3 -16 3t-14 13q-16 23 -16 57q0 19 3 37q12 76 54 188h-3q-65 2 -130 -6l-21 -3q-70 -86 -106 -128q-46 -53 -76.5 -84.5t-65.5 -57.5q-52 -40 -92 -40q-11 0 -26 5q-9 3 -17.5 10.5t-9.5 16.5v4zM770.5 818.5q4.5 -6.5 4.5 -12.5q2 -22 -10.5 -39.5
t-34.5 -17.5q-18 0 -31 12.5t-14 30.5v6q0 14 5 27q2 5 7 5q8 0 17 -10t6 -17q-4 -12 -4 -20v-3q5 0 7 1q12 4 17.5 16t3.5 25q0 6 5 7t11 -1q6 -3 10.5 -9.5z" />
    <glyph glyph-name="abreve" unicode="&#x103;" horiz-adv-x="295" 
d="M98 326q-5 9 -18 9q-7 0 -9 -2q-17 -11 -35 -32q-19 -24 -29 -45q40 19 91 70zM-29.5 301q19.5 36 47.5 60q24 21 49 21q32 0 53 -32q3 3 8 3q11 0 23.5 -14t9.5 -24q-3 -18 -11 -40q-10 -31 -11 -38q3 0 4 1q15 3 28.5 10.5t32.5 19.5q39 27 98 80q4 4 10 4
q7 0 12.5 -6.5t5.5 -14.5q0 -7 -5 -12q-50 -53 -92.5 -89.5t-77.5 -36.5q-20 0 -36 13.5t-21 32.5q-2 8 -2 12q-60 -47 -112 -54q-11 -1 -22.5 10.5t-11.5 22.5q1 35 20.5 71zM160.5 464.5q4.5 -6.5 4.5 -12.5q2 -22 -10.5 -39.5t-34.5 -17.5q-18 0 -31 12.5t-14 30.5v6
q0 14 5 27q2 5 7 5q8 0 17 -10t6 -17q-4 -12 -4 -20v-3q5 0 7 1q12 4 17.5 16t3.5 25q0 6 5 7t11 -1q6 -3 10.5 -9.5z" />
    <glyph glyph-name="Aogonek" unicode="&#x104;" horiz-adv-x="711" 
d="M444 426q33 3 67 3q24 0 36 -1l27 -2l18 45q51 117 93 198q-33 -19 -81 -67q-72 -67 -160 -176zM10 102q0 6 4 9.5t11 1.5q9 -3 18 -3q25 0 49 16t58 45q76 69 177 194q-91 -17 -157 -51q-9 -5 -23.5 7t-14.5 24q0 8 7 11q48 26 105.5 40t126.5 23l18 22q38 48 58 71
q44 52 78.5 88.5t71.5 67.5q33 29 65 46.5t65 18.5q11 0 25 -13.5t8 -23.5q-29 -48 -64 -122q-39 -78 -72 -159q12 -4 18 -7q8 -4 15 -12.5t7 -16.5q0 -11 -11 -11q-4 0 -10 2q-13 7 -32 10q-14 -34 -31 -82q-24 -71 -32 -120q-5 -25 -5 -45l2 -15l1 -4q5 -7 7 -16
q5 -7 5 -13t-5 -7q-56 -20 -61 -55v-2h1q15 0 30 9q7 4 16 -1.5t14 -14.5t-1 -13q-19 -11 -39 -11q-17 0 -30.5 8.5t-20.5 25.5q-3 9 -3 17q0 19 16.5 35t40.5 28q-16 23 -16 56q0 19 3 37q12 76 54 188h-3q-65 2 -130 -6l-21 -3q-70 -86 -106 -128q-46 -53 -76.5 -84.5
t-65.5 -57.5q-52 -40 -92 -40q-11 0 -26 5q-9 3 -17.5 10.5t-9.5 16.5v4zM492 20q-1 -1 -0.5 -1.5t0.5 0.5v1zM492 20v-1q1 1 0 1z" />
    <glyph glyph-name="aogonek" unicode="&#x105;" horiz-adv-x="295" 
d="M98 326q-5 9 -18 9q-7 0 -9 -2q-17 -11 -35 -32q-19 -24 -29 -45q40 19 91 70zM-29.5 301q19.5 36 47.5 60q24 21 49 21q32 0 53 -32q3 3 8 3q11 0 23.5 -14t9.5 -24q-3 -18 -11 -40q-10 -31 -11 -38q3 0 4 1q15 3 28.5 10.5t32.5 19.5q39 27 98 80q4 4 10 4
q7 0 12.5 -6.5t5.5 -14.5q0 -7 -5 -12q-50 -53 -93 -90t-78 -36q-50 -21 -55 -53v-2h1q15 0 30 9q7 4 16 -1.5t14 -14.5t-1 -13q-19 -11 -39 -11q-17 0 -30.5 8.5t-20.5 25.5q-3 9 -3 17q0 17 12.5 31.5t32.5 25.5q-8 10 -13 24q-2 8 -2 12q-60 -47 -112 -54
q-11 -1 -22.5 10.5t-11.5 22.5q1 35 20.5 71zM99 137q-1 -1 -0.5 -1.5t0.5 0.5v1zM99 137v-1q1 1 0 1z" />
    <glyph glyph-name="Cacute" unicode="&#x106;" horiz-adv-x="392" 
d="M59.5 109q-28.5 26 -40.5 66.5t-8 82.5q11 138 104 289q41 67 84.5 112.5t96.5 46.5q38 0 62.5 -29t24.5 -67q0 -57 -41 -143q-3 -7 -10 -7q-12 0 -24 14t-8 24q19 42 29 71.5t10 59.5q0 21 -3 27t-15 6q-20 0 -44 -13q-46 -27 -81.5 -75t-69.5 -113q-72 -144 -73 -248
q0 -23 5 -44.5t15 -31.5l13 -7q12 -4 27 -4q29 1 66 19q63 30 121.5 85.5t104.5 122.5q5 6 10 6q6 0 11.5 -6t5.5 -13q0 -5 -3 -10q-61 -87 -140 -167t-157 -80q-44 0 -72.5 26zM323 806q9 0 18.5 -10.5t5.5 -18.5l-23 -49q-2 -5 -8 -5q-9 0 -18.5 10.5t-5.5 17.5l24 50
q3 5 7 5z" />
    <glyph glyph-name="cacute" unicode="&#x107;" horiz-adv-x="214" 
d="M-35 251q0 29 15 54q15 28 35 49t42 21q12 0 23 -7q15 -10 15 -25q0 -6 -3.5 -9t-10.5 -2h-2q-5 0 -11 -5q-9 -5 -18 -16q-23 -23 -34 -48q-2 -4 -2 -7q0 -4 3 -6t7 -1q93 27 198 97q5 3 9 3q5 0 9 -5t4 -11q0 -10 -7 -14q-58 -43 -129.5 -84t-103.5 -34q-39 8 -39 50z
M88 483q9 0 18.5 -10.5t5.5 -18.5l-23 -49q-2 -5 -8 -5q-9 0 -18.5 10.5t-5.5 17.5l24 50q3 5 7 5z" />
    <glyph glyph-name="Cdotaccent" unicode="&#x10a;" horiz-adv-x="392" 
d="M59.5 109q-28.5 26 -40.5 66.5t-8 82.5q11 138 104 289q41 67 84.5 112.5t96.5 46.5q38 0 62.5 -29t24.5 -67q0 -57 -41 -143q-3 -7 -10 -7q-12 0 -24 14t-8 24q19 42 29 71.5t10 59.5q0 21 -3 27t-15 6q-20 0 -44 -13q-46 -27 -81.5 -75t-69.5 -113q-72 -144 -73 -248
q0 -23 5 -44.5t15 -31.5l13 -7q12 -4 27 -4q29 1 66 19q63 30 121.5 85.5t104.5 122.5q5 6 10 6q6 0 11.5 -6t5.5 -13q0 -5 -3 -10q-61 -87 -140 -167t-157 -80q-44 0 -72.5 26zM334 765q3 -7 2 -11l-8 -13q-2 -3 -5 -5h-3q-4 0 -12 5q-7 6 -10 12q-2 2 -2.5 5.5t0.5 5.5
l8 13q2 4 4 5h3q6 0 13 -5q7 -6 10 -12z" />
    <glyph glyph-name="cdotaccent" unicode="&#x10b;" horiz-adv-x="214" 
d="M-35 251q0 29 15 54q15 28 35 49t42 21q12 0 23 -7q15 -10 15 -25q0 -6 -3.5 -9t-10.5 -2h-2q-5 0 -11 -5q-9 -5 -18 -16q-23 -23 -34 -48q-2 -4 -2 -7q0 -4 3 -6t7 -1q93 27 198 97q5 3 9 3q5 0 9 -5t4 -11q0 -10 -7 -14q-58 -43 -129.5 -84t-103.5 -34q-39 8 -39 50z
M99 442q3 -7 2 -11l-8 -13q-2 -3 -5 -5h-3q-4 0 -12 5q-7 6 -10 12q-2 2 -2.5 5.5t0.5 5.5l8 13q2 4 4 5h3q6 0 13 -5q7 -6 10 -12z" />
    <glyph glyph-name="Ccaron" unicode="&#x10c;" horiz-adv-x="392" 
d="M59.5 109q-28.5 26 -40.5 66.5t-8 82.5q11 138 104 289q41 67 84.5 112.5t96.5 46.5q38 0 62.5 -29t24.5 -67q0 -57 -41 -143q-3 -7 -10 -7q-12 0 -24 14t-8 24q19 42 29 71.5t10 59.5q0 21 -3 27t-15 6q-20 0 -44 -13q-46 -27 -81.5 -75t-69.5 -113q-72 -144 -73 -248
q0 -23 5 -44.5t15 -31.5l13 -7q12 -4 27 -4q29 1 66 19q63 30 121.5 85.5t104.5 122.5q5 6 10 6q6 0 11.5 -6t5.5 -13q0 -5 -3 -10q-61 -87 -140 -167t-157 -80q-44 0 -72.5 26zM344 812q9 -5 14.5 -14t0.5 -15l-51 -60q-7 -8 -18.5 3t-12.5 19l-6 52v2q0 6 7 6q3 0 9 -2
q6 -3 10.5 -9t5.5 -13v-1l27 32q5 5 14 0z" />
    <glyph glyph-name="ccaron" unicode="&#x10d;" horiz-adv-x="214" 
d="M-35 251q0 29 15 54q15 28 35 49t42 21q12 0 23 -7q15 -10 15 -25q0 -6 -3.5 -9t-10.5 -2h-2q-5 0 -11 -5q-9 -5 -18 -16q-23 -23 -34 -48q-2 -4 -2 -7q0 -4 3 -6t7 -1q93 27 198 97q5 3 9 3q5 0 9 -5t4 -11q0 -10 -7 -14q-58 -43 -129.5 -84t-103.5 -34q-39 8 -39 50z
M109 489q9 -5 14.5 -14t0.5 -15l-51 -60q-7 -8 -18.5 3t-12.5 19l-6 52v2q0 6 7 6q3 0 9 -2q6 -3 10.5 -9t5.5 -13v-1l27 32q5 5 14 0z" />
    <glyph glyph-name="Dcaron" unicode="&#x10e;" horiz-adv-x="520" 
d="M14 131q-6 9 -3 16q4 7 11 7q6 0 15 -7q20 -16 51 -16q22 0 43 6q-12 8 -18 23q-7 27 -7 58q0 36 8 72.5t23 86.5q30 102 86 219q3 7 10 7q12 0 24 -14t8 -24q-50 -106 -82 -206q-17 -56 -25.5 -91t-8.5 -70q0 -25 6 -49l1 -4q42 17 86 48q64 45 114 108.5t81 138.5
q39 88 39 146q0 23 -6.5 41.5t-21.5 27.5q-26 16 -61 16q-56 0 -130 -38q-61 -32 -109 -83t-75 -114q-3 -7 -10 -7q-12 0 -24 14t-8 24q33 78 97 139t144 90q46 16 92 16q75 0 119 -48q37 -40 37 -103q0 -73 -53 -181q-39 -79 -97 -144t-130 -107q-71 -39 -130 -39
q-51 0 -83 27q-7 5 -13 14zM377 830q9 -5 14.5 -14t0.5 -15l-51 -60q-7 -8 -18.5 3t-12.5 19l-6 52v2q0 6 7 6q3 0 9 -2q6 -3 10.5 -9t5.5 -13v-1l27 32q5 5 14 0z" />
    <glyph glyph-name="dcaron" unicode="&#x10f;" horiz-adv-x="249" 
d="M46 276.5q14 15.5 37 45.5q2 4 8 12q-3 3 -8 3q-11 0 -25.5 -15.5t-23.5 -29.5q-15 -25 -20 -41q18 10 32 25.5zM-35 247q0 23 12 49t28 46q27 35 59 35q23 0 45 -19q43 63 110 181q30 63 66 123q3 6 11 6q12 0 24.5 -14t6.5 -23l-66 -123q-28 -55 -54 -121
q-24 -59 -38 -114q-11 -44 -11 -64q0 -5 1 -11t1 -12q0 -10 -9 -10t-20.5 9t-12.5 18q-2 20 -2 30q0 22 5 52l-3 -4q-29 -37 -54 -59.5t-57 -22.5q-13 0 -23.5 8t-15.5 20q-3 9 -3 20zM177 590q9 -5 14.5 -14t0.5 -15l-51 -60q-7 -8 -18.5 3t-12.5 19l-6 52v2q0 6 7 6
q3 0 9 -2q6 -3 10.5 -9t5.5 -13v-1l27 32q5 5 14 0z" />
    <glyph glyph-name="Dcroat" unicode="&#x110;" horiz-adv-x="520" 
d="M520 561q0 -73 -53 -181q-39 -79 -97 -144t-130 -107q-71 -39 -130 -39q-51 0 -83 27q-7 5 -13 14t-3 16t10 7t16 -7q20 -16 51 -16q22 0 43 6q-12 8 -18 23q-7 27 -7 58q0 51 23 131q-39 -16 -62 -32q-10 -1 -22 10.5t-12 22.5q0 7 6 11q26 16 89 44l21 10q30 88 74 181
q3 7 10 7q12 0 24 -14t8 -24q-31 -64 -56 -130q26 7 35 8q27 5 51 5q40 0 63 -18q7 -6 13 -15t2 -16q-3 -6 -9 -6q-8 0 -17 7q-1 0 -3 1t-7 2q-7 1 -21 1q-33 0 -65 -9q-17 -3 -63 -20l-5 -16q-17 -56 -25.5 -91t-8.5 -70q0 -25 6 -49l1 -4q42 17 86 48q64 45 114 108.5
t81 138.5q39 88 39 146q0 23 -6.5 41.5t-21.5 27.5q-26 16 -61 16q-56 0 -130 -38q-61 -32 -109 -83t-75 -114q-3 -7 -10 -7q-12 0 -24 14t-8 24q33 78 97 139t144 90q46 16 92 16q75 0 119 -48q37 -40 37 -103z" />
    <glyph glyph-name="dcroat" unicode="&#x111;" horiz-adv-x="249" 
d="M91 334q-3 3 -8 3q-11 0 -25.5 -15.5t-23.5 -29.5q-15 -25 -20 -41q18 10 32 25.5t37 45.5q2 4 8 12zM-35 247q0 23 12 49t28 46q27 35 59 35q23 0 45 -19q36 53 85 138h-32q-6 0 -7 5t2 10q3 6 9 10.5t13 4.5h32l8 13q30 63 66 123q3 6 11 6q12 0 24.5 -14t6.5 -23
l-57 -105h24q7 0 7 -7q0 -3 -1 -5l-2 -4q-3 -6 -9.5 -10t-12.5 -4h-21q-27 -57 -48 -109q-24 -59 -38 -114q-11 -44 -11 -64q0 -5 1 -11t1 -12q0 -10 -9 -10t-20.5 9t-12.5 18q-2 20 -2 30q0 22 5 52l-3 -4q-29 -37 -54 -59.5t-57 -22.5q-13 0 -23.5 8t-15.5 20q-3 9 -3 20z
" />
    <glyph glyph-name="Emacron" unicode="&#x112;" horiz-adv-x="379" 
d="M58.5 105q-30.5 23 -42.5 58q-6 21 -6 42q0 55 35 113q47 80 134 127q-42 35 -42 85q0 38 24 75t59 64q48 34 84 34q23 0 41 -14q26 -21 26 -56q0 -29 -17 -69q-3 -7 -10 -7q-12 0 -24 14t-8 24q9 23 13 38q3 12 3 24q0 4 -14.5 0.5t-22.5 -7.5q-23 -10 -44 -28
q-50 -43 -63 -89q-4 -12 -4 -24q0 -34 40 -54q6 -3 14 -12.5t8 -17.5q0 -7 -7 -10q-50 -22 -91 -59t-65 -83q-27 -52 -27 -89q0 -22 8 -37q12 -23 43 -23q23 0 58 14q36 16 70 42t70 61q58 56 96 112q5 6 12 6t13.5 -5.5t6.5 -12.5q0 -4 -3 -9q-62 -89 -142 -169.5
t-158 -80.5q-37 0 -67.5 23zM374 759q0 -4 -2 -8q-3 -6 -9 -10.5t-13 -4.5h-68q-7 0 -7 6q0 3 3 9t9 10.5t13 4.5h67q7 0 7 -7z" />
    <glyph glyph-name="emacron" unicode="&#x113;" horiz-adv-x="240" 
d="M71 321q-14 -5 -22 -10l-16 -12q20 2 34 10q13 8 17 15q1 2 -13 -3zM-45 256q0 23 13.5 46.5t33.5 39.5q33 26 65 26q11 0 17 -2q18 -5 31.5 -20.5t13.5 -33.5q0 -27 -39 -37.5t-81 -7.5l-7 -14q-6 -18 -4 -19q29 -4 79 15q41 16 80 39t89 57q5 3 10 3q6 0 10 -5t4 -11
q0 -7 -6 -13q-158 -126 -239 -126q-32 0 -52 20q-18 18 -18 43zM128 449q0 -4 -2 -8q-3 -6 -9 -10.5t-13 -4.5h-68q-7 0 -7 6q0 3 3 9t9 10.5t13 4.5h67q7 0 7 -7z" />
    <glyph glyph-name="Edotaccent" unicode="&#x116;" horiz-adv-x="379" 
d="M58.5 105q-30.5 23 -42.5 58q-6 21 -6 42q0 55 35 113q47 80 134 127q-42 35 -42 85q0 38 24 75t59 64q48 34 84 34q23 0 41 -14q26 -21 26 -56q0 -29 -17 -69q-3 -7 -10 -7q-12 0 -24 14t-8 24q9 23 13 38q3 12 3 24q0 4 -14.5 0.5t-22.5 -7.5q-23 -10 -44 -28
q-50 -43 -63 -89q-4 -12 -4 -24q0 -34 40 -54q6 -3 14 -12.5t8 -17.5q0 -7 -7 -10q-50 -22 -91 -59t-65 -83q-27 -52 -27 -89q0 -22 8 -37q12 -23 43 -23q23 0 58 14q36 16 70 42t70 61q58 56 96 112q5 6 12 6t13.5 -5.5t6.5 -12.5q0 -4 -3 -9q-62 -89 -142 -169.5
t-158 -80.5q-37 0 -67.5 23zM343 758q3 -7 2 -11l-8 -13q-2 -3 -5 -5h-3q-4 0 -12 5q-7 6 -10 12q-2 2 -2.5 5.5t0.5 5.5l8 13q2 4 4 5h3q6 0 13 -5q7 -6 10 -12z" />
    <glyph glyph-name="edotaccent" unicode="&#x117;" horiz-adv-x="240" 
d="M71 321q-14 -5 -22 -10l-16 -12q20 2 34 10q13 8 17 15q1 2 -13 -3zM-45 256q0 23 13.5 46.5t33.5 39.5q33 26 65 26q11 0 17 -2q18 -5 31.5 -20.5t13.5 -33.5q0 -27 -39 -37.5t-81 -7.5l-7 -14q-6 -18 -4 -19q29 -4 79 15q41 16 80 39t89 57q5 3 10 3q6 0 10 -5t4 -11
q0 -7 -6 -13q-158 -126 -239 -126q-32 0 -52 20q-18 18 -18 43zM97 448q3 -7 2 -11l-8 -13q-2 -3 -5 -5h-3q-4 0 -12 5q-7 6 -10 12q-2 2 -2.5 5.5t0.5 5.5l8 13q2 4 4 5h3q6 0 13 -5q7 -6 10 -12z" />
    <glyph glyph-name="Eogonek" unicode="&#x118;" horiz-adv-x="379" 
d="M92 22q-1 -1 -0.5 -1.5t0.5 0.5v1zM10 205q0 55 35 113q47 80 134 127q-42 35 -42 85q0 38 24 75t59 64q48 34 84 34q23 0 41 -14q26 -21 26 -56q0 -29 -17 -69q-3 -7 -10 -7q-12 0 -24 14t-8 24q9 23 13 38q3 12 3 24q0 4 -14.5 0.5t-22.5 -7.5q-23 -10 -44 -28
q-50 -43 -63 -89q-4 -12 -4 -24q0 -34 40 -54q6 -3 14 -12.5t8 -17.5q0 -7 -7 -10q-50 -22 -91 -59t-65 -83q-27 -52 -27 -89q0 -22 8 -37q12 -23 43 -23q23 0 58 14q36 16 70 42t70 61q58 56 96 112q5 6 12 6t13.5 -5.5t6.5 -12.5q0 -4 -3 -9q-54 -77 -124.5 -153
t-143.5 -93q0 -4 -5 -6q-56 -20 -61 -55v-2h1q15 0 30 9q7 4 16 -1.5t14 -14.5t-1 -13q-19 -11 -39 -11q-17 0 -30.5 8.5t-20.5 25.5q-3 9 -3 17q0 26 29 46q-25 9 -44 28.5t-28 45.5q-6 21 -6 42zM92 22v-1q1 1 0 1z" />
    <glyph glyph-name="eogonek" unicode="&#x119;" horiz-adv-x="240" 
d="M71 321q-14 -5 -22 -10l-16 -12q20 2 34 10q13 8 17 15q1 2 -13 -3zM-34 160q0 22 23 41q-8 4 -16 12q-18 18 -18 43q0 23 13.5 46.5t33.5 39.5q33 26 65 26q11 0 17 -2q18 -5 31.5 -20.5t13.5 -33.5q0 -27 -39 -37.5t-81 -7.5l-7 -14q-6 -18 -4 -19q29 -4 79 15
q41 16 80 39t89 57q5 3 10 3q6 0 10 -5t4 -11q0 -7 -6 -13q-125 -100 -201 -120l-3 -2q-56 -20 -61 -55v-2h1q15 0 30 9q7 4 16 -1.5t14 -14.5t-1 -13q-19 -11 -39 -11q-17 0 -30.5 8.5t-20.5 25.5q-3 9 -3 17zM-1 139q-1 -1 -0.5 -1.5t0.5 0.5v1zM-1 139v-1q1 1 0 1z" />
    <glyph glyph-name="Ecaron" unicode="&#x11a;" horiz-adv-x="379" 
d="M58.5 105q-30.5 23 -42.5 58q-6 21 -6 42q0 55 35 113q47 80 134 127q-42 35 -42 85q0 38 24 75t59 64q48 34 84 34q23 0 41 -14q26 -21 26 -56q0 -29 -17 -69q-3 -7 -10 -7q-12 0 -24 14t-8 24q9 23 13 38q3 12 3 24q0 4 -14.5 0.5t-22.5 -7.5q-23 -10 -44 -28
q-50 -43 -63 -89q-4 -12 -4 -24q0 -34 40 -54q6 -3 14 -12.5t8 -17.5q0 -7 -7 -10q-50 -22 -91 -59t-65 -83q-27 -52 -27 -89q0 -22 8 -37q12 -23 43 -23q23 0 58 14q36 16 70 42t70 61q58 56 96 112q5 6 12 6t13.5 -5.5t6.5 -12.5q0 -4 -3 -9q-62 -89 -142 -169.5
t-158 -80.5q-37 0 -67.5 23zM353 805q9 -5 14.5 -14t0.5 -15l-51 -60q-7 -8 -18.5 3t-12.5 19l-6 52v2q0 6 7 6q3 0 9 -2q6 -3 10.5 -9t5.5 -13v-1l27 32q5 5 14 0z" />
    <glyph glyph-name="ecaron" unicode="&#x11b;" horiz-adv-x="240" 
d="M71 321q-14 -5 -22 -10l-16 -12q20 2 34 10q13 8 17 15q1 2 -13 -3zM-45 256q0 23 13.5 46.5t33.5 39.5q33 26 65 26q11 0 17 -2q18 -5 31.5 -20.5t13.5 -33.5q0 -27 -39 -37.5t-81 -7.5l-7 -14q-6 -18 -4 -19q29 -4 79 15q41 16 80 39t89 57q5 3 10 3q6 0 10 -5t4 -11
q0 -7 -6 -13q-158 -126 -239 -126q-32 0 -52 20q-18 18 -18 43zM107 495q9 -5 14.5 -14t0.5 -15l-51 -60q-7 -8 -18.5 3t-12.5 19l-6 52v2q0 6 7 6q3 0 9 -2q6 -3 10.5 -9t5.5 -13v-1l27 32q5 5 14 0z" />
    <glyph glyph-name="Gbreve" unicode="&#x11e;" horiz-adv-x="462" 
d="M11 240q11 138 103 294q43 74 88 119q25 24 49 38t50 14q36 0 60.5 -29t24.5 -68q0 -57 -41 -141q-3 -7 -10 -7q-12 0 -24 14t-8 24q40 80 40 131q0 20 -3.5 27t-13.5 7q-23 0 -50 -18q-46 -30 -81.5 -81t-68.5 -118q-72 -146 -72 -251q0 -28 6 -46q2 -9 6 -15l4 -5
q11 -7 24 -7q18 0 32.5 8.5t34.5 25.5q39 34 68.5 75.5t71.5 110.5l13 21q-33 -10 -67 -24q-11 -4 -24.5 8.5t-13.5 23.5q0 7 7 10q92 39 163 39q30 0 51 -11q8 -5 15 -12.5t7 -16.5q0 -11 -11 -11q-5 0 -10 3q-15 7 -45 5v-1q-21 -44 -49 -114q-22 -57 -31 -93
q-1 -3 -5.5 -18.5t-4.5 -28.5q0 -5 2 -13q1 -2 1 -6q0 -12 -16 -10q-9 2 -16.5 10t-10.5 17q-3 11 -3 21q0 12 7 45q-30 -41 -60.5 -69.5t-65.5 -36.5q-12 -2 -18 -2q-25 0 -47.5 14t-36.5 37q-26 42 -21 111zM384.5 796.5q4.5 -6.5 4.5 -12.5q2 -22 -10.5 -39.5
t-34.5 -17.5q-18 0 -31 12.5t-14 30.5v6q0 14 5 27q2 5 7 5q8 0 17 -10t6 -17q-4 -12 -4 -20v-3q5 0 7 1q12 4 17.5 16t3.5 25q0 6 5 7t11 -1q6 -3 10.5 -9.5z" />
    <glyph glyph-name="gbreve" unicode="&#x11f;" horiz-adv-x="249" 
d="M35 111q14 28 20 43q-64 -71 -94 -137q-15 -29 -19 -50q11 10 30 36q31 42 63 108zM-100 -19q0 68 87 164q43 51 101 97q2 6 2 7q-47 -38 -90 -50q-12 -3 -24.5 8.5t-12.5 24.5q-1 27 11 58.5t31 54.5q20 24 44 24q29 0 55 -31l2 3q4 4 9 4q10 0 20.5 -12.5t11.5 -21.5
q0 -17 -1 -25q54 36 110 61q6 2 7 2q7 0 11.5 -4.5t4.5 -9.5q0 -8 -10 -14q-77 -43 -133 -90q-2 -9 -8 -27q-20 -63 -53 -129q-30 -62 -66 -112q-17 -23 -30.5 -36.5t-30.5 -17.5q-8 -2 -17 3t-14 13q-17 25 -17 56zM84 317l-8 8q-8 10 -24 -8t-23 -31q-7 -12 -11 -23
q33 19 66 54zM121.5 465.5q4.5 -6.5 4.5 -12.5q2 -22 -10.5 -39.5t-34.5 -17.5q-18 0 -31 12.5t-14 30.5v6q0 14 5 27q2 5 7 5q8 0 17 -10t6 -17q-4 -12 -4 -20v-3q5 0 7 1q12 4 17.5 16t3.5 25q0 6 5 7t11 -1q6 -3 10.5 -9.5z" />
    <glyph glyph-name="Gdotaccent" unicode="&#x120;" horiz-adv-x="462" 
d="M11 240q11 138 103 294q43 74 88 119q25 24 49 38t50 14q36 0 60.5 -29t24.5 -68q0 -57 -41 -141q-3 -7 -10 -7q-12 0 -24 14t-8 24q40 80 40 131q0 20 -3.5 27t-13.5 7q-23 0 -50 -18q-46 -30 -81.5 -81t-68.5 -118q-72 -146 -72 -251q0 -28 6 -46q2 -9 6 -15l4 -5
q11 -7 24 -7q18 0 32.5 8.5t34.5 25.5q39 34 68.5 75.5t71.5 110.5l13 21q-33 -10 -67 -24q-11 -4 -24.5 8.5t-13.5 23.5q0 7 7 10q92 39 163 39q30 0 51 -11q8 -5 15 -12.5t7 -16.5q0 -11 -11 -11q-5 0 -10 3q-15 7 -45 5v-1q-21 -44 -49 -114q-22 -57 -31 -93
q-1 -3 -5.5 -18.5t-4.5 -28.5q0 -5 2 -13q1 -2 1 -6q0 -12 -16 -10q-9 2 -16.5 10t-10.5 17q-3 11 -3 21q0 12 7 45q-30 -41 -60.5 -69.5t-65.5 -36.5q-12 -2 -18 -2q-25 0 -47.5 14t-36.5 37q-26 42 -21 111zM362 772q3 -7 2 -11l-8 -13q-2 -3 -5 -5h-3q-4 0 -12 5
q-7 6 -10 12q-2 2 -2.5 5.5t0.5 5.5l8 13q2 4 4 5h3q6 0 13 -5q7 -6 10 -12z" />
    <glyph glyph-name="gdotaccent" unicode="&#x121;" horiz-adv-x="249" 
d="M35 111q14 28 20 43q-64 -71 -94 -137q-15 -29 -19 -50q11 10 30 36q31 42 63 108zM-100 -19q0 68 87 164q43 51 101 97q2 6 2 7q-47 -38 -90 -50q-12 -3 -24.5 8.5t-12.5 24.5q-1 27 11 58.5t31 54.5q20 24 44 24q29 0 55 -31l2 3q4 4 9 4q10 0 20.5 -12.5t11.5 -21.5
q0 -17 -1 -25q54 36 110 61q6 2 7 2q7 0 11.5 -4.5t4.5 -9.5q0 -8 -10 -14q-77 -43 -133 -90q-2 -9 -8 -27q-20 -63 -53 -129q-30 -62 -66 -112q-17 -23 -30.5 -36.5t-30.5 -17.5q-8 -2 -17 3t-14 13q-17 25 -17 56zM84 317l-8 8q-8 10 -24 -8t-23 -31q-7 -12 -11 -23
q33 19 66 54zM99 441q3 -7 2 -11l-8 -13q-2 -3 -5 -5h-3q-4 0 -12 5q-7 6 -10 12q-2 2 -2.5 5.5t0.5 5.5l8 13q2 4 4 5h3q6 0 13 -5q7 -6 10 -12z" />
    <glyph glyph-name="uni0122" unicode="&#x122;" horiz-adv-x="462" 
d="M445 396.5q7 -7.5 7 -16.5q0 -11 -11 -11q-5 0 -10 3q-15 7 -45 5v-1q-21 -44 -49 -114q-23 -66 -31 -93q-9 -29 -9 -45q0 -10 2 -15l1 -5q0 -6 -5 -9t-12 -2q-9 2 -16.5 10t-9.5 17q-3 11 -3 23q0 15 6 43q-30 -41 -60.5 -69.5t-65.5 -36.5q-12 -2 -18 -2
q-25 0 -47.5 14t-36.5 37q-26 43 -21 111q11 136 104 294q43 74 88 119q52 52 98 52q35 0 59 -26t26 -61t-9 -71t-31 -80q-3 -7 -10 -7q-12 0 -24.5 14t-8.5 24q19 40 29.5 70t10.5 59q0 13 -1 19q-1 10 -5 13.5t-12 3.5q-25 0 -48 -18q-47 -30 -82.5 -81t-68.5 -118
q-72 -146 -72 -251q0 -28 6 -46q2 -9 6 -15q4 -4 4 -5q11 -7 25 -7q17 0 32.5 9t33.5 25q38 33 67.5 74t67.5 103l19 30q-36 -11 -68 -24q-10 -4 -24 8.5t-14 24.5q0 6 7 9q92 39 164 39q29 0 50 -11q8 -5 15 -12.5zM96 62q3 5 8 5q9 0 18.5 -10.5t5.5 -17.5l-24 -50
q-2 -5 -8 -5q-9 0 -18 10.5t-5 17.5z" />
    <glyph glyph-name="uni0123" unicode="&#x123;" horiz-adv-x="249" 
d="M36 111l20 43q-59 -66 -95 -137q-15 -33 -18 -50q11 10 30 36q28 39 63 108zM-100 -19q0 40 24 79.5t63 84.5q49 56 102 97l2 7q-46 -38 -90 -50q-13 -3 -25.5 10t-12.5 26q0 27 12.5 57.5t30.5 52.5q18 24 43 24q28 0 56 -31q0 1 2 3q3 4 8 4q10 0 20.5 -12.5
t11.5 -21.5q1 -13 0 -25q49 34 110 61q6 2 7 2q6 0 10.5 -4.5t4.5 -9.5q0 -8 -10 -14q-76 -43 -132 -90l-8 -27q-18 -58 -54 -129q-33 -67 -66 -112q-17 -23 -30.5 -36.5t-30.5 -17.5q-8 -2 -17 3t-14 13q-17 25 -17 56zM85 317l-8 8q-8 10 -24 -8t-23 -31l-12 -23
q33 19 67 54zM107 472q3 5 7 5q9 0 18.5 -10.5t5.5 -17.5l-24 -50q-2 -5 -7 -5q-9 0 -18.5 10.5t-5.5 17.5z" />
    <glyph glyph-name="Hbar" unicode="&#x126;" horiz-adv-x="598" 
d="M480 538h-186q-19 -63 -34 -106q21 3 85 10q68 6 102 4zM21 113q6 0 10 -3h7q12 5 17 10q17 14 39 48q44 72 90 196q-32 -11 -66 -29q-9 -6 -23 6.5t-14 24.5q0 7 6 11q48 28 117 44l20 61l18 56h-21q-6 0 -7 5t2 10q3 6 9 10.5t13 4.5h14q26 85 34 119q1 7 9 7
q11 0 24 -13.5t10 -24.5l-24 -82l-2 -6h188q26 69 54 135q3 7 10 7q12 0 24 -13.5t8 -23.5l-23 -57q-12 -32 -19 -48h33q6 0 7 -5t-2 -10q-3 -6 -9 -10.5t-13 -4.5h-27q-19 -49 -36 -99q34 -9 50 -31q7 -9 7 -17q0 -6 -6 -9q-2 -1 -6 -1q-9 0 -22 13h-1l-15 4l-19 3
q-3 -8 -13 -41q-24 -77 -33 -135q-6 -32 -6 -56q0 -23 5 -33q3 -7 3 -11q0 -9 -10 -9q-8 0 -17.5 6t-13.5 14q-10 26 -10 56q0 22 6 60q10 65 36 151q-50 -2 -89 -7q-59 -7 -102 -16q-29 -84 -56 -144q-19 -43 -35.5 -75t-38.5 -59q-28 -35 -57 -35q-11 0 -23 6
q-8 4 -15 12.5t-7 16.5q0 11 11 11z" />
    <glyph glyph-name="hbar" unicode="&#x127;" horiz-adv-x="319" 
d="M336 350q5 0 9 -4.5t4 -11.5q0 -8 -5 -13l-18 -20q-40 -43 -64.5 -64t-56.5 -32q-14 -4 -21 -4q-17 0 -29 11t-16 32q-1 4 -1 13q0 18 9 43q8 20 11 30q-32 -19 -56 -42.5t-62 -66.5q-1 -1 -14 -17q-3 -3 -7 -3t-9 2t-8 5q-22 17 -22 50q0 26 9.5 54t10.5 33
q27 80 60 151h-34q-6 0 -7 5t2 10q9 15 22 15h32q39 76 76 138q5 6 11 6q12 0 24.5 -14t6.5 -23q-29 -49 -60 -107h25q7 0 7 -8l-2 -8q-10 -14 -23 -14h-22q-38 -76 -66 -154q-9 -24 -14 -43q44 46 79 68q26 17 42 17q13 0 24 -8q22 -16 22 -47q0 -18 -12 -50
q-8 -22 -10 -33q23 7 57 31q39 28 86 69q4 4 10 4z" />
    <glyph glyph-name="Itilde" unicode="&#x128;" horiz-adv-x="341" 
d="M288 110q4 -7 7 -7q-4 3 -7 7zM147 143l-2 6q-4 11 -4 26q0 19 5.5 41t6.5 27q22 89 56.5 177t89.5 210q-61 -13 -96 -33q-10 -5 -23.5 7.5t-13.5 24.5q0 7 6 11q34 19 76 28t95 15q30 4 53 4q59 0 79 -31q6 -9 6 -15q0 -11 -12 -11q-8 0 -18 8q-2 2 -8 3q-10 1 -30 1
q-34 0 -72 -5q-8 -2 -12 -2q9 -6 13.5 -15t1.5 -15l-22 -50q-48 -109 -91 -229q-25 -73 -36 -116q-1 -4 -6 -25.5t-4 -37.5h2q30 4 53 4q59 0 79 -31q6 -9 6 -15q0 -4 -3.5 -7t-8.5 -3q-8 0 -18 8l-9 2q-9 2 -30 2q-24 0 -72 -6q-44 -7 -76.5 -15.5t-60.5 -23.5
q-9 -6 -23 6.5t-14 24.5q0 7 6 11q46 26 131 39zM295 102v1v-1zM390 773q9 -5 14.5 -14t0.5 -15q-17 -21 -34 -21q-9 0 -22 8q-3 2 -8 7t-6 5q-5 0 -12.5 -8t-8.5 -9q-4 -6 -13 -1t-14.5 14t-0.5 15q17 20 34 20q9 0 22 -8q2 -2 7.5 -6.5t6.5 -4.5q4 0 21 17q4 6 13 1z" />
    <glyph glyph-name="itilde" unicode="&#x129;" horiz-adv-x="148" 
d="M164 351q6 0 10 -5.5t4 -12.5q0 -8 -4 -13q-92 -118 -148 -118q-14 0 -25 7q-26 16 -26 49q0 27 13 56t33 64q5 6 11 6q12 0 24.5 -13.5t7.5 -23.5q-19 -33 -33 -69q-3 -7 -3 -16q0 -6 2.5 -9t6.5 -2q18 7 35 20q41 27 83 75q5 5 9 5zM113 462q9 -5 14.5 -14t0.5 -15
q-17 -21 -34 -21q-9 0 -22 8q-3 2 -8 7t-6 5q-5 0 -12.5 -8t-8.5 -9q-4 -6 -13 -1t-14.5 14t-0.5 15q17 20 34 20q9 0 22 -8q2 -2 7.5 -6.5t6.5 -4.5q4 0 21 17q4 6 13 1z" />
    <glyph glyph-name="Imacron" unicode="&#x12a;" horiz-adv-x="341" 
d="M288 110q4 -7 7 -7q-4 3 -7 7zM147 143l-2 6q-4 11 -4 26q0 19 5.5 41t6.5 27q22 89 56.5 177t89.5 210q-61 -13 -96 -33q-10 -5 -23.5 7.5t-13.5 24.5q0 7 6 11q34 19 76 28t95 15q30 4 53 4q59 0 79 -31q6 -9 6 -15q0 -11 -12 -11q-8 0 -18 8q-2 2 -8 3q-10 1 -30 1
q-34 0 -72 -5q-8 -2 -12 -2q9 -6 13.5 -15t1.5 -15l-22 -50q-48 -109 -91 -229q-25 -73 -36 -116q-1 -4 -6 -25.5t-4 -37.5h2q30 4 53 4q59 0 79 -31q6 -9 6 -15q0 -4 -3.5 -7t-8.5 -3q-8 0 -18 8l-9 2q-9 2 -30 2q-24 0 -72 -6q-44 -7 -76.5 -15.5t-60.5 -23.5
q-9 -6 -23 6.5t-14 24.5q0 7 6 11q46 26 131 39zM295 102v1v-1zM395 753q0 -4 -2 -8q-3 -6 -9 -10.5t-13 -4.5h-68q-7 0 -7 6q0 3 3 9t9 10.5t13 4.5h67q7 0 7 -7z" />
    <glyph glyph-name="imacron" unicode="&#x12b;" horiz-adv-x="148" 
d="M164 351q6 0 10 -5.5t4 -12.5q0 -8 -4 -13q-92 -118 -148 -118q-14 0 -25 7q-26 16 -26 49q0 27 13 56t33 64q5 6 11 6q12 0 24.5 -13.5t7.5 -23.5q-19 -33 -33 -69q-3 -7 -3 -16q0 -6 2.5 -9t6.5 -2q18 7 35 20q41 27 83 75q5 5 9 5zM118 442q0 -4 -2 -8q-3 -6 -9 -10.5
t-13 -4.5h-68q-7 0 -7 6q0 3 3 9t9 10.5t13 4.5h67q7 0 7 -7z" />
    <glyph glyph-name="Iogonek" unicode="&#x12e;" horiz-adv-x="341" 
d="M288 110q4 -7 7 -7q-4 3 -7 7zM147 143l-2 6q-4 11 -4 26q0 19 5.5 41t6.5 27q22 89 56.5 177t89.5 210q-61 -13 -96 -33q-10 -5 -23.5 7.5t-13.5 24.5q0 7 6 11q34 19 76 28t95 15q30 4 53 4q59 0 79 -31q6 -9 6 -15q0 -11 -12 -11q-8 0 -18 8q-2 2 -8 3q-10 1 -30 1
q-34 0 -72 -5q-8 -2 -12 -2q9 -6 13.5 -15t1.5 -15l-22 -50q-48 -109 -91 -229q-25 -73 -36 -116q-1 -4 -6 -25.5t-4 -37.5h2q30 4 53 4q59 0 79 -31q6 -9 6 -15q0 -4 -3.5 -7t-8.5 -3q-8 0 -18 8l-9 2q-9 2 -30 2q-19 0 -59 -4q0 -4 -5 -6q-56 -20 -61 -55v-2h1q15 0 30 9
q7 4 16 -1.5t14 -14.5t-1 -13q-19 -11 -39 -11q-17 0 -30.5 8.5t-20.5 25.5q-3 9 -3 17q0 13 8 26q-33 -9 -59 -24q-9 -6 -23 6.5t-14 24.5q0 7 6 11q46 26 131 39zM131 39q-1 -1 -0.5 -1.5t0.5 0.5q1 1 0 1zM131 39v-1v1zM295 102v1v-1z" />
    <glyph glyph-name="iogonek" unicode="&#x12f;" horiz-adv-x="148" 
d="M164 351q6 0 10 -5.5t4 -12.5q0 -8 -4 -13q-34 -42 -69.5 -77t-69.5 -40q-50 -21 -55 -53v-2h1q15 0 30 9q7 4 16 -1.5t14 -14.5t-1 -13q-19 -11 -39 -11q-17 0 -30.5 8.5t-20.5 25.5q-3 9 -3 17q0 29 40 54q-12 15 -12 36q0 27 13 56t33 64q5 6 11 6q12 0 24.5 -13.5
t7.5 -23.5q-19 -33 -33 -69q-3 -7 -3 -16q0 -6 2.5 -9t6.5 -2q18 7 35 20q41 27 83 75q5 5 9 5zM-20 147q-1 -1 -0.5 -1.5t0.5 0.5q1 1 0 1zM-20 147v-1v1zM57 453q2 4 4 5h3q6 0 13 -5q7 -6 10 -12q3 -7 2 -11l-8 -13q-2 -3 -5 -5h-3q-4 0 -12 5q-7 6 -10 12q-2 2 -2.5 5.5
t0.5 5.5z" />
    <glyph glyph-name="Idotaccent" unicode="&#x130;" horiz-adv-x="341" 
d="M288 110q4 -7 7 -7q-4 3 -7 7zM147 143l-2 6q-4 11 -4 26q0 19 5.5 41t6.5 27q22 89 56.5 177t89.5 210q-61 -13 -96 -33q-10 -5 -23.5 7.5t-13.5 24.5q0 7 6 11q34 19 76 28t95 15q30 4 53 4q59 0 79 -31q6 -9 6 -15q0 -11 -12 -11q-8 0 -18 8q-2 2 -8 3q-10 1 -30 1
q-34 0 -72 -5q-8 -2 -12 -2q9 -6 13.5 -15t1.5 -15l-22 -50q-48 -109 -91 -229q-25 -73 -36 -116q-1 -4 -6 -25.5t-4 -37.5h2q30 4 53 4q59 0 79 -31q6 -9 6 -15q0 -4 -3.5 -7t-8.5 -3q-8 0 -18 8l-9 2q-9 2 -30 2q-24 0 -72 -6q-44 -7 -76.5 -15.5t-60.5 -23.5
q-9 -6 -23 6.5t-14 24.5q0 7 6 11q46 26 131 39zM295 102v1v-1zM364 752q3 -7 2 -11l-8 -13q-2 -3 -5 -5h-3q-4 0 -12 5q-7 6 -10 12q-2 2 -2.5 5.5t0.5 5.5l8 13q2 4 4 5h3q6 0 13 -5q7 -6 10 -12z" />
    <glyph glyph-name="dotlessi" unicode="&#x131;" horiz-adv-x="148" 
d="M164 351q6 0 10 -5.5t4 -12.5q0 -8 -4 -13q-92 -118 -148 -118q-14 0 -25 7q-26 16 -26 49q0 27 13 56t33 64q5 6 11 6q12 0 24.5 -13.5t7.5 -23.5q-19 -33 -33 -69q-3 -7 -3 -16q0 -6 2.5 -9t6.5 -2q18 7 35 20q41 27 83 75q5 5 9 5z" />
    <glyph glyph-name="ij" unicode="&#x133;" horiz-adv-x="283" 
d="M49 414q-5 11 -2 15q1 2 8 14q1 3 5 5q2 1 5 1q6 0 16 -6q10 -8 14 -16q4 -11 2 -15l-8 -14q-2 -4 -6 -5l-4 -1q-9 0 -16 7q-9 4 -14 15zM-62 -19q0 68 87 164q39 45 89 87l10 30q-58 -60 -98 -60q-14 0 -25 7q-26 16 -26 49q0 27 13 56t33 64q5 6 11 6q12 0 24.5 -13.5
t7.5 -23.5q-19 -33 -33 -69q-3 -7 -3 -16q0 -6 2.5 -9t6.5 -2q18 7 35 20q39 27 78 69l12 38q1 7 9 7q11 0 24 -13.5t9 -24.5l-20 -61q56 37 110 61q8 4 13.5 -0.5t5.5 -11.5q0 -10 -11 -17q-75 -43 -139 -95q-27 -83 -50 -136q-34 -82 -63 -125q-17 -24 -32.5 -38
t-36.5 -16q-6 -1 -14.5 5t-11.5 12q-17 25 -17 56zM1.5 -16q10.5 15 17.5 28q29 46 58 122l3 7q-49 -57 -81 -124q-18 -31 -19 -56q11 8 21.5 23zM180 447q3 6 11 6q6 0 16 -6q8 -7 13 -16q5 -7 3 -15l-3 -14q-1 -6 -10 -6q-8 0 -17 7q-8 5 -13 15q-4 8 -3 15z" />
    <glyph glyph-name="uni0136" unicode="&#x136;" horiz-adv-x="436" 
d="M121 344q0 9 8 17l1 2l9 8q59 145 101 286q3 7 9 7q12 0 25 -13.5t9 -24.5q-40 -129 -82 -236q129 50 227 119t154 170q4 7 11 7q12 0 24.5 -14t7.5 -24q-65 -115 -180 -191t-266 -129q31 -85 86 -140.5t130 -55.5q27 0 58 9q2 1 5 1q4 0 7 -3.5t3 -8.5q0 -18 -29 -30
q-33 -10 -68 -10q-82 0 -141 55q-51 48 -81 118q-52 -117 -96 -198q-3 -6 -10 -6q-12 0 -24.5 13.5t-7.5 23.5q64 122 113 237l-3 8v3zM186 62q3 5 8 5q9 0 18.5 -10.5t5.5 -17.5l-24 -50q-2 -5 -8 -5q-9 0 -18.5 10.5t-5.5 17.5z" />
    <glyph glyph-name="uni0137" unicode="&#x137;" horiz-adv-x="239" 
d="M31 267q-7 -24 -7 -42q0 -9 1 -13v-2q0 -8 -9 -8q-7 0 -12 3q-9 4 -15 12t-8 17l-1 11q0 16 4.5 36t6.5 28q12 48 37 115q55 149 109 240q5 6 11 6q12 0 24.5 -13.5t7.5 -23.5q-54 -89 -108 -234l-24 -70q57 18 83 53q4 4 8 4q7 0 16.5 -7.5t14 -17.5t-0.5 -17
q-18 -24 -47.5 -40t-62.5 -23q11 -19 32 -31q14 -7 29 -7q35 0 67.5 30.5t62.5 72.5q5 6 8 6q5 0 8 -4.5t3 -11.5q0 -8 -4 -13l-12 -17q-36 -51 -62.5 -77t-60.5 -26q-19 0 -38 10q-34 17 -61 54zM52 175q3 5 8 5q9 0 18.5 -10.5t5.5 -17.5l-24 -50q-2 -5 -8 -5
q-9 0 -18 10.5t-5 17.5q19 41 23 50z" />
    <glyph glyph-name="Lacute" unicode="&#x139;" horiz-adv-x="307" 
d="M70 160q0 20 5.5 43t6.5 28q25 98 63 196.5t96 229.5q3 7 10 7q12 0 24 -14t8 -24l-24 -55q-64 -155 -96 -247q-27 -73 -39 -126q-8 -32 -10 -48q0 -8 -1 -12q40 8 101 14q50 6 81 6q72 0 117 -28q7 -4 11 -11t4 -13q0 -12 -10 -12q-6 0 -15 6q-13 8 -29 10t-46 3
q-52 2 -103 -6q-58 -7 -100 -16.5t-77 -28.5q-9 -6 -23 6.5t-14 24.5q0 7 6 11q26 15 59 24q-2 4 -2 6q-3 12 -3 26zM155 660q9 0 18.5 -10.5t5.5 -18.5l-23 -49q-2 -5 -8 -5q-9 0 -18.5 10.5t-5.5 17.5l24 50q3 5 7 5z" />
    <glyph glyph-name="lacute" unicode="&#x13a;" horiz-adv-x="158" 
d="M40 288q-1 -3 -1 -11q0 -11 4 -19t10 -5q30 14 58.5 39t50.5 54q4 5 10 5t11 -5.5t5 -12.5q0 -6 -4 -11q-28 -38 -54 -65t-56 -40q-22 -10 -38 -10q-29 0 -42 32q-4 12 -4 28q0 20 5.5 43t6.5 27q42 163 132 327q3 7 11 7q12 0 24 -14.5t7 -23.5q-98 -178 -136 -345z
M86 722q9 0 18.5 -10.5t5.5 -18.5l-23 -49q-2 -5 -8 -5q-9 0 -18.5 10.5t-5.5 17.5l24 50q3 5 7 5z" />
    <glyph glyph-name="uni013B" unicode="&#x13b;" horiz-adv-x="307" 
d="M70 160q0 20 5.5 43t6.5 28q25 97 61.5 191.5t97.5 234.5q3 7 10 7q12 0 24 -14t8 -24l-23 -55q-63 -153 -97 -247q-27 -79 -39 -126q-8 -32 -9 -48q-1 -4 -1 -12q41 8 100 14q52 6 82 6q72 0 116 -28q7 -4 11 -11t4 -13q0 -12 -10 -12q-6 0 -15 6q-13 8 -29 10t-46 3
q-52 2 -103 -6q-58 -7 -100 -16.5t-77 -28.5q-9 -6 -23 6.5t-14 24.5q0 7 7 11q26 15 59 24l-3 6q-3 12 -3 26zM190 62q3 5 8 5q9 0 18.5 -10.5t5.5 -17.5l-24 -50q-2 -5 -8 -5q-9 0 -18.5 10.5t-5.5 17.5z" />
    <glyph glyph-name="uni013C" unicode="&#x13c;" horiz-adv-x="158" 
d="M41 288q-1 -4 -1 -12q0 -11 4 -18.5t10 -4.5q30 15 58.5 39.5t49.5 53.5q4 5 10 5t11 -6t5 -13q0 -5 -3 -10q-30 -39 -56 -65.5t-55 -40.5q-19 -9 -37 -9q-29 0 -42 32q-5 15 -5 29q0 24 13 69q40 161 131 327q4 7 11 7q12 0 24.5 -14t7.5 -24q-100 -182 -136 -345z
M15 175q3 5 8 5q9 0 18 -10.5t5 -17.5q-9 -23 -23 -50q-2 -5 -8 -5q-9 0 -18.5 10.5t-5.5 17.5z" />
    <glyph glyph-name="Lcaron" unicode="&#x13d;" horiz-adv-x="307" 
d="M70 160q0 20 5.5 43t6.5 28q25 98 63 196.5t96 229.5q3 7 10 7q12 0 24 -14t8 -24l-24 -55q-64 -155 -96 -247q-27 -73 -39 -126q-8 -32 -10 -48q0 -8 -1 -12q40 8 101 14q50 6 81 6q72 0 117 -28q7 -4 11 -11t4 -13q0 -12 -10 -12q-6 0 -15 6q-13 8 -29 10t-46 3
q-52 2 -103 -6q-58 -7 -100 -16.5t-77 -28.5q-9 -6 -23 6.5t-14 24.5q0 7 6 11q26 15 59 24q-2 4 -2 6q-3 12 -3 26zM176 666q9 -5 14.5 -14t0.5 -15l-51 -60q-7 -8 -18.5 3t-12.5 19l-6 52v2q0 6 7 6q3 0 9 -2q6 -3 10.5 -9t5.5 -13v-1l27 32q5 5 14 0z" />
    <glyph glyph-name="lcaron" unicode="&#x13e;" horiz-adv-x="158" 
d="M40 288q-1 -3 -1 -11q0 -11 4 -19t10 -5q30 14 58.5 39t50.5 54q4 5 10 5t11 -5.5t5 -12.5q0 -6 -4 -11q-28 -38 -54 -65t-56 -40q-22 -10 -38 -10q-29 0 -42 32q-4 12 -4 28q0 20 5.5 43t6.5 27q42 163 132 327q3 7 11 7q12 0 24 -14.5t7 -23.5q-98 -178 -136 -345z
M107 728q9 -5 14.5 -14t0.5 -15l-51 -60q-7 -8 -18.5 3t-12.5 19l-6 52v2q0 6 7 6q3 0 9 -2q6 -3 10.5 -9t5.5 -13v-1l27 32q5 5 14 0z" />
    <glyph glyph-name="Lslash" unicode="&#x141;" horiz-adv-x="437" 
d="M423 119q4 -7 4 -13q0 -12 -10 -12q-7 0 -16 6q-12 8 -28 10t-46 3q-52 1 -103 -6q-58 -7 -100 -16.5t-77 -28.5q-9 -6 -23 6.5t-14 24.5q0 7 6 11q26 15 59 24q-2 4 -2 6q-4 12 -4 27q0 25 13 70q15 57 33 114q-45 -20 -72 -37q-10 -1 -21.5 10.5t-11.5 22.5q0 7 6 11
q24 15 86 43l31 14l6 2q34 90 101 246q3 7 10 7q12 0 24.5 -14t8.5 -24l-24 -55l-19 -47l-38 -94l18 3q32 6 52 6q38 0 62 -18q7 -5 13 -14.5t3 -16.5q-4 -6 -11 -6t-15 6l-10 4q-7 1 -22 1q-25 0 -65 -9q-24 -6 -47 -15q-11 -26 -17 -47q-27 -73 -39 -126q-8 -32 -10 -48
l-1 -12q40 8 101 14q50 6 81 6q72 0 117 -28q7 -4 11 -11z" />
    <glyph glyph-name="lslash" unicode="&#x142;" horiz-adv-x="159" 
d="M172 351q6 0 11.5 -5.5t5.5 -12.5t-4 -11q-31 -40 -56 -66t-55 -40q-19 -9 -37 -9q-29 0 -42 32q-4 12 -4 28q0 20 5.5 43t6.5 27q12 46 20 69l-13 -8q-7 -5 -13.5 4t-6.5 20q0 9 5 12l48 31q33 92 91 199q4 7 11 7q12 0 24.5 -14t7.5 -24q-34 -60 -60 -121q16 12 26 17
q8 5 14 -3.5t6 -20.5q0 -9 -5 -12q-13 -9 -68 -43q-32 -84 -49 -162q-1 -4 -1 -12q0 -11 4 -18.5t10 -4.5q30 15 58.5 39.5t50.5 53.5q4 5 9 5z" />
    <glyph glyph-name="Nacute" unicode="&#x143;" horiz-adv-x="594" 
d="M331 124v1v-1zM10 109q0 11 10 10q17 -2 33 17t31 46q35 61 60.5 127t57.5 167q31 97 53 182q1 7 8 7q11 0 23.5 -12t11.5 -22v-2v-2q-18 -135 -18 -232q0 -94 16 -177q7 -39 17 -64q4 -11 12 -22l5 -6l8 2q7 4 20 19q30 33 51 73.5t48 104.5q54 126 75 231q11 55 9 88
q-2 14 -4 18q-10 3 -19 15t-9 20t10 8q65 -4 65 -97q0 -35 -8 -75q-25 -125 -87 -262q-30 -68 -58 -113q-14 -23 -25.5 -39t-26.5 -27q-13 -9 -26 -9q-21 0 -45 22q-23 22 -35.5 55t-19.5 75q-16 90 -16 188q-35 -106 -63 -172q-33 -81 -65 -127q-30 -48 -62 -48
q-10 0 -20 6t-15 16q-2 6 -2 11zM410 789q9 0 18.5 -10.5t5.5 -18.5l-23 -49q-2 -5 -8 -5q-9 0 -18.5 10.5t-5.5 17.5l24 50q3 5 7 5z" />
    <glyph glyph-name="nacute" unicode="&#x144;" horiz-adv-x="319" 
d="M144 307l6 13q-2 0 -2 -1q-8 -6 -42 -32l-75 -67l-25 -23q-3 -3 -9 -3q-12 0 -24.5 14.5t-6.5 24.5q10 65 46 134q3 7 11 7q12 0 24.5 -14t7.5 -23q-12 -22 -18 -38q47 42 86 67q2 1 14.5 8.5t24.5 7.5q6 0 12 -3q13 -5 21 -17t8 -26q0 -17 -12 -47q-8 -25 -10 -35
q-1 -6 2 -6q35 7 67 32t73 66q5 5 10 5q7 0 12 -5.5t5 -13.5q0 -5 -5 -12q-37 -43 -79 -79.5t-75 -36.5q-4 0 -12 2q-19 7 -31 23.5t-12 35.5q0 14 8 42zM131 494q9 0 18.5 -10.5t5.5 -18.5l-23 -49q-2 -5 -8 -5q-9 0 -18.5 10.5t-5.5 17.5l24 50q3 5 7 5z" />
    <glyph glyph-name="uni0145" unicode="&#x145;" horiz-adv-x="584" 
d="M321 124v1v-1zM0 109q0 11 10 10q17 -2 33 17t31 46q35 61 60.5 127t57.5 167q31 97 53 182q1 7 9 7q10 0 22.5 -11.5t11.5 -22.5v-2v-2q-18 -135 -18 -232q0 -94 16 -177q7 -39 17 -64q4 -11 12 -22l5 -6l8 2q11 6 20 19q30 33 51 73.5t48 104.5q54 126 75 231
q11 55 9 88q0 3 -3 18q-10 3 -19.5 15t-9.5 20t10 8q65 -4 65 -97q0 -35 -8 -75q-24 -122 -86 -262q-13 -29 -28.5 -59t-30.5 -54q-14 -23 -25.5 -39t-26.5 -27q-13 -9 -26 -9q-22 0 -44 22q-24 22 -36.5 55t-19.5 75q-16 90 -16 188q-34 -104 -62 -172q-36 -84 -65 -127
q-32 -48 -63 -48q-10 0 -20 6t-15 16q-2 6 -2 11zM191 99q3 5 8 5q9 0 18.5 -10.5t5.5 -17.5l-24 -50q-3 -5 -8 -5q-9 0 -18.5 11t-5.5 18z" />
    <glyph glyph-name="uni0146" unicode="&#x146;" horiz-adv-x="320" 
d="M145 307q2 6 5 13l-2 -1q-14 -10 -42 -32l-75 -67l-25 -23q-3 -3 -8 -3q-12 0 -25 15t-7 24q11 66 47 134q3 7 11 7q12 0 24 -14t7 -23q-3 -7 -8 -16.5t-10 -21.5q47 42 86 67q2 1 14.5 8.5t24.5 7.5q6 0 12 -3q13 -5 21 -17t8 -26q0 -17 -12 -47q-8 -25 -10 -35
q-1 -6 3 -6q35 7 66.5 32t72.5 66q5 5 10 5q7 0 12 -5.5t5 -13.5q0 -5 -5 -12q-37 -43 -79 -79.5t-75 -36.5q-4 0 -12 2q-19 7 -30.5 23t-12.5 36q0 17 9 42zM57 187q3 6 6.5 13.5t7.5 15.5q3 5 8 5q9 0 18.5 -10.5t5.5 -17.5l-24 -50q-3 -5 -7 -5q-9 0 -18.5 10.5
t-5.5 17.5z" />
    <glyph glyph-name="Ncaron" unicode="&#x147;" horiz-adv-x="594" 
d="M331 124v1v-1zM10 109q0 11 10 10q17 -2 33 17t31 46q35 61 60.5 127t57.5 167q31 97 53 182q1 7 8 7q11 0 23.5 -12t11.5 -22v-2v-2q-18 -135 -18 -232q0 -94 16 -177q7 -39 17 -64q4 -11 12 -22l5 -6l8 2q7 4 20 19q30 33 51 73.5t48 104.5q54 126 75 231q11 55 9 88
q-2 14 -4 18q-10 3 -19 15t-9 20t10 8q65 -4 65 -97q0 -35 -8 -75q-25 -125 -87 -262q-30 -68 -58 -113q-14 -23 -25.5 -39t-26.5 -27q-13 -9 -26 -9q-21 0 -45 22q-23 22 -35.5 55t-19.5 75q-16 90 -16 188q-35 -106 -63 -172q-33 -81 -65 -127q-30 -48 -62 -48
q-10 0 -20 6t-15 16q-2 6 -2 11zM431 795q9 -5 14.5 -14t0.5 -15l-51 -60q-7 -8 -18.5 3t-12.5 19l-6 52v2q0 6 7 6q3 0 9 -2q6 -3 10.5 -9t5.5 -13v-1l27 32q5 5 14 0z" />
    <glyph glyph-name="ncaron" unicode="&#x148;" horiz-adv-x="319" 
d="M144 307l6 13q-2 0 -2 -1q-8 -6 -42 -32l-75 -67l-25 -23q-3 -3 -9 -3q-12 0 -24.5 14.5t-6.5 24.5q10 65 46 134q3 7 11 7q12 0 24.5 -14t7.5 -23q-12 -22 -18 -38q47 42 86 67q2 1 14.5 8.5t24.5 7.5q6 0 12 -3q13 -5 21 -17t8 -26q0 -17 -12 -47q-8 -25 -10 -35
q-1 -6 2 -6q35 7 67 32t73 66q5 5 10 5q7 0 12 -5.5t5 -13.5q0 -5 -5 -12q-37 -43 -79 -79.5t-75 -36.5q-4 0 -12 2q-19 7 -31 23.5t-12 35.5q0 14 8 42zM152 500q9 -5 14.5 -14t0.5 -15l-51 -60q-7 -8 -18.5 3t-12.5 19l-6 52v2q0 6 7 6q3 0 9 -2q6 -3 10.5 -9t5.5 -13v-1
l27 32q5 5 14 0z" />
    <glyph glyph-name="Omacron" unicode="&#x14c;" horiz-adv-x="433" 
d="M88 470q7 3 17 -3t16.5 -16.5t3.5 -17.5q-29 -59 -44 -97q9 -11 19 -17q8 -5 15 -12.5t7 -16.5q0 -11 -11 -11q-5 0 -10 3q-11 6 -31 21q-19 -61 -15 -116q2 -19 7 -32q2 -8 9 -15q3 -4 9 -6q7 -3 20 -3q47 0 102 53q48 44 94 122q42 74 65 151q19 65 19 106q0 10 -2 28
q-3 25 -14 38l-3 3l-2 2t-4 2q-10 4 -18 4q-6 1 -17 1q-39 0 -78 -17.5t-72 -45.5q-54 -45 -82 -108zM34 354q-9 26 -9 52q0 62 40 128t93 102q31 21 68 35t73 14q21 0 42 -6q32 -11 52.5 -39t26.5 -64q3 -18 3 -35q0 -49 -23 -124q-28 -91 -82 -174q-38 -61 -88.5 -109
t-104.5 -48q-23 0 -43 10q-36 17 -54 53.5t-18 78.5q0 56 24 126zM367 748q0 -4 -2 -8q-3 -6 -9 -10.5t-13 -4.5h-68q-7 0 -7 6q0 3 3 9t9 10.5t13 4.5h67q7 0 7 -7z" />
    <glyph glyph-name="omacron" unicode="&#x14d;" horiz-adv-x="176" 
d="M65 295.5q10 17.5 10 31.5q0 6 -3 12l-2 5l-6 -6q-12 -11 -23 -29q-21 -40 -22 -66q13 8 25 23q11 12 21 29.5zM-25 261q0 33 25 81q29 49 61 49q11 0 20 -4q10 -4 16 -16.5t3 -19.5q6 -6 10 -12q6 -13 6 -29q0 -25 -14 -52t-35.5 -44.5t-41.5 -17.5q-28 0 -44 34
q-6 15 -6 31zM137 456q0 -4 -2 -8q-3 -6 -9 -10.5t-13 -4.5h-68q-7 0 -7 6q0 3 3 9t9 10.5t13 4.5h67q7 0 7 -7z" />
    <glyph glyph-name="Ohungarumlaut" unicode="&#x150;" horiz-adv-x="433" 
d="M88 470q7 3 17 -3t16.5 -16.5t3.5 -17.5q-29 -59 -44 -97q9 -11 19 -17q8 -5 15 -12.5t7 -16.5q0 -11 -11 -11q-5 0 -10 3q-11 6 -31 21q-19 -61 -15 -116q2 -19 7 -32q2 -8 9 -15q3 -4 9 -6q7 -3 20 -3q47 0 102 53q48 44 94 122q42 74 65 151q19 65 19 106q0 10 -2 28
q-3 25 -14 38l-3 3l-2 2t-4 2q-10 4 -18 4q-6 1 -17 1q-39 0 -78 -17.5t-72 -45.5q-54 -45 -82 -108zM34 354q-9 26 -9 52q0 62 40 128t93 102q31 21 68 35t73 14q21 0 42 -6q32 -11 52.5 -39t26.5 -64q3 -18 3 -35q0 -49 -23 -124q-28 -91 -82 -174q-38 -61 -88.5 -109
t-104.5 -48q-23 0 -43 10q-36 17 -54 53.5t-18 78.5q0 56 24 126zM302 789q9 0 18.5 -10.5t5.5 -18.5l-24 -49q-2 -5 -8 -5q-9 0 -18 10.5t-5 17.5l23 50q3 5 8 5zM344 784q3 5 7 5q9 0 18.5 -10.5t5.5 -18.5l-23 -49q-2 -5 -8 -5q-9 0 -18.5 10.5t-5.5 17.5z" />
    <glyph glyph-name="ohungarumlaut" unicode="&#x151;" horiz-adv-x="176" 
d="M65 295.5q10 17.5 10 31.5q0 6 -3 12l-2 5l-6 -6q-12 -11 -23 -29q-21 -40 -22 -66q13 8 25 23q11 12 21 29.5zM-25 261q0 33 25 81q29 49 61 49q11 0 20 -4q10 -4 16 -16.5t3 -19.5q6 -6 10 -12q6 -13 6 -29q0 -25 -14 -52t-35.5 -44.5t-41.5 -17.5q-28 0 -44 34
q-6 15 -6 31zM72 497q9 0 18.5 -10.5t5.5 -18.5l-24 -49q-2 -5 -8 -5q-9 0 -18 10.5t-5 17.5l23 50q3 5 8 5zM114 492q3 5 7 5q9 0 18.5 -10.5t5.5 -18.5l-23 -49q-2 -5 -8 -5q-9 0 -18.5 10.5t-5.5 17.5z" />
    <glyph glyph-name="OE" unicode="&#x152;" horiz-adv-x="694" 
d="M283 286q10 22 16 32q6 11 13 19q32 64 48 120q19 65 19 106q0 10 -2 28q-3 24 -13 38l-4 3l-2 2t-4 2q-10 4 -18 4q-6 1 -17 1q-39 0 -78 -17.5t-72 -45.5q-53 -45 -82 -108q7 3 17.5 -3t17 -16.5t2.5 -17.5q-29 -59 -44 -97q9 -11 20 -17q8 -5 15 -12.5t7 -16.5
q0 -11 -11 -11q-6 0 -11 3q-11 6 -31 21q-19 -65 -15 -116q2 -19 7 -32q5 -10 9 -15q5 -4 9 -6q8 -3 20 -3q46 0 103 53q44 43 81 102zM10 232q0 53 24 122q-10 24 -10 53q0 62 40 127t93 102q32 22 69 35.5t72 13.5q21 0 42 -6q27 -9 45.5 -29t27.5 -48q22 36 62 67
q48 34 84 34q23 0 41 -14q26 -21 26 -56q0 -29 -17 -69q-3 -7 -10 -7q-12 0 -24 14t-8 24q9 23 13 38q3 12 3 24q0 4 -14.5 0.5t-23.5 -7.5q-21 -9 -43 -28q-50 -43 -63 -89q-4 -12 -4 -25q0 -33 39 -53q6 -3 14.5 -12.5t8.5 -17.5q0 -7 -7 -10q-41 -19 -76.5 -47t-60.5 -64
q-9 -17 -29 -51q-18 -38 -18 -69q0 -20 9 -37q12 -23 43 -23q23 0 58 14q64 28 139 103q58 55 97 112q5 6 12 6t13.5 -5.5t6.5 -12.5q0 -4 -3 -9q-62 -89 -142 -169.5t-158 -80.5q-37 0 -67.5 23t-42.5 58l-3 12q-77 -89 -144 -89q-23 0 -43 10q-32 15 -50 46t-20 69
q-1 7 -1 21zM434 445q-13 11 -21 22q-6 -28 -11 -41z" />
    <glyph glyph-name="oe" unicode="&#x153;" horiz-adv-x="342" 
d="M45 266q11 12 21 29.5t10 31.5q0 6 -3 12l-2 5l-6 -6q-12 -11 -23 -29q-21 -40 -22 -66q13 8 25 23zM-25 261q0 33 26 81q29 49 61 49q11 0 20 -4q10 -4 16 -16.5t3 -19.5l6 -6q31 24 61 24q9 0 18 -3q17 -5 30.5 -20.5t13.5 -33.5q0 -27 -39 -37.5t-81 -7.5l-7 -14
q-6 -18 -4 -19q28 -4 80 15q41 16 81 39.5t88 56.5q5 3 9 3q7 0 11 -5t4 -12t-6 -12q-158 -126 -240 -126q-32 0 -52 20l-3 3q-23 -20 -45 -20q-27 0 -44 34q-7 14 -7 31zM168 309q13 8 17 15q1 2 -13 -3t-21 -10l-16 -12q19 2 33 10z" />
    <glyph glyph-name="Racute" unicode="&#x154;" horiz-adv-x="465" 
d="M18.5 440q-5.5 8 -7.5 17q-1 6 -1 18q0 46 33 83.5t82 65.5q51 30 109.5 46.5t114.5 16.5q53 0 96.5 -18.5t62.5 -59.5q12 -25 12 -50q0 -43 -28.5 -86t-68.5 -76q-61 -50 -135.5 -79t-150.5 -30q74 -74 158 -120t171 -46q33 0 64 7l5 1q10 0 10 -10t-9.5 -20t-19.5 -12
q-38 -8 -72 -8q-86 0 -169 41t-156 110l-15 -56q-12 -48 -12 -74q0 -11 1 -17v-2q0 -8 -10 -8q-12 0 -22 10t-12 22l-1 15q0 29 12 77q11 44 19 73q-18 18 -36 41q-3 3 -3 8q0 10 11.5 21t21.5 11q6 0 9 -4l14 -16h3q47 145 94 245q3 7 10 7q12 0 24.5 -14t7.5 -24
q-44 -95 -83 -212q69 7 134.5 38t117.5 79q57 55 69 105q4 16 4 25q0 5 -2 17q-2 8 -4 12l-4 7q-12 16 -55 24q-18 3 -37 3q-26 0 -56 -5q-105 -16 -186 -72q-89 -62 -79 -132v-2q0 -8 -9 -8q-7 0 -12 3q-9 4 -14.5 12zM359 806q9 0 18.5 -10.5t5.5 -18.5l-23 -49
q-2 -5 -8 -5q-9 0 -18.5 10.5t-5.5 17.5l24 50q3 5 7 5z" />
    <glyph glyph-name="racute" unicode="&#x155;" horiz-adv-x="203" 
d="M153.5 361q8.5 -8 9.5 -17v-4q0 -6 -4 -9.5t-11 -1.5q-8 2 -12 2q-17 0 -33 -12.5t-39 -35.5q-42 -46 -62 -89q-3 -7 -10 -7q-10 0 -22 14t-10 24q14 72 55 144q3 7 11 7q9 0 19 -8.5t13 -17.5q29 24 58 24q10 0 20 -3q9 -2 17.5 -10zM109 493q9 0 18.5 -10.5t5.5 -18.5
l-23 -49q-2 -5 -8 -5q-9 0 -18.5 10.5t-5.5 17.5l24 50q3 5 7 5z" />
    <glyph glyph-name="uni0156" unicode="&#x156;" horiz-adv-x="465" 
d="M18.5 440q-5.5 8 -7.5 17q-1 6 -1 18q0 45 33.5 83t81.5 66q51 30 109.5 46.5t115.5 16.5q52 0 95.5 -18.5t63.5 -59.5q12 -24 12 -50q0 -43 -28.5 -85.5t-69.5 -76.5q-61 -50 -135.5 -79t-150.5 -30q74 -74 158 -120t171 -46q33 0 64 7l5 1q10 0 10 -10t-9 -20t-20 -12
q-38 -8 -72 -8q-86 0 -169 41t-156 110l-15 -56q-12 -48 -12 -74q0 -11 1 -17v-2q0 -8 -10 -8q-12 0 -22 10t-11 22q-1 6 -1 17q0 16 3.5 36.5t7.5 38.5q11 44 19 73q-25 28 -36 41q-3 3 -3 8q0 10 11.5 21t22.5 11q6 0 9 -4l13 -16h3q47 145 94 245q3 7 10 7q12 0 24.5 -14
t8.5 -24q-38 -79 -84 -212q69 7 134.5 38t117.5 79q57 55 69 105q4 16 4 25q0 5 -2 17q-2 8 -4 12l-4 7q-12 16 -55 24q-18 3 -37 3q-25 0 -55 -5q-106 -16 -187 -72q-89 -62 -79 -132v-2q0 -8 -9 -8q-7 0 -12 3q-9 4 -14.5 12zM199 99q3 5 8 5q9 0 18 -10.5t5 -17.5
l-23 -50q-3 -5 -8 -5q-9 0 -18.5 11t-5.5 18z" />
    <glyph glyph-name="uni0157" unicode="&#x157;" horiz-adv-x="202" 
d="M153 361q8 -8 9 -17v-4q0 -6 -4 -9.5t-11 -1.5q-8 2 -11 2q-18 0 -35.5 -13.5t-36.5 -34.5q-41 -42 -62 -89q-3 -7 -10 -7q-10 0 -22 14t-10 24q14 72 55 144q3 7 11 7t18 -8.5t13 -17.5q29 24 59 24q10 0 20 -3q9 -2 17 -10zM21 175q3 5 8 5q9 0 18.5 -10.5t5.5 -17.5
l-24 -50q-2 -5 -8 -5q-9 0 -18.5 10.5t-5.5 17.5z" />
    <glyph glyph-name="Rcaron" unicode="&#x158;" horiz-adv-x="465" 
d="M18.5 440q-5.5 8 -7.5 17q-1 6 -1 18q0 46 33 83.5t82 65.5q51 30 109.5 46.5t114.5 16.5q53 0 96.5 -18.5t62.5 -59.5q12 -25 12 -50q0 -43 -28.5 -86t-68.5 -76q-61 -50 -135.5 -79t-150.5 -30q74 -74 158 -120t171 -46q33 0 64 7l5 1q10 0 10 -10t-9.5 -20t-19.5 -12
q-38 -8 -72 -8q-86 0 -169 41t-156 110l-15 -56q-12 -48 -12 -74q0 -11 1 -17v-2q0 -8 -10 -8q-12 0 -22 10t-12 22l-1 15q0 29 12 77q11 44 19 73q-18 18 -36 41q-3 3 -3 8q0 10 11.5 21t21.5 11q6 0 9 -4l14 -16h3q47 145 94 245q3 7 10 7q12 0 24.5 -14t7.5 -24
q-44 -95 -83 -212q69 7 134.5 38t117.5 79q57 55 69 105q4 16 4 25q0 5 -2 17q-2 8 -4 12l-4 7q-12 16 -55 24q-18 3 -37 3q-26 0 -56 -5q-105 -16 -186 -72q-89 -62 -79 -132v-2q0 -8 -9 -8q-7 0 -12 3q-9 4 -14.5 12zM380 812q9 -5 14.5 -14t0.5 -15l-51 -60
q-7 -8 -18.5 3t-12.5 19l-6 52v2q0 6 7 6q3 0 9 -2q6 -3 10.5 -9t5.5 -13v-1l27 32q5 5 14 0z" />
    <glyph glyph-name="rcaron" unicode="&#x159;" horiz-adv-x="203" 
d="M153.5 361q8.5 -8 9.5 -17v-4q0 -6 -4 -9.5t-11 -1.5q-8 2 -12 2q-17 0 -33 -12.5t-39 -35.5q-42 -46 -62 -89q-3 -7 -10 -7q-10 0 -22 14t-10 24q14 72 55 144q3 7 11 7q9 0 19 -8.5t13 -17.5q29 24 58 24q10 0 20 -3q9 -2 17.5 -10zM130 499q9 -5 14.5 -14t0.5 -15
l-51 -60q-7 -8 -18.5 3t-12.5 19l-6 52v2q0 6 7 6q3 0 9 -2q6 -3 10.5 -9t5.5 -13v-1l27 32q5 5 14 0z" />
    <glyph glyph-name="Sacute" unicode="&#x15a;" horiz-adv-x="467" 
d="M57 130q-1 -3 -1.5 -10.5t-1.5 -9.5q2 -1 10 -4q6 -1 19 -1q32 0 86 16q69 24 108 54q17 14 28 27.5t11 29.5q0 10 -3 14t-8 7.5t-7 5.5l-29 15q-54 -21 -87 -38q-78 -38 -112 -83q-9 -13 -13 -23zM72 229q45 36 123 69l4 2q-47 16 -78.5 32.5t-53.5 43.5q-23 29 -23 65
q0 43 30 86q46 63 144 110q106 52 192 52q76 0 105 -46q12 -17 12 -41q0 -25 -13.5 -51t-35.5 -55q-3 -4 -8 -4q-10 0 -21.5 11.5t-11.5 22.5q0 5 3 8q19 24 30.5 44.5t13.5 41.5q1 3 0.5 7l-0.5 4l-1 5l-3 1l-6 3q-21 6 -44 6q-47 0 -127 -28q-102 -37 -164 -98
q-20 -20 -37 -47.5t-17 -52.5q0 -16 8 -28t24 -20.5t31.5 -15t21.5 -8.5l33 -12q21 -7 46 -17q105 36 189 36q13 0 39 -2q10 -1 18 -7.5t12 -14.5q3 -4 3 -11q0 -12 -11 -11q-13 2 -41 2q-70 0 -148 -24q49 -36 49 -78q0 -19 -15 -42q-23 -34 -84 -63q-61 -30 -117 -38
q-28 -4 -43 -4q-29 0 -51 11q-18 10 -28.5 26.5t-10.5 35.5q0 49 62 94zM379 811q9 0 18.5 -10.5t5.5 -18.5l-23 -49q-2 -5 -8 -5q-9 0 -18.5 10.5t-5.5 17.5l24 50q3 5 7 5z" />
    <glyph glyph-name="sacute" unicode="&#x15b;" horiz-adv-x="190" 
d="M48 220l-14 -14q-12 -14 -17 -26q10 5 20 17q10 13 11 23zM-30 187q0 20 13.5 38.5t33.5 31.5l15 9q-13 20 -19.5 32.5t-6.5 26.5q0 29 22.5 46t52.5 17q12 0 27 -5q9 -3 17.5 -10.5t9.5 -15.5v-4q0 -7 -4 -10.5t-11 -0.5t-17 3q-14 0 -27.5 -6.5t-20.5 -17.5
q-6 -9 -6 -17q0 -12 10 -24q36 17 77 31t47 16l19 6h3q6 0 10.5 -5t4.5 -11q0 -8 -8 -11q-85 -30 -130 -59q10 -22 10 -40t-8.5 -34.5t-24.5 -27.5q-19 -13 -37 -13q-31 0 -46 31q-6 12 -6 24zM102 499q9 0 18.5 -10.5t5.5 -18.5l-23 -49q-2 -5 -8 -5q-9 0 -18.5 10.5
t-5.5 17.5l24 50q3 5 7 5z" />
    <glyph glyph-name="Scedilla" unicode="&#x15e;" horiz-adv-x="467" 
d="M57 130q-1 -3 -1.5 -10.5t-1.5 -9.5q2 -1 10 -4q6 -1 19 -1q32 0 86 16q69 24 108 54q17 14 28 27.5t11 29.5q0 10 -3 14t-8 7.5t-7 5.5l-29 15q-54 -21 -87 -38q-78 -38 -112 -83q-9 -13 -13 -23zM72 229q45 36 123 69l4 2q-47 16 -78.5 32.5t-53.5 43.5q-23 29 -23 65
q0 43 30 86q46 63 144 110q106 52 192 52q76 0 105 -46q12 -17 12 -41q0 -25 -13.5 -51t-35.5 -55q-3 -4 -8 -4q-10 0 -21.5 11.5t-11.5 22.5q0 5 3 8q19 24 30.5 44.5t13.5 41.5q1 3 0.5 7l-0.5 4l-1 5l-3 1l-6 3q-21 6 -44 6q-47 0 -127 -28q-102 -37 -164 -98
q-20 -20 -37 -47.5t-17 -52.5q0 -16 8 -28t24 -20.5t31.5 -15t21.5 -8.5l33 -12q21 -7 46 -17q105 36 189 36q13 0 39 -2q10 -1 18 -7.5t12 -14.5q3 -4 3 -11q0 -12 -11 -11q-13 2 -41 2q-70 0 -148 -24q49 -36 49 -78q0 -19 -15 -42q-23 -34 -84 -63q-55 -28 -108 -36
q1 -1 0.5 -3l-0.5 -2q10 -3 19 -12q12 -12 12 -28q0 -17 -14 -36q-8 -9 -18.5 -15t-21.5 -6q-14 0 -28.5 11.5t-14.5 25.5q0 3 2 9q1 5 6 5q6 0 13 -5.5t11 -11.5q13 3 23 15q6 10 8 16h-2q-5 -1 -15 -5q-9 -4 -19.5 7t-7.5 20l3 9q-36 -2 -59 11q-18 10 -28.5 26.5
t-10.5 35.5q0 49 62 94z" />
    <glyph glyph-name="scedilla" unicode="&#x15f;" horiz-adv-x="190" 
d="M48 220l-14 -14q-12 -14 -17 -26q10 5 20 17q10 13 11 23zM-24 80q6 0 13 -5.5t11 -11.5q13 3 23 15q6 10 8 16h-2q-5 -1 -15 -5q-9 -4 -19.5 7t-7.5 20l9 23q-13 8 -20 24q-6 12 -6 24q0 20 13.5 38.5t33.5 31.5l15 9q-13 20 -19.5 32.5t-6.5 26.5q0 29 22.5 46t52.5 17
q12 0 27 -5q9 -3 17.5 -10.5t9.5 -15.5v-4q0 -7 -4 -10.5t-11 -0.5t-17 3q-14 0 -27.5 -6.5t-20.5 -17.5q-6 -9 -6 -17q0 -12 10 -24q36 17 77 31t47 16l19 6h3q6 0 10.5 -5t4.5 -11q0 -8 -8 -11q-85 -30 -130 -59q10 -22 10 -40t-8.5 -34.5t-24.5 -27.5q-11 -9 -25 -12
q0 -1 0.5 -3.5t-0.5 -3.5q10 -3 19 -12q12 -12 12 -28q0 -17 -14 -36q-8 -9 -18.5 -15t-21.5 -6q-14 0 -28.5 11.5t-14.5 25.5q0 3 2 9q1 5 6 5z" />
    <glyph glyph-name="Scaron" unicode="&#x160;" horiz-adv-x="467" 
d="M57 130q-1 -3 -1.5 -10.5t-1.5 -9.5q2 -1 10 -4q6 -1 19 -1q32 0 86 16q69 24 108 54q17 14 28 27.5t11 29.5q0 10 -3 14t-8 7.5t-7 5.5l-29 15q-54 -21 -87 -38q-78 -38 -112 -83q-9 -13 -13 -23zM72 229q45 36 123 69l4 2q-47 16 -78.5 32.5t-53.5 43.5q-23 29 -23 65
q0 43 30 86q46 63 144 110q106 52 192 52q76 0 105 -46q12 -17 12 -41q0 -25 -13.5 -51t-35.5 -55q-3 -4 -8 -4q-10 0 -21.5 11.5t-11.5 22.5q0 5 3 8q19 24 30.5 44.5t13.5 41.5q1 3 0.5 7l-0.5 4l-1 5l-3 1l-6 3q-21 6 -44 6q-47 0 -127 -28q-102 -37 -164 -98
q-20 -20 -37 -47.5t-17 -52.5q0 -16 8 -28t24 -20.5t31.5 -15t21.5 -8.5l33 -12q21 -7 46 -17q105 36 189 36q13 0 39 -2q10 -1 18 -7.5t12 -14.5q3 -4 3 -11q0 -12 -11 -11q-13 2 -41 2q-70 0 -148 -24q49 -36 49 -78q0 -19 -15 -42q-23 -34 -84 -63q-61 -30 -117 -38
q-28 -4 -43 -4q-29 0 -51 11q-18 10 -28.5 26.5t-10.5 35.5q0 49 62 94zM400 817q9 -5 14.5 -14t0.5 -15l-51 -60q-7 -8 -18.5 3t-12.5 19l-6 52v2q0 6 7 6q3 0 9 -2q6 -3 10.5 -9t5.5 -13v-1l27 32q5 5 14 0z" />
    <glyph glyph-name="scaron" unicode="&#x161;" horiz-adv-x="190" 
d="M48 220l-14 -14q-12 -14 -17 -26q10 5 20 17q10 13 11 23zM-30 187q0 20 13.5 38.5t33.5 31.5l15 9q-13 20 -19.5 32.5t-6.5 26.5q0 29 22.5 46t52.5 17q12 0 27 -5q9 -3 17.5 -10.5t9.5 -15.5v-4q0 -7 -4 -10.5t-11 -0.5t-17 3q-14 0 -27.5 -6.5t-20.5 -17.5
q-6 -9 -6 -17q0 -12 10 -24q36 17 77 31t47 16l19 6h3q6 0 10.5 -5t4.5 -11q0 -8 -8 -11q-85 -30 -130 -59q10 -22 10 -40t-8.5 -34.5t-24.5 -27.5q-19 -13 -37 -13q-31 0 -46 31q-6 12 -6 24zM123 505q9 -5 14.5 -14t0.5 -15l-51 -60q-7 -8 -18.5 3t-12.5 19l-6 52v2
q0 6 7 6q3 0 9 -2q6 -3 10.5 -9t5.5 -13v-1l27 32q5 5 14 0z" />
    <glyph glyph-name="uni0162" unicode="&#x162;" horiz-adv-x="351" 
d="M578 624v1v-1zM202 653q124 28 223 28q52 0 95 -7q65 -10 90 -42q11 -14 11 -30q0 -21 -20 -41q-3 -3 -9 -3q-11 0 -22 11t-11 21q0 5 4 9q8 6 12 15l3 6l-4 2q-24 10 -51 12.5t-65 2.5q-56 0 -120 -8q11 -6 18.5 -16.5t3.5 -17.5q-32 -53 -58 -113.5t-55 -140.5
q-29 -79 -43 -142q-11 -49 -11 -69q0 -11 3 -19q3 -7 3 -11q0 -7 -7 -9v-3q10 -3 19 -12q12 -12 12 -28q0 -17 -14 -36q-8 -9 -18.5 -15t-21.5 -6q-14 0 -28.5 11.5t-14.5 25.5q0 3 2 9q1 5 6 5q6 0 13 -5.5t11 -11.5q13 3 23 15q6 10 8 16h-2q-5 -1 -15 -5q-9 -4 -19.5 7
t-7.5 20q9 24 15 32l-1 2q-8 19 -8 43q0 16 3 33.5t4 22.5q11 59 40 143q58 168 119 272q-159 -20 -269 -81q-9 -5 -23.5 7t-14.5 24q0 8 7 11q75 40 185 66zM583 617l-1 1z" />
    <glyph glyph-name="uni0163" unicode="&#x163;" horiz-adv-x="152" 
d="M-106.5 457q-13.5 13 -13.5 23q0 8 7 9q81 24 185 36q26 59 68 137q3 7 11 7q12 0 24 -14.5t7 -23.5q-25 -46 -51 -101q4 1 11 1q38 2 60 2q87 0 138 -26q8 -4 15 -12.5t7 -16.5q0 -11 -11 -11q-3 0 -11 2q-38 21 -109 21q-19 0 -53 -2l-21 -1q-32 -2 -47 -4
q-49 -114 -74 -212q-17 -70 -20 -122q-1 -19 0 -39q2 -12 4 -16q6 -5 10 -12t3 -12q10 -3 19 -12q12 -12 12 -28q0 -17 -14 -36q-8 -9 -18.5 -15t-21.5 -6q-14 0 -28.5 11.5t-14.5 25.5q0 3 2 9q1 5 6 5q6 0 13 -5.5t11 -11.5q13 3 23 15q6 10 8 16h-2q-5 -1 -15 -5
q-9 -4 -19.5 7t-7.5 20q5 15 7 19q-5 5 -9 13q-12 19 -12 57q0 56 18 135q21 93 61 192q-76 -12 -133 -29q-11 -3 -24.5 10z" />
    <glyph glyph-name="Tcaron" unicode="&#x164;" horiz-adv-x="351" 
d="M578 624v1v-1zM202 653q124 28 223 28q52 0 95 -7q65 -10 90 -42q11 -14 11 -30q0 -21 -20 -41q-3 -3 -9 -3q-11 0 -22 11t-11 21q0 5 4 9q8 6 12 15l3 6l-4 2q-24 10 -51 12.5t-65 2.5q-56 0 -120 -8q11 -6 18.5 -16.5t3.5 -17.5q-32 -53 -58 -113.5t-55 -140.5
q-29 -79 -43 -142q-11 -49 -11 -69q0 -11 3 -19q3 -7 3 -11q0 -9 -10 -9q-8 0 -17 6t-13 15q-8 19 -8 43q0 16 3 33.5t4 22.5q11 59 40 143q58 168 119 272q-159 -20 -269 -81q-9 -5 -23.5 7t-14.5 24q0 8 7 11q75 40 185 66zM583 617l-1 1zM412 795q9 -5 14.5 -14t0.5 -15
l-51 -60q-7 -8 -18.5 3t-12.5 19l-6 52v2q0 6 7 6q3 0 9 -2q6 -3 10.5 -9t5.5 -13v-1l27 32q5 5 14 0z" />
    <glyph glyph-name="tcaron" unicode="&#x165;" horiz-adv-x="152" 
d="M-106.5 457q-13.5 13 -13.5 23q0 8 7 9q81 24 185 36q26 59 68 137q3 7 11 7q12 0 24 -14.5t7 -23.5q-25 -46 -51 -101q4 1 11 1q38 2 60 2q87 0 138 -26q8 -4 15 -12.5t7 -16.5q0 -11 -11 -11q-3 0 -11 2q-38 21 -109 21q-19 0 -53 -2l-21 -1q-32 -2 -47 -4
q-49 -114 -74 -212q-17 -70 -20 -122q-1 -19 0 -39q1 -11 5 -19q3 -4 3 -10q0 -11 -13 -11q-15 0 -27 22q-12 19 -12 57q0 56 18 135q21 93 61 192q-76 -12 -133 -29q-11 -3 -24.5 10zM78 678q9 -5 14.5 -14t0.5 -15l-51 -60q-7 -8 -18.5 3t-12.5 19l-6 52v2q0 6 7 6
q3 0 9 -2q6 -3 10.5 -9t5.5 -13v-1l27 32q5 5 14 0z" />
    <glyph glyph-name="Utilde" unicode="&#x168;" horiz-adv-x="498" 
d="M60 110h-0.5h-0.5q0 -1 1 0zM30.5 320.5q20.5 76.5 56.5 163.5q30 73 63 126q17 24 31 39t32 18q11 2 24 -11.5t13 -23.5q0 -5 -6 -7q-18 -4 -31 -19.5t-31 -43.5q-32 -54 -64 -136q-30 -82 -47 -147.5t-17 -127.5q0 -11 2 -31q1 -1 1 -2.5t1 -2.5l13 -2q8 1 17 5
q20 7 43 27q53 45 93 102.5t97 153.5q41 68 78 135q56 98 85 146q3 7 11 7q4 0 10 -3q11 -5 18.5 -16.5t2.5 -18.5q-8 -16 -14.5 -30t-11.5 -26q-50 -107 -81.5 -179t-56.5 -147q-12 -36 -17.5 -59.5t-5.5 -47.5q0 -15 6 -35q1 -2 1 -5q0 -11 -12 -11q-10 0 -19 9t-12 19
q-7 18 -7 43q0 50 23 115q-61 -93 -103 -142q-26 -30 -49 -50t-49 -30q-12 -5 -29 -5q-38 0 -60 29q-19 25 -19 73q0 72 20.5 148.5zM408 769q9 -5 14.5 -14t0.5 -15q-17 -21 -34 -21q-9 0 -22 8q-3 2 -8 7t-6 5q-5 0 -12.5 -8t-8.5 -9q-4 -6 -13 -1t-14.5 14t-0.5 15
q17 20 34 20q9 0 22 -8q2 -2 7.5 -6.5t6.5 -4.5q4 0 21 17q4 6 13 1z" />
    <glyph glyph-name="utilde" unicode="&#x169;" horiz-adv-x="285" 
d="M31 286q-13 -28 -16 -44l16 9q23 15 43 33.5t49 47.5l36 34q5 3 9 3q11 0 22.5 -14t8.5 -24q-10 -30 -18 -65q-1 -3 -2 -7.5t-2 -10.5q2 0 4 2q14 6 31 20q31 25 77 76q5 5 10 5q7 0 12 -5.5t5 -12.5q0 -6 -5 -11q-35 -44 -74 -82.5t-64 -38.5q-6 0 -11 3q-31 17 -31 59
q-25 -24 -45.5 -39.5t-42.5 -25.5q-9 -4 -21 -4q-22 0 -37 16t-15 42t18 64q9 20 18.5 33.5t22.5 13.5q9 0 18 -6.5t14 -15.5q2 -6 2 -11q0 -12 -10 -11l-1 -1q-3 -2 -7 -8q-7 -8 -14 -24zM141 446q9 -5 14.5 -14t0.5 -15q-17 -21 -34 -21q-9 0 -22 8q-3 2 -8 7t-6 5
q-5 0 -12.5 -8t-8.5 -9q-4 -6 -13 -1t-14.5 14t-0.5 15q17 20 34 20q9 0 22 -8q2 -2 7.5 -6.5t6.5 -4.5q4 0 21 17q4 6 13 1z" />
    <glyph glyph-name="Umacron" unicode="&#x16a;" horiz-adv-x="498" 
d="M60 110h-0.5h-0.5q0 -1 1 0zM30.5 320.5q20.5 76.5 56.5 163.5q30 73 63 126q17 24 31 39t32 18q11 2 24 -11.5t13 -23.5q0 -5 -6 -7q-18 -4 -31 -19.5t-31 -43.5q-32 -54 -64 -136q-30 -82 -47 -147.5t-17 -127.5q0 -11 2 -31q1 -1 1 -2.5t1 -2.5l13 -2q8 1 17 5
q20 7 43 27q53 45 93 102.5t97 153.5q41 68 78 135q56 98 85 146q3 7 11 7q4 0 10 -3q11 -5 18.5 -16.5t2.5 -18.5q-8 -16 -14.5 -30t-11.5 -26q-50 -107 -81.5 -179t-56.5 -147q-12 -36 -17.5 -59.5t-5.5 -47.5q0 -15 6 -35q1 -2 1 -5q0 -11 -12 -11q-10 0 -19 9t-12 19
q-7 18 -7 43q0 50 23 115q-61 -93 -103 -142q-26 -30 -49 -50t-49 -30q-12 -5 -29 -5q-38 0 -60 29q-19 25 -19 73q0 72 20.5 148.5zM413 749q0 -4 -2 -8q-3 -6 -9 -10.5t-13 -4.5h-68q-7 0 -7 6q0 3 3 9t9 10.5t13 4.5h67q7 0 7 -7z" />
    <glyph glyph-name="umacron" unicode="&#x16b;" horiz-adv-x="285" 
d="M31 286q-13 -28 -16 -44l16 9q23 15 43 33.5t49 47.5l36 34q5 3 9 3q11 0 22.5 -14t8.5 -24q-10 -30 -18 -65q-1 -3 -2 -7.5t-2 -10.5q2 0 4 2q14 6 31 20q31 25 77 76q5 5 10 5q7 0 12 -5.5t5 -12.5q0 -6 -5 -11q-35 -44 -74 -82.5t-64 -38.5q-6 0 -11 3q-31 17 -31 59
q-25 -24 -45.5 -39.5t-42.5 -25.5q-9 -4 -21 -4q-22 0 -37 16t-15 42t18 64q9 20 18.5 33.5t22.5 13.5q9 0 18 -6.5t14 -15.5q2 -6 2 -11q0 -12 -10 -11l-1 -1q-3 -2 -7 -8q-7 -8 -14 -24zM146 426q0 -4 -2 -8q-3 -6 -9 -10.5t-13 -4.5h-68q-7 0 -7 6q0 3 3 9t9 10.5t13 4.5
h67q7 0 7 -7z" />
    <glyph glyph-name="Uring" unicode="&#x16e;" horiz-adv-x="498" 
d="M60 110h-0.5h-0.5q0 -1 1 0zM30.5 320.5q20.5 76.5 56.5 163.5q30 73 63 126q17 24 31 39t32 18q11 2 24 -11.5t13 -23.5q0 -5 -6 -7q-18 -4 -31 -19.5t-31 -43.5q-32 -54 -64 -136q-30 -82 -47 -147.5t-17 -127.5q0 -11 2 -31q1 -1 1 -2.5t1 -2.5l13 -2q8 1 17 5
q20 7 43 27q53 45 93 102.5t97 153.5q41 68 78 135q56 98 85 146q3 7 11 7q4 0 10 -3q11 -5 18.5 -16.5t2.5 -18.5q-8 -16 -14.5 -30t-11.5 -26q-50 -107 -81.5 -179t-56.5 -147q-12 -36 -17.5 -59.5t-5.5 -47.5q0 -15 6 -35q1 -2 1 -5q0 -11 -12 -11q-10 0 -19 9t-12 19
q-7 18 -7 43q0 50 23 115q-61 -93 -103 -142q-26 -30 -49 -50t-49 -30q-12 -5 -29 -5q-38 0 -60 29q-19 25 -19 73q0 72 20.5 148.5zM380 760h-3q-8 -2 -15.5 -10t-11.5 -17l-2 -6q1 1 4 1q27 12 28 28v4zM341.5 765q13.5 16 26.5 16q11 0 20.5 -8.5t11.5 -18.5
q7 -28 -34 -46q-6 -3 -13 -3q-9 0 -15 5q-12 8 -12 24q2 15 15.5 31z" />
    <glyph glyph-name="uring" unicode="&#x16f;" horiz-adv-x="285" 
d="M31 286q-13 -28 -16 -44l16 9q23 15 43 33.5t49 47.5l36 34q5 3 9 3q11 0 22.5 -14t8.5 -24q-10 -30 -18 -65q-1 -3 -2 -7.5t-2 -10.5q2 0 4 2q14 6 31 20q31 25 77 76q5 5 10 5q7 0 12 -5.5t5 -12.5q0 -6 -5 -11q-35 -44 -74 -82.5t-64 -38.5q-6 0 -11 3q-31 17 -31 59
q-25 -24 -45.5 -39.5t-42.5 -25.5q-9 -4 -21 -4q-22 0 -37 16t-15 42t18 64q9 20 18.5 33.5t22.5 13.5q9 0 18 -6.5t14 -15.5q2 -6 2 -11q0 -12 -10 -11l-1 -1q-3 -2 -7 -8q-7 -8 -14 -24zM113 437h-3q-8 -2 -15.5 -10t-11.5 -17l-2 -6q1 1 4 1q27 12 28 28v4zM74.5 442
q13.5 16 26.5 16q11 0 20.5 -8.5t11.5 -18.5q7 -28 -34 -46q-6 -3 -13 -3q-9 0 -15 5q-12 8 -12 24q2 15 15.5 31z" />
    <glyph glyph-name="Uhungarumlaut" unicode="&#x170;" horiz-adv-x="498" 
d="M60 110h-0.5h-0.5q0 -1 1 0zM30.5 320.5q20.5 76.5 56.5 163.5q30 73 63 126q17 24 31 39t32 18q11 2 24 -11.5t13 -23.5q0 -5 -6 -7q-18 -4 -31 -19.5t-31 -43.5q-32 -54 -64 -136q-30 -82 -47 -147.5t-17 -127.5q0 -11 2 -31q1 -1 1 -2.5t1 -2.5l13 -2q8 1 17 5
q20 7 43 27q53 45 93 102.5t97 153.5q41 68 78 135q56 98 85 146q3 7 11 7q4 0 10 -3q11 -5 18.5 -16.5t2.5 -18.5q-8 -16 -14.5 -30t-11.5 -26q-50 -107 -81.5 -179t-56.5 -147q-12 -36 -17.5 -59.5t-5.5 -47.5q0 -15 6 -35q1 -2 1 -5q0 -11 -12 -11q-10 0 -19 9t-12 19
q-7 18 -7 43q0 50 23 115q-61 -93 -103 -142q-26 -30 -49 -50t-49 -30q-12 -5 -29 -5q-38 0 -60 29q-19 25 -19 73q0 72 20.5 148.5zM348 790q9 0 18.5 -10.5t5.5 -18.5l-24 -49q-2 -5 -8 -5q-9 0 -18 10.5t-5 17.5l23 50q3 5 8 5zM390 785q3 5 7 5q9 0 18.5 -10.5
t5.5 -18.5l-23 -49q-2 -5 -8 -5q-9 0 -18.5 10.5t-5.5 17.5z" />
    <glyph glyph-name="uhungarumlaut" unicode="&#x171;" horiz-adv-x="285" 
d="M31 286q-13 -28 -16 -44l16 9q23 15 43 33.5t49 47.5l36 34q5 3 9 3q11 0 22.5 -14t8.5 -24q-10 -30 -18 -65q-1 -3 -2 -7.5t-2 -10.5q2 0 4 2q14 6 31 20q31 25 77 76q5 5 10 5q7 0 12 -5.5t5 -12.5q0 -6 -5 -11q-35 -44 -74 -82.5t-64 -38.5q-6 0 -11 3q-31 17 -31 59
q-25 -24 -45.5 -39.5t-42.5 -25.5q-9 -4 -21 -4q-22 0 -37 16t-15 42t18 64q9 20 18.5 33.5t22.5 13.5q9 0 18 -6.5t14 -15.5q2 -6 2 -11q0 -12 -10 -11l-1 -1q-3 -2 -7 -8q-7 -8 -14 -24zM81 467q9 0 18.5 -10.5t5.5 -18.5l-24 -49q-2 -5 -8 -5q-9 0 -18 10.5t-5 17.5
l23 50q3 5 8 5zM123 462q3 5 7 5q9 0 18.5 -10.5t5.5 -18.5l-23 -49q-2 -5 -8 -5q-9 0 -18.5 10.5t-5.5 17.5z" />
    <glyph glyph-name="Uogonek" unicode="&#x172;" horiz-adv-x="498" 
d="M60 110h-0.5h-0.5q0 -1 1 0zM30.5 320.5q20.5 76.5 56.5 163.5q30 73 63 126q17 24 31 39t32 18q11 2 24 -11.5t13 -23.5q0 -5 -6 -7q-18 -4 -31 -19.5t-31 -43.5q-32 -54 -64 -136q-30 -82 -47 -147.5t-17 -127.5q0 -11 2 -31q1 -1 1 -2.5t1 -2.5l13 -2q8 1 17 5
q20 7 43 27q53 45 93 102.5t97 153.5q41 68 78 135q56 98 85 146q3 7 11 7q4 0 10 -3q11 -5 18.5 -16.5t2.5 -18.5q-8 -16 -14.5 -30t-11.5 -26q-50 -107 -81.5 -179t-56.5 -147q-12 -36 -17.5 -59.5t-5.5 -47.5q0 -15 6 -35q1 -3 1 -9v-3q0 -6 -5 -7q-56 -20 -61 -55v-2h1
q15 0 30 9q7 4 16 -1.5t14 -14.5t-1 -13q-19 -11 -39 -11q-17 0 -30.5 8.5t-20.5 25.5q-3 9 -3 17q0 20 17 36t41 27l-2 5q-7 18 -7 43q0 50 23 115q-61 -93 -103 -142q-26 -30 -49 -50t-49 -30q-12 -5 -29 -5q-38 0 -60 29q-19 25 -19 73q0 72 20.5 148.5zM280 50
q-1 -1 -0.5 -1.5t0.5 0.5v1zM280 50v-1q1 1 0 1z" />
    <glyph glyph-name="uogonek" unicode="&#x173;" horiz-adv-x="285" 
d="M31 286q-13 -28 -16 -44l16 9q23 15 43 33.5t49 47.5l36 34q5 3 9 3q11 0 22.5 -14t8.5 -24q-10 -30 -18 -65q-1 -3 -2 -7.5t-2 -10.5q2 0 4 2q14 6 31 20q31 25 77 76q5 5 10 5q7 0 12 -5.5t5 -12.5q0 -6 -5 -11q-42 -51 -81 -88.5t-63 -31.5q-42 -20 -46 -49v-2h1
q15 0 30 9q7 4 16 -1.5t14 -14.5t-1 -13q-19 -11 -39 -11q-17 0 -30.5 8.5t-20.5 25.5q-3 9 -3 17q0 32 49 59q-6 15 -6 33q-25 -24 -45.5 -39.5t-42.5 -25.5q-9 -4 -21 -4q-22 0 -37 16t-15 42t18 64q9 20 18.5 33.5t22.5 13.5q9 0 18 -6.5t14 -15.5q2 -6 2 -11
q0 -12 -10 -11l-1 -1q-3 -2 -7 -8q-7 -8 -14 -24zM121 150q-1 -1 -0.5 -1.5t0.5 0.5q1 1 0 1zM121 150v-1v1z" />
    <glyph glyph-name="Wcircumflex" unicode="&#x174;" horiz-adv-x="619" 
d="M53 121zM84 485q20 55 41 97q3 5 9 16.5t12 19.5t13 13q2 2 8 2q11 0 22.5 -11t11.5 -21q0 -5 -4 -8q-9 -6 -15.5 -16.5t-11.5 -20.5t-6 -13q-17 -33 -43 -103q-43 -123 -60 -218q-7 -37 -7 -66q0 -13 1 -20q0 -4 2 -14q2 -2 2 0q18 3 32.5 15.5t34.5 34.5q37 46 73 104
q42 68 99 178l24 45q3 9 13 6q12 -2 23 -15t7 -22q-26 -84 -37 -179q-7 -54 -4 -97q2 -26 6 -39q0 -1 5 -13h1q14 3 20 7q23 15 51 53q54 71 102 189q23 59 37.5 106t18.5 93q2 20 0 39q-1 8 -3 13t-9 5q-4 0 -16 -4q-10 -4 -23.5 9t-13.5 24q0 8 7 9q15 5 26 5q35 0 57 -30
q19 -26 19 -67q0 -60 -18 -122t-49 -132q-26 -63 -55 -113.5t-65 -89.5q-35 -37 -62 -37q-20 0 -36.5 13.5t-26.5 32.5q-18 36 -18 93q0 30 6 82v3q-39 -71 -78 -130q-4 -5 -26 -37t-49.5 -54t-52.5 -22q-14 0 -27 7q-42 22 -42 90q0 22 7 69q17 106 67 241zM59 117.5
q0 0.5 -1 0.5v-1q1 0 1 0.5zM401 721v-2q0 -5 -7 -5q-3 0 -9 2q-6 3 -10.5 9t-5.5 13v1l-27 -32q-5 -6 -14 -1t-14.5 14t-0.5 15l51 61q7 8 18.5 -3t12.5 -20z" />
    <glyph glyph-name="wcircumflex" unicode="&#x175;" horiz-adv-x="331" 
d="M45 315q-6 -11 -9.5 -20.5t-4.5 -12.5l-6 -17q9 7 27 23q40 39 81 91q3 4 8 4q11 0 23.5 -15t8.5 -24q-16 -44 -21 -77q-2 -5 0 -13l2 1q29 22 50.5 61.5t33.5 82.5q1 7 9 7q11 0 24 -13.5t10 -24.5q-16 -54 -52 -107q-16 -25 -33 -41.5t-37 -16.5q-23 0 -37.5 19
t-15.5 44q-23 -25 -46 -41q-25 -20 -43 -20q-17 0 -30 16q-12 15 -12 36q0 19 10 47q9 27 18.5 45t25.5 21q11 3 24 -10t13 -24q0 -6 -6 -8q-9 -2 -15 -13zM185 418v-2q0 -5 -7 -5q-3 0 -9 2q-6 3 -10.5 9t-5.5 13v1l-27 -32q-5 -6 -14 -1t-14.5 14t-0.5 15l51 61
q7 8 18.5 -3t12.5 -20z" />
    <glyph glyph-name="Ycircumflex" unicode="&#x176;" horiz-adv-x="417" 
d="M14 114.5q-4 7.5 -4 13.5q0 5 3 8.5t8 3.5q6 0 15 -6q20 -12 41 -12q35 0 71 29q54 44 89.5 111.5t72.5 165.5l11 28l-37 -58q-46 -66 -76 -97q-21 -22 -41.5 -35.5t-43.5 -13.5q-35 0 -54.5 32t-19.5 70q0 82 49 197q19 46 40 78q11 16 20 24t21 9q10 1 21.5 -11.5
t11.5 -22.5q0 -9 -11 -10q2 0 0 -0.5t-3 -1.5l-9 -8q-7 -8 -19 -26q-22 -39 -39 -83q-18 -48 -28.5 -88.5t-10.5 -79.5q0 -12 5 -25t20 -8q11 4 29 18q37 30 66.5 71t67.5 104q51 83 104 191q1 7 10 7q12 0 24.5 -14t7.5 -24q-8 -52 -32 -128q-28 -98 -61.5 -180.5
t-79.5 -151.5q-25 -36 -49 -61.5t-54 -39.5q-22 -11 -49 -11q-38 0 -76 24q-7 4 -11 11.5zM324 724v-2q0 -5 -7 -5q-3 0 -9 2q-6 3 -10.5 9t-5.5 13v1l-27 -32q-5 -6 -14 -1t-14.5 14t-0.5 15l51 61q7 8 18.5 -3t12.5 -20z" />
    <glyph glyph-name="ycircumflex" unicode="&#x177;" horiz-adv-x="283" 
d="M78 124l15 31l-11 -11q-22 -23 -46 -59t-40 -68q-15 -29 -19 -50q10 9 20 23t13 18q33 45 68 116zM-65 -19q0 68 87 164q48 54 109 104l3 6l6 19q-28 -28 -51.5 -46.5t-48.5 -29.5q-9 -4 -21 -4q-22 0 -37 16t-15 41q0 27 18 65q9 20 18.5 33.5t22.5 13.5q10 0 19 -6.5
t13 -15.5q2 -6 2 -12q0 -11 -9 -10l-2 -1l-7 -8q-9 -12 -14 -24q-13 -28 -15 -44l15 9q32 22 89 77l39 37q0 1 1 1q2 2 8 2q11 0 23 -13t9 -23v-10q0 -9 -2 -27q51 33 96 52q9 4 15.5 -1.5t6.5 -14.5q0 -10 -10 -16q-66 -35 -124 -81q-2 -4 -2 -7q-20 -61 -59 -140
q-43 -81 -73 -121q-19 -26 -32 -39.5t-30 -17.5q-8 -2 -17 3t-14 13q-17 25 -17 56zM135 403v-2q0 -5 -7 -5q-3 0 -9 2q-6 3 -10.5 9t-5.5 13v1l-27 -32q-5 -6 -14 -1t-14.5 14t-0.5 15l51 61q7 8 18.5 -3t12.5 -20z" />
    <glyph glyph-name="Ydieresis" unicode="&#x178;" horiz-adv-x="417" 
d="M14 114.5q-4 7.5 -4 13.5q0 5 3 8.5t8 3.5q6 0 15 -6q20 -12 41 -12q35 0 71 29q54 44 89.5 111.5t72.5 165.5l11 28l-37 -58q-46 -66 -76 -97q-21 -22 -41.5 -35.5t-43.5 -13.5q-35 0 -54.5 32t-19.5 70q0 82 49 197q19 46 40 78q11 16 20 24t21 9q10 1 21.5 -11.5
t11.5 -22.5q0 -9 -11 -10q2 0 0 -0.5t-3 -1.5l-9 -8q-7 -8 -19 -26q-22 -39 -39 -83q-18 -48 -28.5 -88.5t-10.5 -79.5q0 -12 5 -25t20 -8q11 4 29 18q37 30 66.5 71t67.5 104q51 83 104 191q1 7 10 7q12 0 24.5 -14t7.5 -24q-8 -52 -32 -128q-28 -98 -61.5 -180.5
t-79.5 -151.5q-25 -36 -49 -61.5t-54 -39.5q-22 -11 -49 -11q-38 0 -76 24q-7 4 -11 11.5zM275 744q3 -7 2 -11l-8 -13q-2 -3 -5 -5h-3q-4 0 -12 5q-7 6 -10 12q-2 2 -2.5 5.5t0.5 5.5l8 13q2 4 4 5h3q6 0 13 -5q7 -6 10 -12zM298 756q2 4 5 5h3q7 0 12 -5q7 -6 10 -12
q4 -8 2 -11l-8 -13q-2 -4 -4 -5h-4q-3 0 -6.5 2t-5.5 3q-7 6 -10 12q-3 7 -2 11z" />
    <glyph glyph-name="Zacute" unicode="&#x179;" horiz-adv-x="545" 
d="M132 472q-6 8 -7 17q-10 96 198 144q87 20 162 20q54 0 88 -12q21 -9 36.5 -25t15.5 -35q0 -6 -1 -10q-6 -20 -21.5 -38.5t-31.5 -34.5t-23 -22q-61 -58 -129 -110.5t-170 -125.5l-113 -81q78 16 158 24q52 6 87 6q111 0 159 -54q6 -6 10 -15t-1 -14q-3 -3 -8 -3
t-11.5 3.5t-10.5 7.5q-13 15 -35 20.5t-51 7.5q-30 2 -44 2q-32 0 -92 -6q-118 -14 -250 -51q-11 -3 -24 8t-13 23q0 6 2 9q8 12 20 21.5t32 23.5q6 4 11 7.5t8 5.5q73 54 140 101q95 69 157 117t119 101q5 5 24.5 22.5t34 35t21.5 33.5v2q0 4 -16 8q-31 6 -66 6
q-79 0 -177 -29q-63 -18 -109.5 -44.5t-42.5 -70.5v-2q0 -8 -10 -8q-5 0 -11 2q-9 5 -15 13zM435 770q9 0 18.5 -10.5t5.5 -18.5l-23 -49q-2 -5 -8 -5q-9 0 -18.5 10.5t-5.5 17.5l24 50q3 5 7 5z" />
    <glyph glyph-name="zacute" unicode="&#x17a;" horiz-adv-x="250" 
d="M-31.5 203.5q-13.5 11.5 -13.5 22.5q0 7 7 10q56 29 92 50.5t69 47.5q-77 -10 -84 -36q-3 -7 -9 -7q-11 0 -24 13.5t-10 24.5q8 26 41.5 36.5t70.5 12.5q6 1 18 1q22 0 38 -8q11 -6 18.5 -16t7.5 -21q0 -10 -8.5 -19t-23.5 -21q-24 -18 -53 -36q19 0 32 -4q9 -3 17 -10.5
t10 -16.5v-2q0 -7 -4 -11.5t-11 -1.5q-10 3 -22 3t-27 -2.5l-21 -3.5q-45 -6 -86 -15q-11 -2 -24.5 9.5zM132 495q9 0 18.5 -10.5t5.5 -18.5l-23 -49q-2 -5 -8 -5q-9 0 -18.5 10.5t-5.5 17.5l24 50q3 5 7 5z" />
    <glyph glyph-name="Zdotaccent" unicode="&#x17b;" horiz-adv-x="545" 
d="M132 472q-6 8 -7 17q-10 96 198 144q87 20 162 20q54 0 88 -12q21 -9 36.5 -25t15.5 -35q0 -6 -1 -10q-6 -20 -21.5 -38.5t-31.5 -34.5t-23 -22q-61 -58 -129 -110.5t-170 -125.5l-113 -81q78 16 158 24q52 6 87 6q111 0 159 -54q6 -6 10 -15t-1 -14q-3 -3 -8 -3
t-11.5 3.5t-10.5 7.5q-13 15 -35 20.5t-51 7.5q-30 2 -44 2q-32 0 -92 -6q-118 -14 -250 -51q-11 -3 -24 8t-13 23q0 6 2 9q8 12 20 21.5t32 23.5q6 4 11 7.5t8 5.5q73 54 140 101q95 69 157 117t119 101q5 5 24.5 22.5t34 35t21.5 33.5v2q0 4 -16 8q-31 6 -66 6
q-79 0 -177 -29q-63 -18 -109.5 -44.5t-42.5 -70.5v-2q0 -8 -10 -8q-5 0 -11 2q-9 5 -15 13zM446 729q3 -7 2 -11l-8 -13q-2 -3 -5 -5h-3q-4 0 -12 5q-7 6 -10 12q-2 2 -2.5 5.5t0.5 5.5l8 13q2 4 4 5h3q6 0 13 -5q7 -6 10 -12z" />
    <glyph glyph-name="zdotaccent" unicode="&#x17c;" horiz-adv-x="250" 
d="M-31.5 203.5q-13.5 11.5 -13.5 22.5q0 7 7 10q56 29 92 50.5t69 47.5q-77 -10 -84 -36q-3 -7 -9 -7q-11 0 -24 13.5t-10 24.5q8 26 41.5 36.5t70.5 12.5q6 1 18 1q22 0 38 -8q11 -6 18.5 -16t7.5 -21q0 -10 -8.5 -19t-23.5 -21q-24 -18 -53 -36q19 0 32 -4q9 -3 17 -10.5
t10 -16.5v-2q0 -7 -4 -11.5t-11 -1.5q-10 3 -22 3t-27 -2.5l-21 -3.5q-45 -6 -86 -15q-11 -2 -24.5 9.5zM143 454q3 -7 2 -11l-8 -13q-2 -3 -5 -5h-3q-4 0 -12 5q-7 6 -10 12q-2 2 -2.5 5.5t0.5 5.5l8 13q2 4 4 5h3q6 0 13 -5q7 -6 10 -12z" />
    <glyph glyph-name="Zcaron" unicode="&#x17d;" horiz-adv-x="545" 
d="M132 472q-6 8 -7 17q-10 96 198 144q87 20 162 20q54 0 88 -12q21 -9 36.5 -25t15.5 -35q0 -6 -1 -10q-6 -20 -21.5 -38.5t-31.5 -34.5t-23 -22q-61 -58 -129 -110.5t-170 -125.5l-113 -81q78 16 158 24q52 6 87 6q111 0 159 -54q6 -6 10 -15t-1 -14q-3 -3 -8 -3
t-11.5 3.5t-10.5 7.5q-13 15 -35 20.5t-51 7.5q-30 2 -44 2q-32 0 -92 -6q-118 -14 -250 -51q-11 -3 -24 8t-13 23q0 6 2 9q8 12 20 21.5t32 23.5q6 4 11 7.5t8 5.5q73 54 140 101q95 69 157 117t119 101q5 5 24.5 22.5t34 35t21.5 33.5v2q0 4 -16 8q-31 6 -66 6
q-79 0 -177 -29q-63 -18 -109.5 -44.5t-42.5 -70.5v-2q0 -8 -10 -8q-5 0 -11 2q-9 5 -15 13zM456 776q9 -5 14.5 -14t0.5 -15l-51 -60q-7 -8 -18.5 3t-12.5 19l-6 52v2q0 6 7 6q3 0 9 -2q6 -3 10.5 -9t5.5 -13v-1l27 32q5 5 14 0z" />
    <glyph glyph-name="zcaron" unicode="&#x17e;" horiz-adv-x="250" 
d="M-31.5 203.5q-13.5 11.5 -13.5 22.5q0 7 7 10q56 29 92 50.5t69 47.5q-77 -10 -84 -36q-3 -7 -9 -7q-11 0 -24 13.5t-10 24.5q8 26 41.5 36.5t70.5 12.5q6 1 18 1q22 0 38 -8q11 -6 18.5 -16t7.5 -21q0 -10 -8.5 -19t-23.5 -21q-24 -18 -53 -36q19 0 32 -4q9 -3 17 -10.5
t10 -16.5v-2q0 -7 -4 -11.5t-11 -1.5q-10 3 -22 3t-27 -2.5l-21 -3.5q-45 -6 -86 -15q-11 -2 -24.5 9.5zM153 501q9 -5 14.5 -14t0.5 -15l-51 -60q-7 -8 -18.5 3t-12.5 19l-6 52v2q0 6 7 6q3 0 9 -2q6 -3 10.5 -9t5.5 -13v-1l27 32q5 5 14 0z" />
    <glyph glyph-name="uni0218" unicode="&#x218;" horiz-adv-x="457" 
d="M47 130q-1 -3 -1.5 -10.5t-1.5 -9.5q2 -1 10 -4q6 -1 19 -1q32 0 86 16q69 24 108 54q17 14 28 27.5t11 29.5q0 10 -3 14t-8 7.5t-7 5.5l-29 15q-54 -21 -87 -38q-78 -38 -112 -83q-9 -13 -13 -23zM62 229q45 36 123 69l4 2q-47 16 -78.5 32.5t-53.5 43.5q-23 29 -23 65
q0 43 30 86q46 63 144 110q106 52 192 52q76 0 105 -46q12 -17 12 -41q0 -25 -13.5 -51t-35.5 -55q-3 -4 -8 -4q-10 0 -21.5 11.5t-11.5 22.5q0 5 3 8q19 24 30.5 44.5t13.5 41.5q1 3 0.5 7l-0.5 4q0 3 -0.5 4l-0.5 1l-3 1l-6 3q-21 6 -44 6q-47 0 -127 -28
q-102 -37 -164 -98q-20 -20 -37 -47.5t-17 -52.5q0 -16 8 -28t24 -20.5t31.5 -15t21.5 -8.5l33 -12q21 -7 46 -17q105 36 189 36q13 0 39 -2q10 -1 18 -7.5t12 -14.5q3 -4 3 -11q0 -12 -11 -11q-13 2 -40 2q-71 0 -149 -24q49 -36 49 -78q0 -19 -15 -42q-23 -34 -84 -63
q-61 -30 -117 -38q-28 -4 -43 -4q-29 0 -51 11q-18 10 -28.5 26.5t-10.5 35.5q0 49 62 94zM184 57q3 5 8 5q9 0 18.5 -10.5t5.5 -17.5l-24 -50q-2 -5 -8 -5q-9 0 -18 10.5t-5 17.5q4 9 23 50z" />
    <glyph glyph-name="uni0219" unicode="&#x219;" horiz-adv-x="190" 
d="M48 220l-14 -14q-14 -19 -17 -26q10 5 20 17q10 13 11 23zM-5 117q3 5 8 5q9 0 18.5 -10.5t5.5 -17.5l-24 -50q-2 -5 -8 -5q-9 0 -18.5 10.5t-5.5 17.5zM-29 186q0 21 13.5 39.5t33.5 31.5q6 5 15 9q-13 18 -20 31.5t-7 27.5q0 29 22.5 46t52.5 17q12 0 27 -5
q10 -3 18 -10t9 -16v-4q0 -7 -4 -10.5t-11 -0.5t-17 3q-14 0 -27 -6.5t-21 -17.5q-6 -9 -6 -17q0 -12 10 -24q36 17 77 31t47 16l19 6h3q6 0 10.5 -5t4.5 -11q0 -8 -8 -11q-85 -30 -130 -59q10 -22 10 -40t-8.5 -34.5t-24.5 -27.5q-19 -13 -37 -13q-31 0 -46 31q-5 10 -5 23
z" />
    </font>
</defs>
</svg>
